%TF.GenerationSoftware,KiCad,Pcbnew,9.0.2*%
%TF.CreationDate,2025-05-31T05:55:54-04:00*%
%TF.ProjectId,micro autodoor,6d696372-6f20-4617-9574-6f646f6f722e,rev?*%
%TF.SameCoordinates,Original*%
%TF.FileFunction,Soldermask,Top*%
%TF.FilePolarity,Negative*%
%FSLAX46Y46*%
G04 Gerber Fmt 4.6, Leading zero omitted, Abs format (unit mm)*
G04 Created by KiCad (PCBNEW 9.0.2) date 2025-05-31 05:55:54*
%MOMM*%
%LPD*%
G01*
G04 APERTURE LIST*
G04 Aperture macros list*
%AMRoundRect*
0 Rectangle with rounded corners*
0 $1 Rounding radius*
0 $2 $3 $4 $5 $6 $7 $8 $9 X,Y pos of 4 corners*
0 Add a 4 corners polygon primitive as box body*
4,1,4,$2,$3,$4,$5,$6,$7,$8,$9,$2,$3,0*
0 Add four circle primitives for the rounded corners*
1,1,$1+$1,$2,$3*
1,1,$1+$1,$4,$5*
1,1,$1+$1,$6,$7*
1,1,$1+$1,$8,$9*
0 Add four rect primitives between the rounded corners*
20,1,$1+$1,$2,$3,$4,$5,0*
20,1,$1+$1,$4,$5,$6,$7,0*
20,1,$1+$1,$6,$7,$8,$9,0*
20,1,$1+$1,$8,$9,$2,$3,0*%
G04 Aperture macros list end*
%ADD10R,1.500000X0.900000*%
%ADD11R,0.900000X1.500000*%
%ADD12C,0.600000*%
%ADD13R,3.900000X3.900000*%
%ADD14RoundRect,0.100000X0.130000X0.100000X-0.130000X0.100000X-0.130000X-0.100000X0.130000X-0.100000X0*%
%ADD15RoundRect,0.250000X1.000000X1.000000X-1.000000X1.000000X-1.000000X-1.000000X1.000000X-1.000000X0*%
%ADD16C,2.500000*%
%ADD17RoundRect,0.100000X0.225000X0.100000X-0.225000X0.100000X-0.225000X-0.100000X0.225000X-0.100000X0*%
%ADD18RoundRect,0.225000X0.225000X0.250000X-0.225000X0.250000X-0.225000X-0.250000X0.225000X-0.250000X0*%
G04 APERTURE END LIST*
D10*
%TO.C,U1*%
X148900070Y-93087767D03*
X148900070Y-91817767D03*
X148900070Y-90547767D03*
X148900070Y-89277767D03*
X148900070Y-88007767D03*
X148900070Y-86737767D03*
X148900070Y-85467767D03*
X148900070Y-84197767D03*
X148900070Y-82927767D03*
X148900070Y-81657767D03*
X148900070Y-80387767D03*
X148900070Y-79117767D03*
X148900070Y-77847767D03*
X148900070Y-76577767D03*
D11*
X147135070Y-75327767D03*
X145865070Y-75327767D03*
X144595070Y-75327767D03*
X143325070Y-75327767D03*
X142055070Y-75327767D03*
X140785070Y-75327767D03*
X139515070Y-75327767D03*
X138245070Y-75327767D03*
X136975070Y-75327767D03*
X135705070Y-75327767D03*
X134435070Y-75327767D03*
X133165070Y-75327767D03*
D10*
X131400070Y-76577767D03*
X131400070Y-77847767D03*
X131400070Y-79117767D03*
X131400070Y-80387767D03*
X131400070Y-81657767D03*
X131400070Y-82927767D03*
X131400070Y-84197767D03*
X131400070Y-85467767D03*
X131400070Y-86737767D03*
X131400070Y-88007767D03*
X131400070Y-89277767D03*
X131400070Y-90547767D03*
X131400070Y-91817767D03*
X131400070Y-93087767D03*
D12*
X143050070Y-86067767D03*
X143050070Y-84667767D03*
X142350070Y-86767767D03*
X142350070Y-85367767D03*
X142350070Y-83967767D03*
X141650070Y-86067767D03*
D13*
X141650070Y-85367767D03*
D12*
X141650070Y-84667767D03*
X140950070Y-86767767D03*
X140950070Y-85367767D03*
X140950070Y-83967767D03*
X140250070Y-86067767D03*
X140250070Y-84667767D03*
%TD*%
D14*
%TO.C,R27*%
X112720070Y-111727767D03*
X112080070Y-111727767D03*
%TD*%
%TO.C,R26*%
X119720070Y-150547767D03*
X119080070Y-150547767D03*
%TD*%
%TO.C,R25*%
X112720070Y-86437767D03*
X112080070Y-86437767D03*
%TD*%
%TO.C,R24*%
X112720070Y-103297767D03*
X112080070Y-103297767D03*
%TD*%
%TO.C,R23*%
X119720070Y-158977767D03*
X119080070Y-158977767D03*
%TD*%
%TO.C,R22*%
X112720070Y-78007767D03*
X112080070Y-78007767D03*
%TD*%
%TO.C,R21*%
X112720070Y-94867767D03*
X112080070Y-94867767D03*
%TD*%
%TO.C,R19*%
X112720070Y-113477767D03*
X112080070Y-113477767D03*
%TD*%
%TO.C,R18*%
X119720070Y-152297767D03*
X119080070Y-152297767D03*
%TD*%
%TO.C,R17*%
X112720070Y-88187767D03*
X112080070Y-88187767D03*
%TD*%
%TO.C,R16*%
X112720070Y-105047767D03*
X112080070Y-105047767D03*
%TD*%
%TO.C,R15*%
X119720070Y-160727767D03*
X119080070Y-160727767D03*
%TD*%
%TO.C,R14*%
X112720070Y-79757767D03*
X112080070Y-79757767D03*
%TD*%
%TO.C,R13*%
X112720070Y-96617767D03*
X112080070Y-96617767D03*
%TD*%
%TO.C,R12*%
X134670070Y-145917767D03*
X134030070Y-145917767D03*
%TD*%
%TO.C,R11*%
X134670070Y-147667767D03*
X134030070Y-147667767D03*
%TD*%
%TO.C,R10*%
X134670070Y-149417767D03*
X134030070Y-149417767D03*
%TD*%
%TO.C,R9*%
X134670070Y-151167767D03*
X134030070Y-151167767D03*
%TD*%
%TO.C,R7*%
X112720070Y-115227767D03*
X112080070Y-115227767D03*
%TD*%
%TO.C,R6*%
X119720070Y-154047767D03*
X119080070Y-154047767D03*
%TD*%
%TO.C,R5*%
X112720070Y-89937767D03*
X112080070Y-89937767D03*
%TD*%
%TO.C,R4*%
X112720070Y-106797767D03*
X112080070Y-106797767D03*
%TD*%
%TO.C,R3*%
X119720070Y-162477767D03*
X119080070Y-162477767D03*
%TD*%
%TO.C,R2*%
X112720070Y-81507767D03*
X112080070Y-81507767D03*
%TD*%
%TO.C,R1*%
X112720070Y-98367767D03*
X112080070Y-98367767D03*
%TD*%
D15*
%TO.C,J5*%
X161150070Y-157327767D03*
D16*
X156150070Y-157327767D03*
X151150070Y-157327767D03*
X146150070Y-157327767D03*
X141150070Y-157327767D03*
X136150070Y-157327767D03*
X131150070Y-157327767D03*
X126150070Y-157327767D03*
%TD*%
D15*
%TO.C,J4*%
X149100070Y-147017767D03*
D16*
X144100070Y-147017767D03*
X139100070Y-147017767D03*
%TD*%
D15*
%TO.C,J3*%
X161150070Y-123387767D03*
D16*
X156150070Y-123387767D03*
%TD*%
D15*
%TO.C,J2*%
X161150070Y-134702767D03*
D16*
X156150070Y-134702767D03*
%TD*%
D15*
%TO.C,J1*%
X161150070Y-146017767D03*
D16*
X156150070Y-146017767D03*
%TD*%
D17*
%TO.C,D7*%
X110000070Y-114752767D03*
X110000070Y-114102767D03*
X110000070Y-113452767D03*
X108100070Y-113452767D03*
X108100070Y-114102767D03*
X108100070Y-114752767D03*
%TD*%
%TO.C,D6*%
X117000070Y-153572767D03*
X117000070Y-152922767D03*
X117000070Y-152272767D03*
X115100070Y-152272767D03*
X115100070Y-152922767D03*
X115100070Y-153572767D03*
%TD*%
%TO.C,D5*%
X110000070Y-89462767D03*
X110000070Y-88812767D03*
X110000070Y-88162767D03*
X108100070Y-88162767D03*
X108100070Y-88812767D03*
X108100070Y-89462767D03*
%TD*%
%TO.C,D4*%
X110000070Y-106322767D03*
X110000070Y-105672767D03*
X110000070Y-105022767D03*
X108100070Y-105022767D03*
X108100070Y-105672767D03*
X108100070Y-106322767D03*
%TD*%
%TO.C,D3*%
X117000070Y-162002767D03*
X117000070Y-161352767D03*
X117000070Y-160702767D03*
X115100070Y-160702767D03*
X115100070Y-161352767D03*
X115100070Y-162002767D03*
%TD*%
%TO.C,D2*%
X110000070Y-81032767D03*
X110000070Y-80382767D03*
X110000070Y-79732767D03*
X108100070Y-79732767D03*
X108100070Y-80382767D03*
X108100070Y-81032767D03*
%TD*%
%TO.C,D1*%
X110000070Y-97892767D03*
X110000070Y-97242767D03*
X110000070Y-96592767D03*
X108100070Y-96592767D03*
X108100070Y-97242767D03*
X108100070Y-97892767D03*
%TD*%
D18*
%TO.C,C7*%
X109945070Y-110927767D03*
X108395070Y-110927767D03*
%TD*%
%TO.C,C6*%
X116945070Y-149747767D03*
X115395070Y-149747767D03*
%TD*%
%TO.C,C5*%
X109945070Y-85637767D03*
X108395070Y-85637767D03*
%TD*%
%TO.C,C4*%
X109945070Y-102497767D03*
X108395070Y-102497767D03*
%TD*%
%TO.C,C3*%
X116945070Y-158177767D03*
X115395070Y-158177767D03*
%TD*%
%TO.C,C2*%
X109945070Y-77207767D03*
X108395070Y-77207767D03*
%TD*%
%TO.C,C1*%
X109945070Y-94067767D03*
X108395070Y-94067767D03*
%TD*%
M02*
