%TF.GenerationSoftware,KiCad,Pcbnew,9.0.2*%
%TF.CreationDate,2025-05-31T05:55:54-04:00*%
%TF.ProjectId,micro autodoor,6d696372-6f20-4617-9574-6f646f6f722e,rev?*%
%TF.SameCoordinates,Original*%
%TF.FileFunction,Copper,L1,Top*%
%TF.FilePolarity,Positive*%
%FSLAX46Y46*%
G04 Gerber Fmt 4.6, Leading zero omitted, Abs format (unit mm)*
G04 Created by KiCad (PCBNEW 9.0.2) date 2025-05-31 05:55:54*
%MOMM*%
%LPD*%
G01*
G04 APERTURE LIST*
G04 Aperture macros list*
%AMRoundRect*
0 Rectangle with rounded corners*
0 $1 Rounding radius*
0 $2 $3 $4 $5 $6 $7 $8 $9 X,Y pos of 4 corners*
0 Add a 4 corners polygon primitive as box body*
4,1,4,$2,$3,$4,$5,$6,$7,$8,$9,$2,$3,0*
0 Add four circle primitives for the rounded corners*
1,1,$1+$1,$2,$3*
1,1,$1+$1,$4,$5*
1,1,$1+$1,$6,$7*
1,1,$1+$1,$8,$9*
0 Add four rect primitives between the rounded corners*
20,1,$1+$1,$2,$3,$4,$5,0*
20,1,$1+$1,$4,$5,$6,$7,0*
20,1,$1+$1,$6,$7,$8,$9,0*
20,1,$1+$1,$8,$9,$2,$3,0*%
G04 Aperture macros list end*
%TA.AperFunction,SMDPad,CuDef*%
%ADD10R,1.500000X0.900000*%
%TD*%
%TA.AperFunction,SMDPad,CuDef*%
%ADD11R,0.900000X1.500000*%
%TD*%
%TA.AperFunction,HeatsinkPad*%
%ADD12C,0.600000*%
%TD*%
%TA.AperFunction,HeatsinkPad*%
%ADD13R,3.900000X3.900000*%
%TD*%
%TA.AperFunction,SMDPad,CuDef*%
%ADD14RoundRect,0.100000X0.130000X0.100000X-0.130000X0.100000X-0.130000X-0.100000X0.130000X-0.100000X0*%
%TD*%
%TA.AperFunction,ComponentPad*%
%ADD15RoundRect,0.250000X1.000000X1.000000X-1.000000X1.000000X-1.000000X-1.000000X1.000000X-1.000000X0*%
%TD*%
%TA.AperFunction,ComponentPad*%
%ADD16C,2.500000*%
%TD*%
%TA.AperFunction,SMDPad,CuDef*%
%ADD17RoundRect,0.100000X0.225000X0.100000X-0.225000X0.100000X-0.225000X-0.100000X0.225000X-0.100000X0*%
%TD*%
%TA.AperFunction,SMDPad,CuDef*%
%ADD18RoundRect,0.225000X0.225000X0.250000X-0.225000X0.250000X-0.225000X-0.250000X0.225000X-0.250000X0*%
%TD*%
G04 APERTURE END LIST*
D10*
%TO.P,U1,1,GND*%
%TO.N,GND*%
X148900070Y-93087767D03*
%TO.P,U1,2,3V3*%
%TO.N,+3.3V*%
X148900070Y-91817767D03*
%TO.P,U1,3,EN*%
%TO.N,unconnected-(U1-EN-Pad3)*%
X148900070Y-90547767D03*
%TO.P,U1,4,IO4*%
%TO.N,unconnected-(U1-IO4-Pad4)*%
X148900070Y-89277767D03*
%TO.P,U1,5,IO5*%
%TO.N,unconnected-(U1-IO5-Pad5)*%
X148900070Y-88007767D03*
%TO.P,U1,6,IO6*%
%TO.N,unconnected-(U1-IO6-Pad6)*%
X148900070Y-86737767D03*
%TO.P,U1,7,IO7*%
%TO.N,unconnected-(U1-IO7-Pad7)*%
X148900070Y-85467767D03*
%TO.P,U1,8,IO15*%
%TO.N,unconnected-(U1-IO15-Pad8)*%
X148900070Y-84197767D03*
%TO.P,U1,9,IO16*%
%TO.N,unconnected-(U1-IO16-Pad9)*%
X148900070Y-82927767D03*
%TO.P,U1,10,IO17*%
%TO.N,unconnected-(U1-IO17-Pad10)*%
X148900070Y-81657767D03*
%TO.P,U1,11,IO18*%
%TO.N,unconnected-(U1-IO18-Pad11)*%
X148900070Y-80387767D03*
%TO.P,U1,12,IO8*%
%TO.N,unconnected-(U1-IO8-Pad12)*%
X148900070Y-79117767D03*
%TO.P,U1,13,USB_D-*%
%TO.N,unconnected-(U1-USB_D--Pad13)*%
X148900070Y-77847767D03*
%TO.P,U1,14,USB_D+*%
%TO.N,unconnected-(U1-USB_D+-Pad14)*%
X148900070Y-76577767D03*
D11*
%TO.P,U1,15,IO3*%
%TO.N,unconnected-(U1-IO3-Pad15)*%
X147135070Y-75327767D03*
%TO.P,U1,16,IO46*%
%TO.N,unconnected-(U1-IO46-Pad16)*%
X145865070Y-75327767D03*
%TO.P,U1,17,IO9*%
%TO.N,unconnected-(U1-IO9-Pad17)*%
X144595070Y-75327767D03*
%TO.P,U1,18,IO10*%
%TO.N,unconnected-(U1-IO10-Pad18)*%
X143325070Y-75327767D03*
%TO.P,U1,19,IO11*%
%TO.N,unconnected-(U1-IO11-Pad19)*%
X142055070Y-75327767D03*
%TO.P,U1,20,IO12*%
%TO.N,unconnected-(U1-IO12-Pad20)*%
X140785070Y-75327767D03*
%TO.P,U1,21,IO13*%
%TO.N,unconnected-(U1-IO13-Pad21)*%
X139515070Y-75327767D03*
%TO.P,U1,22,IO14*%
%TO.N,unconnected-(U1-IO14-Pad22)*%
X138245070Y-75327767D03*
%TO.P,U1,23,IO21*%
%TO.N,unconnected-(U1-IO21-Pad23)*%
X136975070Y-75327767D03*
%TO.P,U1,24,IO47*%
%TO.N,unconnected-(U1-IO47-Pad24)*%
X135705070Y-75327767D03*
%TO.P,U1,25,IO48*%
%TO.N,unconnected-(U1-IO48-Pad25)*%
X134435070Y-75327767D03*
%TO.P,U1,26,IO45*%
%TO.N,unconnected-(U1-IO45-Pad26)*%
X133165070Y-75327767D03*
D10*
%TO.P,U1,27,IO0*%
%TO.N,unconnected-(U1-IO0-Pad27)*%
X131400070Y-76577767D03*
%TO.P,U1,28,IO35*%
%TO.N,unconnected-(U1-IO35-Pad28)*%
X131400070Y-77847767D03*
%TO.P,U1,29,IO36*%
%TO.N,unconnected-(U1-IO36-Pad29)*%
X131400070Y-79117767D03*
%TO.P,U1,30,IO37*%
%TO.N,unconnected-(U1-IO37-Pad30)*%
X131400070Y-80387767D03*
%TO.P,U1,31,IO38*%
%TO.N,unconnected-(U1-IO38-Pad31)*%
X131400070Y-81657767D03*
%TO.P,U1,32,IO39*%
%TO.N,unconnected-(U1-IO39-Pad32)*%
X131400070Y-82927767D03*
%TO.P,U1,33,IO40*%
%TO.N,unconnected-(U1-IO40-Pad33)*%
X131400070Y-84197767D03*
%TO.P,U1,34,IO41*%
%TO.N,unconnected-(U1-IO41-Pad34)*%
X131400070Y-85467767D03*
%TO.P,U1,35,IO42*%
%TO.N,unconnected-(U1-IO42-Pad35)*%
X131400070Y-86737767D03*
%TO.P,U1,36,RXD0*%
%TO.N,unconnected-(U1-RXD0-Pad36)*%
X131400070Y-88007767D03*
%TO.P,U1,37,TXD0*%
%TO.N,unconnected-(U1-TXD0-Pad37)*%
X131400070Y-89277767D03*
%TO.P,U1,38,IO2*%
%TO.N,unconnected-(U1-IO2-Pad38)*%
X131400070Y-90547767D03*
%TO.P,U1,39,IO1*%
%TO.N,unconnected-(U1-IO1-Pad39)*%
X131400070Y-91817767D03*
%TO.P,U1,40,GND*%
%TO.N,GND*%
X131400070Y-93087767D03*
D12*
%TO.P,U1,41,GND*%
X143050070Y-86067767D03*
X143050070Y-84667767D03*
X142350070Y-86767767D03*
X142350070Y-85367767D03*
X142350070Y-83967767D03*
X141650070Y-86067767D03*
D13*
X141650070Y-85367767D03*
D12*
X141650070Y-84667767D03*
X140950070Y-86767767D03*
X140950070Y-85367767D03*
X140950070Y-83967767D03*
X140250070Y-86067767D03*
X140250070Y-84667767D03*
%TD*%
D14*
%TO.P,R27,1*%
%TO.N,/board_principal/IMPUT_DIGITAL6/OUT*%
X112720070Y-111727767D03*
%TO.P,R27,2*%
%TO.N,GND*%
X112080070Y-111727767D03*
%TD*%
%TO.P,R26,1*%
%TO.N,/board_principal/IMPUT_DIGITAL5/OUT*%
X119720070Y-150547767D03*
%TO.P,R26,2*%
%TO.N,GND*%
X119080070Y-150547767D03*
%TD*%
%TO.P,R25,1*%
%TO.N,/board_principal/IMPUT_DIGITAL4/OUT*%
X112720070Y-86437767D03*
%TO.P,R25,2*%
%TO.N,GND*%
X112080070Y-86437767D03*
%TD*%
%TO.P,R24,1*%
%TO.N,/board_principal/IMPUT_DIGITAL3/OUT*%
X112720070Y-103297767D03*
%TO.P,R24,2*%
%TO.N,GND*%
X112080070Y-103297767D03*
%TD*%
%TO.P,R23,1*%
%TO.N,/board_principal/IMPUT_DIGITAL2/OUT*%
X119720070Y-158977767D03*
%TO.P,R23,2*%
%TO.N,GND*%
X119080070Y-158977767D03*
%TD*%
%TO.P,R22,1*%
%TO.N,/board_principal/IMPUT_DIGITAL1/OUT*%
X112720070Y-78007767D03*
%TO.P,R22,2*%
%TO.N,GND*%
X112080070Y-78007767D03*
%TD*%
%TO.P,R21,1*%
%TO.N,/board_principal/IMPUT_DIGITAL/OUT*%
X112720070Y-94867767D03*
%TO.P,R21,2*%
%TO.N,GND*%
X112080070Y-94867767D03*
%TD*%
%TO.P,R19,1*%
%TO.N,/board_principal/IMPUT_DIGITAL6/OUT*%
X112720070Y-113477767D03*
%TO.P,R19,2*%
%TO.N,/board_principal/FTC*%
X112080070Y-113477767D03*
%TD*%
%TO.P,R18,1*%
%TO.N,/board_principal/IMPUT_DIGITAL5/OUT*%
X119720070Y-152297767D03*
%TO.P,R18,2*%
%TO.N,/board_principal/B_STOP*%
X119080070Y-152297767D03*
%TD*%
%TO.P,R17,1*%
%TO.N,/board_principal/IMPUT_DIGITAL4/OUT*%
X112720070Y-88187767D03*
%TO.P,R17,2*%
%TO.N,/board_principal/BC*%
X112080070Y-88187767D03*
%TD*%
%TO.P,R16,1*%
%TO.N,/board_principal/IMPUT_DIGITAL3/OUT*%
X112720070Y-105047767D03*
%TO.P,R16,2*%
%TO.N,/board_principal/BA*%
X112080070Y-105047767D03*
%TD*%
%TO.P,R15,1*%
%TO.N,/board_principal/IMPUT_DIGITAL2/OUT*%
X119720070Y-160727767D03*
%TO.P,R15,2*%
%TO.N,/board_principal/PP*%
X119080070Y-160727767D03*
%TD*%
%TO.P,R14,1*%
%TO.N,/board_principal/IMPUT_DIGITAL1/OUT*%
X112720070Y-79757767D03*
%TO.P,R14,2*%
%TO.N,/board_principal/IMPUT_DIGITAL1/IN*%
X112080070Y-79757767D03*
%TD*%
%TO.P,R13,1*%
%TO.N,/board_principal/IMPUT_DIGITAL/OUT*%
X112720070Y-96617767D03*
%TO.P,R13,2*%
%TO.N,/board_principal/IMPUT_DIGITAL/IN*%
X112080070Y-96617767D03*
%TD*%
%TO.P,R12,1*%
%TO.N,+3.3V*%
X134670070Y-145917767D03*
%TO.P,R12,2*%
%TO.N,/board_principal/DIP4*%
X134030070Y-145917767D03*
%TD*%
%TO.P,R11,1*%
%TO.N,+3.3V*%
X134670070Y-147667767D03*
%TO.P,R11,2*%
%TO.N,/board_principal/DIP3*%
X134030070Y-147667767D03*
%TD*%
%TO.P,R10,1*%
%TO.N,+3.3V*%
X134670070Y-149417767D03*
%TO.P,R10,2*%
%TO.N,/board_principal/DIP2*%
X134030070Y-149417767D03*
%TD*%
%TO.P,R9,1*%
%TO.N,+3.3V*%
X134670070Y-151167767D03*
%TO.P,R9,2*%
%TO.N,/board_principal/DIP1*%
X134030070Y-151167767D03*
%TD*%
%TO.P,R7,1*%
%TO.N,+3.3V*%
X112720070Y-115227767D03*
%TO.P,R7,2*%
%TO.N,/board_principal/FTC*%
X112080070Y-115227767D03*
%TD*%
%TO.P,R6,1*%
%TO.N,+3.3V*%
X119720070Y-154047767D03*
%TO.P,R6,2*%
%TO.N,/board_principal/B_STOP*%
X119080070Y-154047767D03*
%TD*%
%TO.P,R5,1*%
%TO.N,+3.3V*%
X112720070Y-89937767D03*
%TO.P,R5,2*%
%TO.N,/board_principal/BC*%
X112080070Y-89937767D03*
%TD*%
%TO.P,R4,1*%
%TO.N,+3.3V*%
X112720070Y-106797767D03*
%TO.P,R4,2*%
%TO.N,/board_principal/BA*%
X112080070Y-106797767D03*
%TD*%
%TO.P,R3,1*%
%TO.N,+3.3V*%
X119720070Y-162477767D03*
%TO.P,R3,2*%
%TO.N,/board_principal/PP*%
X119080070Y-162477767D03*
%TD*%
%TO.P,R2,1*%
%TO.N,+3.3V*%
X112720070Y-81507767D03*
%TO.P,R2,2*%
%TO.N,/board_principal/IMPUT_DIGITAL1/IN*%
X112080070Y-81507767D03*
%TD*%
%TO.P,R1,1*%
%TO.N,+3.3V*%
X112720070Y-98367767D03*
%TO.P,R1,2*%
%TO.N,/board_principal/IMPUT_DIGITAL/IN*%
X112080070Y-98367767D03*
%TD*%
D15*
%TO.P,J5,1,Pin_1*%
%TO.N,/board_principal/FTC*%
X161150070Y-157327767D03*
D16*
%TO.P,J5,2,Pin_2*%
%TO.N,/board_principal/B_STOP*%
X156150070Y-157327767D03*
%TO.P,J5,3,Pin_3*%
%TO.N,/board_principal/BC*%
X151150070Y-157327767D03*
%TO.P,J5,4,Pin_4*%
%TO.N,/board_principal/BA*%
X146150070Y-157327767D03*
%TO.P,J5,5,Pin_5*%
%TO.N,/board_principal/PP*%
X141150070Y-157327767D03*
%TO.P,J5,6,Pin_6*%
%TO.N,/board_principal/LSC*%
X136150070Y-157327767D03*
%TO.P,J5,7,Pin_7*%
%TO.N,/board_principal/LSA*%
X131150070Y-157327767D03*
%TO.P,J5,8,Pin_8*%
%TO.N,GND*%
X126150070Y-157327767D03*
%TD*%
D15*
%TO.P,J4,1,Pin_1*%
%TO.N,/board_principal/RS-485+*%
X149100070Y-147017767D03*
D16*
%TO.P,J4,2,Pin_2*%
%TO.N,GND*%
X144100070Y-147017767D03*
%TO.P,J4,3,Pin_3*%
%TO.N,/board_principal/RS-485-*%
X139100070Y-147017767D03*
%TD*%
D15*
%TO.P,J3,1,Pin_1*%
%TO.N,VCC*%
X161150070Y-123387767D03*
D16*
%TO.P,J3,2,Pin_2*%
%TO.N,GND*%
X156150070Y-123387767D03*
%TD*%
D15*
%TO.P,J2,1,Pin_1*%
%TO.N,/MA_POWER*%
X161150070Y-134702767D03*
D16*
%TO.P,J2,2,Pin_2*%
%TO.N,/MC_POWER*%
X156150070Y-134702767D03*
%TD*%
D15*
%TO.P,J1,1,Pin_1*%
%TO.N,/board_principal/LAMP+*%
X161150070Y-146017767D03*
D16*
%TO.P,J1,2,Pin_2*%
%TO.N,/board_principal/LAMP-*%
X156150070Y-146017767D03*
%TD*%
D17*
%TO.P,D7,1,K1*%
%TO.N,/board_principal/IMPUT_DIGITAL6/OUT*%
X110000070Y-114752767D03*
%TO.P,D7,2,A*%
%TO.N,GND*%
X110000070Y-114102767D03*
%TO.P,D7,3*%
%TO.N,N/C*%
X110000070Y-113452767D03*
%TO.P,D7,4*%
X108100070Y-113452767D03*
%TO.P,D7,5*%
X108100070Y-114102767D03*
%TO.P,D7,6*%
X108100070Y-114752767D03*
%TD*%
%TO.P,D6,1,K1*%
%TO.N,/board_principal/IMPUT_DIGITAL5/OUT*%
X117000070Y-153572767D03*
%TO.P,D6,2,A*%
%TO.N,GND*%
X117000070Y-152922767D03*
%TO.P,D6,3*%
%TO.N,N/C*%
X117000070Y-152272767D03*
%TO.P,D6,4*%
X115100070Y-152272767D03*
%TO.P,D6,5*%
X115100070Y-152922767D03*
%TO.P,D6,6*%
X115100070Y-153572767D03*
%TD*%
%TO.P,D5,1,K1*%
%TO.N,/board_principal/IMPUT_DIGITAL4/OUT*%
X110000070Y-89462767D03*
%TO.P,D5,2,A*%
%TO.N,GND*%
X110000070Y-88812767D03*
%TO.P,D5,3*%
%TO.N,N/C*%
X110000070Y-88162767D03*
%TO.P,D5,4*%
X108100070Y-88162767D03*
%TO.P,D5,5*%
X108100070Y-88812767D03*
%TO.P,D5,6*%
X108100070Y-89462767D03*
%TD*%
%TO.P,D4,1,K1*%
%TO.N,/board_principal/IMPUT_DIGITAL3/OUT*%
X110000070Y-106322767D03*
%TO.P,D4,2,A*%
%TO.N,GND*%
X110000070Y-105672767D03*
%TO.P,D4,3*%
%TO.N,N/C*%
X110000070Y-105022767D03*
%TO.P,D4,4*%
X108100070Y-105022767D03*
%TO.P,D4,5*%
X108100070Y-105672767D03*
%TO.P,D4,6*%
X108100070Y-106322767D03*
%TD*%
%TO.P,D3,1,K1*%
%TO.N,/board_principal/IMPUT_DIGITAL2/OUT*%
X117000070Y-162002767D03*
%TO.P,D3,2,A*%
%TO.N,GND*%
X117000070Y-161352767D03*
%TO.P,D3,3*%
%TO.N,N/C*%
X117000070Y-160702767D03*
%TO.P,D3,4*%
X115100070Y-160702767D03*
%TO.P,D3,5*%
X115100070Y-161352767D03*
%TO.P,D3,6*%
X115100070Y-162002767D03*
%TD*%
%TO.P,D2,1,K1*%
%TO.N,/board_principal/IMPUT_DIGITAL1/OUT*%
X110000070Y-81032767D03*
%TO.P,D2,2,A*%
%TO.N,GND*%
X110000070Y-80382767D03*
%TO.P,D2,3*%
%TO.N,N/C*%
X110000070Y-79732767D03*
%TO.P,D2,4*%
X108100070Y-79732767D03*
%TO.P,D2,5*%
X108100070Y-80382767D03*
%TO.P,D2,6*%
X108100070Y-81032767D03*
%TD*%
%TO.P,D1,1,K1*%
%TO.N,/board_principal/IMPUT_DIGITAL/OUT*%
X110000070Y-97892767D03*
%TO.P,D1,2,A*%
%TO.N,GND*%
X110000070Y-97242767D03*
%TO.P,D1,3*%
%TO.N,N/C*%
X110000070Y-96592767D03*
%TO.P,D1,4*%
X108100070Y-96592767D03*
%TO.P,D1,5*%
X108100070Y-97242767D03*
%TO.P,D1,6*%
X108100070Y-97892767D03*
%TD*%
D18*
%TO.P,C7,1*%
%TO.N,/board_principal/IMPUT_DIGITAL6/OUT*%
X109945070Y-110927767D03*
%TO.P,C7,2*%
%TO.N,GND*%
X108395070Y-110927767D03*
%TD*%
%TO.P,C6,1*%
%TO.N,/board_principal/IMPUT_DIGITAL5/OUT*%
X116945070Y-149747767D03*
%TO.P,C6,2*%
%TO.N,GND*%
X115395070Y-149747767D03*
%TD*%
%TO.P,C5,1*%
%TO.N,/board_principal/IMPUT_DIGITAL4/OUT*%
X109945070Y-85637767D03*
%TO.P,C5,2*%
%TO.N,GND*%
X108395070Y-85637767D03*
%TD*%
%TO.P,C4,1*%
%TO.N,/board_principal/IMPUT_DIGITAL3/OUT*%
X109945070Y-102497767D03*
%TO.P,C4,2*%
%TO.N,GND*%
X108395070Y-102497767D03*
%TD*%
%TO.P,C3,1*%
%TO.N,/board_principal/IMPUT_DIGITAL2/OUT*%
X116945070Y-158177767D03*
%TO.P,C3,2*%
%TO.N,GND*%
X115395070Y-158177767D03*
%TD*%
%TO.P,C2,1*%
%TO.N,/board_principal/IMPUT_DIGITAL1/OUT*%
X109945070Y-77207767D03*
%TO.P,C2,2*%
%TO.N,GND*%
X108395070Y-77207767D03*
%TD*%
%TO.P,C1,1*%
%TO.N,/board_principal/IMPUT_DIGITAL/OUT*%
X109945070Y-94067767D03*
%TO.P,C1,2*%
%TO.N,GND*%
X108395070Y-94067767D03*
%TD*%
M02*
