%TF.GenerationSoftware,KiCad,Pcbnew,9.0.2*%
%TF.CreationDate,2025-05-31T05:55:54-04:00*%
%TF.ProjectId,micro autodoor,6d696372-6f20-4617-9574-6f646f6f722e,rev?*%
%TF.SameCoordinates,Original*%
%TF.FileFunction,Legend,Top*%
%TF.FilePolarity,Positive*%
%FSLAX46Y46*%
G04 Gerber Fmt 4.6, Leading zero omitted, Abs format (unit mm)*
G04 Created by KiCad (PCBNEW 9.0.2) date 2025-05-31 05:55:54*
%MOMM*%
%LPD*%
G01*
G04 APERTURE LIST*
%ADD10C,0.150000*%
%ADD11C,0.120000*%
G04 APERTURE END LIST*
D10*
X151195250Y-75665862D02*
X150385727Y-75665862D01*
X150385727Y-75665862D02*
X150290489Y-75713481D01*
X150290489Y-75713481D02*
X150242870Y-75761100D01*
X150242870Y-75761100D02*
X150195250Y-75856338D01*
X150195250Y-75856338D02*
X150195250Y-76046814D01*
X150195250Y-76046814D02*
X150242870Y-76142052D01*
X150242870Y-76142052D02*
X150290489Y-76189671D01*
X150290489Y-76189671D02*
X150385727Y-76237290D01*
X150385727Y-76237290D02*
X151195250Y-76237290D01*
X150195250Y-77237290D02*
X150195250Y-76665862D01*
X150195250Y-76951576D02*
X151195250Y-76951576D01*
X151195250Y-76951576D02*
X151052393Y-76856338D01*
X151052393Y-76856338D02*
X150957155Y-76761100D01*
X150957155Y-76761100D02*
X150909536Y-76665862D01*
X111757212Y-113232586D02*
X111423879Y-112756395D01*
X111185784Y-113232586D02*
X111185784Y-112232586D01*
X111185784Y-112232586D02*
X111566736Y-112232586D01*
X111566736Y-112232586D02*
X111661974Y-112280205D01*
X111661974Y-112280205D02*
X111709593Y-112327824D01*
X111709593Y-112327824D02*
X111757212Y-112423062D01*
X111757212Y-112423062D02*
X111757212Y-112565919D01*
X111757212Y-112565919D02*
X111709593Y-112661157D01*
X111709593Y-112661157D02*
X111661974Y-112708776D01*
X111661974Y-112708776D02*
X111566736Y-112756395D01*
X111566736Y-112756395D02*
X111185784Y-112756395D01*
X112138165Y-112327824D02*
X112185784Y-112280205D01*
X112185784Y-112280205D02*
X112281022Y-112232586D01*
X112281022Y-112232586D02*
X112519117Y-112232586D01*
X112519117Y-112232586D02*
X112614355Y-112280205D01*
X112614355Y-112280205D02*
X112661974Y-112327824D01*
X112661974Y-112327824D02*
X112709593Y-112423062D01*
X112709593Y-112423062D02*
X112709593Y-112518300D01*
X112709593Y-112518300D02*
X112661974Y-112661157D01*
X112661974Y-112661157D02*
X112090546Y-113232586D01*
X112090546Y-113232586D02*
X112709593Y-113232586D01*
X113042927Y-112232586D02*
X113709593Y-112232586D01*
X113709593Y-112232586D02*
X113281022Y-113232586D01*
X118757212Y-152052586D02*
X118423879Y-151576395D01*
X118185784Y-152052586D02*
X118185784Y-151052586D01*
X118185784Y-151052586D02*
X118566736Y-151052586D01*
X118566736Y-151052586D02*
X118661974Y-151100205D01*
X118661974Y-151100205D02*
X118709593Y-151147824D01*
X118709593Y-151147824D02*
X118757212Y-151243062D01*
X118757212Y-151243062D02*
X118757212Y-151385919D01*
X118757212Y-151385919D02*
X118709593Y-151481157D01*
X118709593Y-151481157D02*
X118661974Y-151528776D01*
X118661974Y-151528776D02*
X118566736Y-151576395D01*
X118566736Y-151576395D02*
X118185784Y-151576395D01*
X119138165Y-151147824D02*
X119185784Y-151100205D01*
X119185784Y-151100205D02*
X119281022Y-151052586D01*
X119281022Y-151052586D02*
X119519117Y-151052586D01*
X119519117Y-151052586D02*
X119614355Y-151100205D01*
X119614355Y-151100205D02*
X119661974Y-151147824D01*
X119661974Y-151147824D02*
X119709593Y-151243062D01*
X119709593Y-151243062D02*
X119709593Y-151338300D01*
X119709593Y-151338300D02*
X119661974Y-151481157D01*
X119661974Y-151481157D02*
X119090546Y-152052586D01*
X119090546Y-152052586D02*
X119709593Y-152052586D01*
X120566736Y-151052586D02*
X120376260Y-151052586D01*
X120376260Y-151052586D02*
X120281022Y-151100205D01*
X120281022Y-151100205D02*
X120233403Y-151147824D01*
X120233403Y-151147824D02*
X120138165Y-151290681D01*
X120138165Y-151290681D02*
X120090546Y-151481157D01*
X120090546Y-151481157D02*
X120090546Y-151862109D01*
X120090546Y-151862109D02*
X120138165Y-151957347D01*
X120138165Y-151957347D02*
X120185784Y-152004967D01*
X120185784Y-152004967D02*
X120281022Y-152052586D01*
X120281022Y-152052586D02*
X120471498Y-152052586D01*
X120471498Y-152052586D02*
X120566736Y-152004967D01*
X120566736Y-152004967D02*
X120614355Y-151957347D01*
X120614355Y-151957347D02*
X120661974Y-151862109D01*
X120661974Y-151862109D02*
X120661974Y-151624014D01*
X120661974Y-151624014D02*
X120614355Y-151528776D01*
X120614355Y-151528776D02*
X120566736Y-151481157D01*
X120566736Y-151481157D02*
X120471498Y-151433538D01*
X120471498Y-151433538D02*
X120281022Y-151433538D01*
X120281022Y-151433538D02*
X120185784Y-151481157D01*
X120185784Y-151481157D02*
X120138165Y-151528776D01*
X120138165Y-151528776D02*
X120090546Y-151624014D01*
X111757212Y-87942586D02*
X111423879Y-87466395D01*
X111185784Y-87942586D02*
X111185784Y-86942586D01*
X111185784Y-86942586D02*
X111566736Y-86942586D01*
X111566736Y-86942586D02*
X111661974Y-86990205D01*
X111661974Y-86990205D02*
X111709593Y-87037824D01*
X111709593Y-87037824D02*
X111757212Y-87133062D01*
X111757212Y-87133062D02*
X111757212Y-87275919D01*
X111757212Y-87275919D02*
X111709593Y-87371157D01*
X111709593Y-87371157D02*
X111661974Y-87418776D01*
X111661974Y-87418776D02*
X111566736Y-87466395D01*
X111566736Y-87466395D02*
X111185784Y-87466395D01*
X112138165Y-87037824D02*
X112185784Y-86990205D01*
X112185784Y-86990205D02*
X112281022Y-86942586D01*
X112281022Y-86942586D02*
X112519117Y-86942586D01*
X112519117Y-86942586D02*
X112614355Y-86990205D01*
X112614355Y-86990205D02*
X112661974Y-87037824D01*
X112661974Y-87037824D02*
X112709593Y-87133062D01*
X112709593Y-87133062D02*
X112709593Y-87228300D01*
X112709593Y-87228300D02*
X112661974Y-87371157D01*
X112661974Y-87371157D02*
X112090546Y-87942586D01*
X112090546Y-87942586D02*
X112709593Y-87942586D01*
X113614355Y-86942586D02*
X113138165Y-86942586D01*
X113138165Y-86942586D02*
X113090546Y-87418776D01*
X113090546Y-87418776D02*
X113138165Y-87371157D01*
X113138165Y-87371157D02*
X113233403Y-87323538D01*
X113233403Y-87323538D02*
X113471498Y-87323538D01*
X113471498Y-87323538D02*
X113566736Y-87371157D01*
X113566736Y-87371157D02*
X113614355Y-87418776D01*
X113614355Y-87418776D02*
X113661974Y-87514014D01*
X113661974Y-87514014D02*
X113661974Y-87752109D01*
X113661974Y-87752109D02*
X113614355Y-87847347D01*
X113614355Y-87847347D02*
X113566736Y-87894967D01*
X113566736Y-87894967D02*
X113471498Y-87942586D01*
X113471498Y-87942586D02*
X113233403Y-87942586D01*
X113233403Y-87942586D02*
X113138165Y-87894967D01*
X113138165Y-87894967D02*
X113090546Y-87847347D01*
X111757212Y-104802586D02*
X111423879Y-104326395D01*
X111185784Y-104802586D02*
X111185784Y-103802586D01*
X111185784Y-103802586D02*
X111566736Y-103802586D01*
X111566736Y-103802586D02*
X111661974Y-103850205D01*
X111661974Y-103850205D02*
X111709593Y-103897824D01*
X111709593Y-103897824D02*
X111757212Y-103993062D01*
X111757212Y-103993062D02*
X111757212Y-104135919D01*
X111757212Y-104135919D02*
X111709593Y-104231157D01*
X111709593Y-104231157D02*
X111661974Y-104278776D01*
X111661974Y-104278776D02*
X111566736Y-104326395D01*
X111566736Y-104326395D02*
X111185784Y-104326395D01*
X112138165Y-103897824D02*
X112185784Y-103850205D01*
X112185784Y-103850205D02*
X112281022Y-103802586D01*
X112281022Y-103802586D02*
X112519117Y-103802586D01*
X112519117Y-103802586D02*
X112614355Y-103850205D01*
X112614355Y-103850205D02*
X112661974Y-103897824D01*
X112661974Y-103897824D02*
X112709593Y-103993062D01*
X112709593Y-103993062D02*
X112709593Y-104088300D01*
X112709593Y-104088300D02*
X112661974Y-104231157D01*
X112661974Y-104231157D02*
X112090546Y-104802586D01*
X112090546Y-104802586D02*
X112709593Y-104802586D01*
X113566736Y-104135919D02*
X113566736Y-104802586D01*
X113328641Y-103754967D02*
X113090546Y-104469252D01*
X113090546Y-104469252D02*
X113709593Y-104469252D01*
X118757212Y-160482586D02*
X118423879Y-160006395D01*
X118185784Y-160482586D02*
X118185784Y-159482586D01*
X118185784Y-159482586D02*
X118566736Y-159482586D01*
X118566736Y-159482586D02*
X118661974Y-159530205D01*
X118661974Y-159530205D02*
X118709593Y-159577824D01*
X118709593Y-159577824D02*
X118757212Y-159673062D01*
X118757212Y-159673062D02*
X118757212Y-159815919D01*
X118757212Y-159815919D02*
X118709593Y-159911157D01*
X118709593Y-159911157D02*
X118661974Y-159958776D01*
X118661974Y-159958776D02*
X118566736Y-160006395D01*
X118566736Y-160006395D02*
X118185784Y-160006395D01*
X119138165Y-159577824D02*
X119185784Y-159530205D01*
X119185784Y-159530205D02*
X119281022Y-159482586D01*
X119281022Y-159482586D02*
X119519117Y-159482586D01*
X119519117Y-159482586D02*
X119614355Y-159530205D01*
X119614355Y-159530205D02*
X119661974Y-159577824D01*
X119661974Y-159577824D02*
X119709593Y-159673062D01*
X119709593Y-159673062D02*
X119709593Y-159768300D01*
X119709593Y-159768300D02*
X119661974Y-159911157D01*
X119661974Y-159911157D02*
X119090546Y-160482586D01*
X119090546Y-160482586D02*
X119709593Y-160482586D01*
X120042927Y-159482586D02*
X120661974Y-159482586D01*
X120661974Y-159482586D02*
X120328641Y-159863538D01*
X120328641Y-159863538D02*
X120471498Y-159863538D01*
X120471498Y-159863538D02*
X120566736Y-159911157D01*
X120566736Y-159911157D02*
X120614355Y-159958776D01*
X120614355Y-159958776D02*
X120661974Y-160054014D01*
X120661974Y-160054014D02*
X120661974Y-160292109D01*
X120661974Y-160292109D02*
X120614355Y-160387347D01*
X120614355Y-160387347D02*
X120566736Y-160434967D01*
X120566736Y-160434967D02*
X120471498Y-160482586D01*
X120471498Y-160482586D02*
X120185784Y-160482586D01*
X120185784Y-160482586D02*
X120090546Y-160434967D01*
X120090546Y-160434967D02*
X120042927Y-160387347D01*
X111757212Y-79512586D02*
X111423879Y-79036395D01*
X111185784Y-79512586D02*
X111185784Y-78512586D01*
X111185784Y-78512586D02*
X111566736Y-78512586D01*
X111566736Y-78512586D02*
X111661974Y-78560205D01*
X111661974Y-78560205D02*
X111709593Y-78607824D01*
X111709593Y-78607824D02*
X111757212Y-78703062D01*
X111757212Y-78703062D02*
X111757212Y-78845919D01*
X111757212Y-78845919D02*
X111709593Y-78941157D01*
X111709593Y-78941157D02*
X111661974Y-78988776D01*
X111661974Y-78988776D02*
X111566736Y-79036395D01*
X111566736Y-79036395D02*
X111185784Y-79036395D01*
X112138165Y-78607824D02*
X112185784Y-78560205D01*
X112185784Y-78560205D02*
X112281022Y-78512586D01*
X112281022Y-78512586D02*
X112519117Y-78512586D01*
X112519117Y-78512586D02*
X112614355Y-78560205D01*
X112614355Y-78560205D02*
X112661974Y-78607824D01*
X112661974Y-78607824D02*
X112709593Y-78703062D01*
X112709593Y-78703062D02*
X112709593Y-78798300D01*
X112709593Y-78798300D02*
X112661974Y-78941157D01*
X112661974Y-78941157D02*
X112090546Y-79512586D01*
X112090546Y-79512586D02*
X112709593Y-79512586D01*
X113090546Y-78607824D02*
X113138165Y-78560205D01*
X113138165Y-78560205D02*
X113233403Y-78512586D01*
X113233403Y-78512586D02*
X113471498Y-78512586D01*
X113471498Y-78512586D02*
X113566736Y-78560205D01*
X113566736Y-78560205D02*
X113614355Y-78607824D01*
X113614355Y-78607824D02*
X113661974Y-78703062D01*
X113661974Y-78703062D02*
X113661974Y-78798300D01*
X113661974Y-78798300D02*
X113614355Y-78941157D01*
X113614355Y-78941157D02*
X113042927Y-79512586D01*
X113042927Y-79512586D02*
X113661974Y-79512586D01*
X111757212Y-96372586D02*
X111423879Y-95896395D01*
X111185784Y-96372586D02*
X111185784Y-95372586D01*
X111185784Y-95372586D02*
X111566736Y-95372586D01*
X111566736Y-95372586D02*
X111661974Y-95420205D01*
X111661974Y-95420205D02*
X111709593Y-95467824D01*
X111709593Y-95467824D02*
X111757212Y-95563062D01*
X111757212Y-95563062D02*
X111757212Y-95705919D01*
X111757212Y-95705919D02*
X111709593Y-95801157D01*
X111709593Y-95801157D02*
X111661974Y-95848776D01*
X111661974Y-95848776D02*
X111566736Y-95896395D01*
X111566736Y-95896395D02*
X111185784Y-95896395D01*
X112138165Y-95467824D02*
X112185784Y-95420205D01*
X112185784Y-95420205D02*
X112281022Y-95372586D01*
X112281022Y-95372586D02*
X112519117Y-95372586D01*
X112519117Y-95372586D02*
X112614355Y-95420205D01*
X112614355Y-95420205D02*
X112661974Y-95467824D01*
X112661974Y-95467824D02*
X112709593Y-95563062D01*
X112709593Y-95563062D02*
X112709593Y-95658300D01*
X112709593Y-95658300D02*
X112661974Y-95801157D01*
X112661974Y-95801157D02*
X112090546Y-96372586D01*
X112090546Y-96372586D02*
X112709593Y-96372586D01*
X113661974Y-96372586D02*
X113090546Y-96372586D01*
X113376260Y-96372586D02*
X113376260Y-95372586D01*
X113376260Y-95372586D02*
X113281022Y-95515443D01*
X113281022Y-95515443D02*
X113185784Y-95610681D01*
X113185784Y-95610681D02*
X113090546Y-95658300D01*
X111757212Y-114982586D02*
X111423879Y-114506395D01*
X111185784Y-114982586D02*
X111185784Y-113982586D01*
X111185784Y-113982586D02*
X111566736Y-113982586D01*
X111566736Y-113982586D02*
X111661974Y-114030205D01*
X111661974Y-114030205D02*
X111709593Y-114077824D01*
X111709593Y-114077824D02*
X111757212Y-114173062D01*
X111757212Y-114173062D02*
X111757212Y-114315919D01*
X111757212Y-114315919D02*
X111709593Y-114411157D01*
X111709593Y-114411157D02*
X111661974Y-114458776D01*
X111661974Y-114458776D02*
X111566736Y-114506395D01*
X111566736Y-114506395D02*
X111185784Y-114506395D01*
X112709593Y-114982586D02*
X112138165Y-114982586D01*
X112423879Y-114982586D02*
X112423879Y-113982586D01*
X112423879Y-113982586D02*
X112328641Y-114125443D01*
X112328641Y-114125443D02*
X112233403Y-114220681D01*
X112233403Y-114220681D02*
X112138165Y-114268300D01*
X113185784Y-114982586D02*
X113376260Y-114982586D01*
X113376260Y-114982586D02*
X113471498Y-114934967D01*
X113471498Y-114934967D02*
X113519117Y-114887347D01*
X113519117Y-114887347D02*
X113614355Y-114744490D01*
X113614355Y-114744490D02*
X113661974Y-114554014D01*
X113661974Y-114554014D02*
X113661974Y-114173062D01*
X113661974Y-114173062D02*
X113614355Y-114077824D01*
X113614355Y-114077824D02*
X113566736Y-114030205D01*
X113566736Y-114030205D02*
X113471498Y-113982586D01*
X113471498Y-113982586D02*
X113281022Y-113982586D01*
X113281022Y-113982586D02*
X113185784Y-114030205D01*
X113185784Y-114030205D02*
X113138165Y-114077824D01*
X113138165Y-114077824D02*
X113090546Y-114173062D01*
X113090546Y-114173062D02*
X113090546Y-114411157D01*
X113090546Y-114411157D02*
X113138165Y-114506395D01*
X113138165Y-114506395D02*
X113185784Y-114554014D01*
X113185784Y-114554014D02*
X113281022Y-114601633D01*
X113281022Y-114601633D02*
X113471498Y-114601633D01*
X113471498Y-114601633D02*
X113566736Y-114554014D01*
X113566736Y-114554014D02*
X113614355Y-114506395D01*
X113614355Y-114506395D02*
X113661974Y-114411157D01*
X118757212Y-153802586D02*
X118423879Y-153326395D01*
X118185784Y-153802586D02*
X118185784Y-152802586D01*
X118185784Y-152802586D02*
X118566736Y-152802586D01*
X118566736Y-152802586D02*
X118661974Y-152850205D01*
X118661974Y-152850205D02*
X118709593Y-152897824D01*
X118709593Y-152897824D02*
X118757212Y-152993062D01*
X118757212Y-152993062D02*
X118757212Y-153135919D01*
X118757212Y-153135919D02*
X118709593Y-153231157D01*
X118709593Y-153231157D02*
X118661974Y-153278776D01*
X118661974Y-153278776D02*
X118566736Y-153326395D01*
X118566736Y-153326395D02*
X118185784Y-153326395D01*
X119709593Y-153802586D02*
X119138165Y-153802586D01*
X119423879Y-153802586D02*
X119423879Y-152802586D01*
X119423879Y-152802586D02*
X119328641Y-152945443D01*
X119328641Y-152945443D02*
X119233403Y-153040681D01*
X119233403Y-153040681D02*
X119138165Y-153088300D01*
X120281022Y-153231157D02*
X120185784Y-153183538D01*
X120185784Y-153183538D02*
X120138165Y-153135919D01*
X120138165Y-153135919D02*
X120090546Y-153040681D01*
X120090546Y-153040681D02*
X120090546Y-152993062D01*
X120090546Y-152993062D02*
X120138165Y-152897824D01*
X120138165Y-152897824D02*
X120185784Y-152850205D01*
X120185784Y-152850205D02*
X120281022Y-152802586D01*
X120281022Y-152802586D02*
X120471498Y-152802586D01*
X120471498Y-152802586D02*
X120566736Y-152850205D01*
X120566736Y-152850205D02*
X120614355Y-152897824D01*
X120614355Y-152897824D02*
X120661974Y-152993062D01*
X120661974Y-152993062D02*
X120661974Y-153040681D01*
X120661974Y-153040681D02*
X120614355Y-153135919D01*
X120614355Y-153135919D02*
X120566736Y-153183538D01*
X120566736Y-153183538D02*
X120471498Y-153231157D01*
X120471498Y-153231157D02*
X120281022Y-153231157D01*
X120281022Y-153231157D02*
X120185784Y-153278776D01*
X120185784Y-153278776D02*
X120138165Y-153326395D01*
X120138165Y-153326395D02*
X120090546Y-153421633D01*
X120090546Y-153421633D02*
X120090546Y-153612109D01*
X120090546Y-153612109D02*
X120138165Y-153707347D01*
X120138165Y-153707347D02*
X120185784Y-153754967D01*
X120185784Y-153754967D02*
X120281022Y-153802586D01*
X120281022Y-153802586D02*
X120471498Y-153802586D01*
X120471498Y-153802586D02*
X120566736Y-153754967D01*
X120566736Y-153754967D02*
X120614355Y-153707347D01*
X120614355Y-153707347D02*
X120661974Y-153612109D01*
X120661974Y-153612109D02*
X120661974Y-153421633D01*
X120661974Y-153421633D02*
X120614355Y-153326395D01*
X120614355Y-153326395D02*
X120566736Y-153278776D01*
X120566736Y-153278776D02*
X120471498Y-153231157D01*
X111757212Y-89692586D02*
X111423879Y-89216395D01*
X111185784Y-89692586D02*
X111185784Y-88692586D01*
X111185784Y-88692586D02*
X111566736Y-88692586D01*
X111566736Y-88692586D02*
X111661974Y-88740205D01*
X111661974Y-88740205D02*
X111709593Y-88787824D01*
X111709593Y-88787824D02*
X111757212Y-88883062D01*
X111757212Y-88883062D02*
X111757212Y-89025919D01*
X111757212Y-89025919D02*
X111709593Y-89121157D01*
X111709593Y-89121157D02*
X111661974Y-89168776D01*
X111661974Y-89168776D02*
X111566736Y-89216395D01*
X111566736Y-89216395D02*
X111185784Y-89216395D01*
X112709593Y-89692586D02*
X112138165Y-89692586D01*
X112423879Y-89692586D02*
X112423879Y-88692586D01*
X112423879Y-88692586D02*
X112328641Y-88835443D01*
X112328641Y-88835443D02*
X112233403Y-88930681D01*
X112233403Y-88930681D02*
X112138165Y-88978300D01*
X113042927Y-88692586D02*
X113709593Y-88692586D01*
X113709593Y-88692586D02*
X113281022Y-89692586D01*
X111757212Y-106552586D02*
X111423879Y-106076395D01*
X111185784Y-106552586D02*
X111185784Y-105552586D01*
X111185784Y-105552586D02*
X111566736Y-105552586D01*
X111566736Y-105552586D02*
X111661974Y-105600205D01*
X111661974Y-105600205D02*
X111709593Y-105647824D01*
X111709593Y-105647824D02*
X111757212Y-105743062D01*
X111757212Y-105743062D02*
X111757212Y-105885919D01*
X111757212Y-105885919D02*
X111709593Y-105981157D01*
X111709593Y-105981157D02*
X111661974Y-106028776D01*
X111661974Y-106028776D02*
X111566736Y-106076395D01*
X111566736Y-106076395D02*
X111185784Y-106076395D01*
X112709593Y-106552586D02*
X112138165Y-106552586D01*
X112423879Y-106552586D02*
X112423879Y-105552586D01*
X112423879Y-105552586D02*
X112328641Y-105695443D01*
X112328641Y-105695443D02*
X112233403Y-105790681D01*
X112233403Y-105790681D02*
X112138165Y-105838300D01*
X113566736Y-105552586D02*
X113376260Y-105552586D01*
X113376260Y-105552586D02*
X113281022Y-105600205D01*
X113281022Y-105600205D02*
X113233403Y-105647824D01*
X113233403Y-105647824D02*
X113138165Y-105790681D01*
X113138165Y-105790681D02*
X113090546Y-105981157D01*
X113090546Y-105981157D02*
X113090546Y-106362109D01*
X113090546Y-106362109D02*
X113138165Y-106457347D01*
X113138165Y-106457347D02*
X113185784Y-106504967D01*
X113185784Y-106504967D02*
X113281022Y-106552586D01*
X113281022Y-106552586D02*
X113471498Y-106552586D01*
X113471498Y-106552586D02*
X113566736Y-106504967D01*
X113566736Y-106504967D02*
X113614355Y-106457347D01*
X113614355Y-106457347D02*
X113661974Y-106362109D01*
X113661974Y-106362109D02*
X113661974Y-106124014D01*
X113661974Y-106124014D02*
X113614355Y-106028776D01*
X113614355Y-106028776D02*
X113566736Y-105981157D01*
X113566736Y-105981157D02*
X113471498Y-105933538D01*
X113471498Y-105933538D02*
X113281022Y-105933538D01*
X113281022Y-105933538D02*
X113185784Y-105981157D01*
X113185784Y-105981157D02*
X113138165Y-106028776D01*
X113138165Y-106028776D02*
X113090546Y-106124014D01*
X118757212Y-162232586D02*
X118423879Y-161756395D01*
X118185784Y-162232586D02*
X118185784Y-161232586D01*
X118185784Y-161232586D02*
X118566736Y-161232586D01*
X118566736Y-161232586D02*
X118661974Y-161280205D01*
X118661974Y-161280205D02*
X118709593Y-161327824D01*
X118709593Y-161327824D02*
X118757212Y-161423062D01*
X118757212Y-161423062D02*
X118757212Y-161565919D01*
X118757212Y-161565919D02*
X118709593Y-161661157D01*
X118709593Y-161661157D02*
X118661974Y-161708776D01*
X118661974Y-161708776D02*
X118566736Y-161756395D01*
X118566736Y-161756395D02*
X118185784Y-161756395D01*
X119709593Y-162232586D02*
X119138165Y-162232586D01*
X119423879Y-162232586D02*
X119423879Y-161232586D01*
X119423879Y-161232586D02*
X119328641Y-161375443D01*
X119328641Y-161375443D02*
X119233403Y-161470681D01*
X119233403Y-161470681D02*
X119138165Y-161518300D01*
X120614355Y-161232586D02*
X120138165Y-161232586D01*
X120138165Y-161232586D02*
X120090546Y-161708776D01*
X120090546Y-161708776D02*
X120138165Y-161661157D01*
X120138165Y-161661157D02*
X120233403Y-161613538D01*
X120233403Y-161613538D02*
X120471498Y-161613538D01*
X120471498Y-161613538D02*
X120566736Y-161661157D01*
X120566736Y-161661157D02*
X120614355Y-161708776D01*
X120614355Y-161708776D02*
X120661974Y-161804014D01*
X120661974Y-161804014D02*
X120661974Y-162042109D01*
X120661974Y-162042109D02*
X120614355Y-162137347D01*
X120614355Y-162137347D02*
X120566736Y-162184967D01*
X120566736Y-162184967D02*
X120471498Y-162232586D01*
X120471498Y-162232586D02*
X120233403Y-162232586D01*
X120233403Y-162232586D02*
X120138165Y-162184967D01*
X120138165Y-162184967D02*
X120090546Y-162137347D01*
X111757212Y-81262586D02*
X111423879Y-80786395D01*
X111185784Y-81262586D02*
X111185784Y-80262586D01*
X111185784Y-80262586D02*
X111566736Y-80262586D01*
X111566736Y-80262586D02*
X111661974Y-80310205D01*
X111661974Y-80310205D02*
X111709593Y-80357824D01*
X111709593Y-80357824D02*
X111757212Y-80453062D01*
X111757212Y-80453062D02*
X111757212Y-80595919D01*
X111757212Y-80595919D02*
X111709593Y-80691157D01*
X111709593Y-80691157D02*
X111661974Y-80738776D01*
X111661974Y-80738776D02*
X111566736Y-80786395D01*
X111566736Y-80786395D02*
X111185784Y-80786395D01*
X112709593Y-81262586D02*
X112138165Y-81262586D01*
X112423879Y-81262586D02*
X112423879Y-80262586D01*
X112423879Y-80262586D02*
X112328641Y-80405443D01*
X112328641Y-80405443D02*
X112233403Y-80500681D01*
X112233403Y-80500681D02*
X112138165Y-80548300D01*
X113566736Y-80595919D02*
X113566736Y-81262586D01*
X113328641Y-80214967D02*
X113090546Y-80929252D01*
X113090546Y-80929252D02*
X113709593Y-80929252D01*
X111757212Y-98122586D02*
X111423879Y-97646395D01*
X111185784Y-98122586D02*
X111185784Y-97122586D01*
X111185784Y-97122586D02*
X111566736Y-97122586D01*
X111566736Y-97122586D02*
X111661974Y-97170205D01*
X111661974Y-97170205D02*
X111709593Y-97217824D01*
X111709593Y-97217824D02*
X111757212Y-97313062D01*
X111757212Y-97313062D02*
X111757212Y-97455919D01*
X111757212Y-97455919D02*
X111709593Y-97551157D01*
X111709593Y-97551157D02*
X111661974Y-97598776D01*
X111661974Y-97598776D02*
X111566736Y-97646395D01*
X111566736Y-97646395D02*
X111185784Y-97646395D01*
X112709593Y-98122586D02*
X112138165Y-98122586D01*
X112423879Y-98122586D02*
X112423879Y-97122586D01*
X112423879Y-97122586D02*
X112328641Y-97265443D01*
X112328641Y-97265443D02*
X112233403Y-97360681D01*
X112233403Y-97360681D02*
X112138165Y-97408300D01*
X113042927Y-97122586D02*
X113661974Y-97122586D01*
X113661974Y-97122586D02*
X113328641Y-97503538D01*
X113328641Y-97503538D02*
X113471498Y-97503538D01*
X113471498Y-97503538D02*
X113566736Y-97551157D01*
X113566736Y-97551157D02*
X113614355Y-97598776D01*
X113614355Y-97598776D02*
X113661974Y-97694014D01*
X113661974Y-97694014D02*
X113661974Y-97932109D01*
X113661974Y-97932109D02*
X113614355Y-98027347D01*
X113614355Y-98027347D02*
X113566736Y-98074967D01*
X113566736Y-98074967D02*
X113471498Y-98122586D01*
X113471498Y-98122586D02*
X113185784Y-98122586D01*
X113185784Y-98122586D02*
X113090546Y-98074967D01*
X113090546Y-98074967D02*
X113042927Y-98027347D01*
X133707212Y-147422586D02*
X133373879Y-146946395D01*
X133135784Y-147422586D02*
X133135784Y-146422586D01*
X133135784Y-146422586D02*
X133516736Y-146422586D01*
X133516736Y-146422586D02*
X133611974Y-146470205D01*
X133611974Y-146470205D02*
X133659593Y-146517824D01*
X133659593Y-146517824D02*
X133707212Y-146613062D01*
X133707212Y-146613062D02*
X133707212Y-146755919D01*
X133707212Y-146755919D02*
X133659593Y-146851157D01*
X133659593Y-146851157D02*
X133611974Y-146898776D01*
X133611974Y-146898776D02*
X133516736Y-146946395D01*
X133516736Y-146946395D02*
X133135784Y-146946395D01*
X134659593Y-147422586D02*
X134088165Y-147422586D01*
X134373879Y-147422586D02*
X134373879Y-146422586D01*
X134373879Y-146422586D02*
X134278641Y-146565443D01*
X134278641Y-146565443D02*
X134183403Y-146660681D01*
X134183403Y-146660681D02*
X134088165Y-146708300D01*
X135040546Y-146517824D02*
X135088165Y-146470205D01*
X135088165Y-146470205D02*
X135183403Y-146422586D01*
X135183403Y-146422586D02*
X135421498Y-146422586D01*
X135421498Y-146422586D02*
X135516736Y-146470205D01*
X135516736Y-146470205D02*
X135564355Y-146517824D01*
X135564355Y-146517824D02*
X135611974Y-146613062D01*
X135611974Y-146613062D02*
X135611974Y-146708300D01*
X135611974Y-146708300D02*
X135564355Y-146851157D01*
X135564355Y-146851157D02*
X134992927Y-147422586D01*
X134992927Y-147422586D02*
X135611974Y-147422586D01*
X133707212Y-149172586D02*
X133373879Y-148696395D01*
X133135784Y-149172586D02*
X133135784Y-148172586D01*
X133135784Y-148172586D02*
X133516736Y-148172586D01*
X133516736Y-148172586D02*
X133611974Y-148220205D01*
X133611974Y-148220205D02*
X133659593Y-148267824D01*
X133659593Y-148267824D02*
X133707212Y-148363062D01*
X133707212Y-148363062D02*
X133707212Y-148505919D01*
X133707212Y-148505919D02*
X133659593Y-148601157D01*
X133659593Y-148601157D02*
X133611974Y-148648776D01*
X133611974Y-148648776D02*
X133516736Y-148696395D01*
X133516736Y-148696395D02*
X133135784Y-148696395D01*
X134659593Y-149172586D02*
X134088165Y-149172586D01*
X134373879Y-149172586D02*
X134373879Y-148172586D01*
X134373879Y-148172586D02*
X134278641Y-148315443D01*
X134278641Y-148315443D02*
X134183403Y-148410681D01*
X134183403Y-148410681D02*
X134088165Y-148458300D01*
X135611974Y-149172586D02*
X135040546Y-149172586D01*
X135326260Y-149172586D02*
X135326260Y-148172586D01*
X135326260Y-148172586D02*
X135231022Y-148315443D01*
X135231022Y-148315443D02*
X135135784Y-148410681D01*
X135135784Y-148410681D02*
X135040546Y-148458300D01*
X133707212Y-150922586D02*
X133373879Y-150446395D01*
X133135784Y-150922586D02*
X133135784Y-149922586D01*
X133135784Y-149922586D02*
X133516736Y-149922586D01*
X133516736Y-149922586D02*
X133611974Y-149970205D01*
X133611974Y-149970205D02*
X133659593Y-150017824D01*
X133659593Y-150017824D02*
X133707212Y-150113062D01*
X133707212Y-150113062D02*
X133707212Y-150255919D01*
X133707212Y-150255919D02*
X133659593Y-150351157D01*
X133659593Y-150351157D02*
X133611974Y-150398776D01*
X133611974Y-150398776D02*
X133516736Y-150446395D01*
X133516736Y-150446395D02*
X133135784Y-150446395D01*
X134659593Y-150922586D02*
X134088165Y-150922586D01*
X134373879Y-150922586D02*
X134373879Y-149922586D01*
X134373879Y-149922586D02*
X134278641Y-150065443D01*
X134278641Y-150065443D02*
X134183403Y-150160681D01*
X134183403Y-150160681D02*
X134088165Y-150208300D01*
X135278641Y-149922586D02*
X135373879Y-149922586D01*
X135373879Y-149922586D02*
X135469117Y-149970205D01*
X135469117Y-149970205D02*
X135516736Y-150017824D01*
X135516736Y-150017824D02*
X135564355Y-150113062D01*
X135564355Y-150113062D02*
X135611974Y-150303538D01*
X135611974Y-150303538D02*
X135611974Y-150541633D01*
X135611974Y-150541633D02*
X135564355Y-150732109D01*
X135564355Y-150732109D02*
X135516736Y-150827347D01*
X135516736Y-150827347D02*
X135469117Y-150874967D01*
X135469117Y-150874967D02*
X135373879Y-150922586D01*
X135373879Y-150922586D02*
X135278641Y-150922586D01*
X135278641Y-150922586D02*
X135183403Y-150874967D01*
X135183403Y-150874967D02*
X135135784Y-150827347D01*
X135135784Y-150827347D02*
X135088165Y-150732109D01*
X135088165Y-150732109D02*
X135040546Y-150541633D01*
X135040546Y-150541633D02*
X135040546Y-150303538D01*
X135040546Y-150303538D02*
X135088165Y-150113062D01*
X135088165Y-150113062D02*
X135135784Y-150017824D01*
X135135784Y-150017824D02*
X135183403Y-149970205D01*
X135183403Y-149970205D02*
X135278641Y-149922586D01*
X134183403Y-152672586D02*
X133850070Y-152196395D01*
X133611975Y-152672586D02*
X133611975Y-151672586D01*
X133611975Y-151672586D02*
X133992927Y-151672586D01*
X133992927Y-151672586D02*
X134088165Y-151720205D01*
X134088165Y-151720205D02*
X134135784Y-151767824D01*
X134135784Y-151767824D02*
X134183403Y-151863062D01*
X134183403Y-151863062D02*
X134183403Y-152005919D01*
X134183403Y-152005919D02*
X134135784Y-152101157D01*
X134135784Y-152101157D02*
X134088165Y-152148776D01*
X134088165Y-152148776D02*
X133992927Y-152196395D01*
X133992927Y-152196395D02*
X133611975Y-152196395D01*
X134659594Y-152672586D02*
X134850070Y-152672586D01*
X134850070Y-152672586D02*
X134945308Y-152624967D01*
X134945308Y-152624967D02*
X134992927Y-152577347D01*
X134992927Y-152577347D02*
X135088165Y-152434490D01*
X135088165Y-152434490D02*
X135135784Y-152244014D01*
X135135784Y-152244014D02*
X135135784Y-151863062D01*
X135135784Y-151863062D02*
X135088165Y-151767824D01*
X135088165Y-151767824D02*
X135040546Y-151720205D01*
X135040546Y-151720205D02*
X134945308Y-151672586D01*
X134945308Y-151672586D02*
X134754832Y-151672586D01*
X134754832Y-151672586D02*
X134659594Y-151720205D01*
X134659594Y-151720205D02*
X134611975Y-151767824D01*
X134611975Y-151767824D02*
X134564356Y-151863062D01*
X134564356Y-151863062D02*
X134564356Y-152101157D01*
X134564356Y-152101157D02*
X134611975Y-152196395D01*
X134611975Y-152196395D02*
X134659594Y-152244014D01*
X134659594Y-152244014D02*
X134754832Y-152291633D01*
X134754832Y-152291633D02*
X134945308Y-152291633D01*
X134945308Y-152291633D02*
X135040546Y-152244014D01*
X135040546Y-152244014D02*
X135088165Y-152196395D01*
X135088165Y-152196395D02*
X135135784Y-152101157D01*
X112233403Y-116732586D02*
X111900070Y-116256395D01*
X111661975Y-116732586D02*
X111661975Y-115732586D01*
X111661975Y-115732586D02*
X112042927Y-115732586D01*
X112042927Y-115732586D02*
X112138165Y-115780205D01*
X112138165Y-115780205D02*
X112185784Y-115827824D01*
X112185784Y-115827824D02*
X112233403Y-115923062D01*
X112233403Y-115923062D02*
X112233403Y-116065919D01*
X112233403Y-116065919D02*
X112185784Y-116161157D01*
X112185784Y-116161157D02*
X112138165Y-116208776D01*
X112138165Y-116208776D02*
X112042927Y-116256395D01*
X112042927Y-116256395D02*
X111661975Y-116256395D01*
X112566737Y-115732586D02*
X113233403Y-115732586D01*
X113233403Y-115732586D02*
X112804832Y-116732586D01*
X119233403Y-155552586D02*
X118900070Y-155076395D01*
X118661975Y-155552586D02*
X118661975Y-154552586D01*
X118661975Y-154552586D02*
X119042927Y-154552586D01*
X119042927Y-154552586D02*
X119138165Y-154600205D01*
X119138165Y-154600205D02*
X119185784Y-154647824D01*
X119185784Y-154647824D02*
X119233403Y-154743062D01*
X119233403Y-154743062D02*
X119233403Y-154885919D01*
X119233403Y-154885919D02*
X119185784Y-154981157D01*
X119185784Y-154981157D02*
X119138165Y-155028776D01*
X119138165Y-155028776D02*
X119042927Y-155076395D01*
X119042927Y-155076395D02*
X118661975Y-155076395D01*
X120090546Y-154552586D02*
X119900070Y-154552586D01*
X119900070Y-154552586D02*
X119804832Y-154600205D01*
X119804832Y-154600205D02*
X119757213Y-154647824D01*
X119757213Y-154647824D02*
X119661975Y-154790681D01*
X119661975Y-154790681D02*
X119614356Y-154981157D01*
X119614356Y-154981157D02*
X119614356Y-155362109D01*
X119614356Y-155362109D02*
X119661975Y-155457347D01*
X119661975Y-155457347D02*
X119709594Y-155504967D01*
X119709594Y-155504967D02*
X119804832Y-155552586D01*
X119804832Y-155552586D02*
X119995308Y-155552586D01*
X119995308Y-155552586D02*
X120090546Y-155504967D01*
X120090546Y-155504967D02*
X120138165Y-155457347D01*
X120138165Y-155457347D02*
X120185784Y-155362109D01*
X120185784Y-155362109D02*
X120185784Y-155124014D01*
X120185784Y-155124014D02*
X120138165Y-155028776D01*
X120138165Y-155028776D02*
X120090546Y-154981157D01*
X120090546Y-154981157D02*
X119995308Y-154933538D01*
X119995308Y-154933538D02*
X119804832Y-154933538D01*
X119804832Y-154933538D02*
X119709594Y-154981157D01*
X119709594Y-154981157D02*
X119661975Y-155028776D01*
X119661975Y-155028776D02*
X119614356Y-155124014D01*
X112233403Y-91442586D02*
X111900070Y-90966395D01*
X111661975Y-91442586D02*
X111661975Y-90442586D01*
X111661975Y-90442586D02*
X112042927Y-90442586D01*
X112042927Y-90442586D02*
X112138165Y-90490205D01*
X112138165Y-90490205D02*
X112185784Y-90537824D01*
X112185784Y-90537824D02*
X112233403Y-90633062D01*
X112233403Y-90633062D02*
X112233403Y-90775919D01*
X112233403Y-90775919D02*
X112185784Y-90871157D01*
X112185784Y-90871157D02*
X112138165Y-90918776D01*
X112138165Y-90918776D02*
X112042927Y-90966395D01*
X112042927Y-90966395D02*
X111661975Y-90966395D01*
X113138165Y-90442586D02*
X112661975Y-90442586D01*
X112661975Y-90442586D02*
X112614356Y-90918776D01*
X112614356Y-90918776D02*
X112661975Y-90871157D01*
X112661975Y-90871157D02*
X112757213Y-90823538D01*
X112757213Y-90823538D02*
X112995308Y-90823538D01*
X112995308Y-90823538D02*
X113090546Y-90871157D01*
X113090546Y-90871157D02*
X113138165Y-90918776D01*
X113138165Y-90918776D02*
X113185784Y-91014014D01*
X113185784Y-91014014D02*
X113185784Y-91252109D01*
X113185784Y-91252109D02*
X113138165Y-91347347D01*
X113138165Y-91347347D02*
X113090546Y-91394967D01*
X113090546Y-91394967D02*
X112995308Y-91442586D01*
X112995308Y-91442586D02*
X112757213Y-91442586D01*
X112757213Y-91442586D02*
X112661975Y-91394967D01*
X112661975Y-91394967D02*
X112614356Y-91347347D01*
X112233403Y-108302586D02*
X111900070Y-107826395D01*
X111661975Y-108302586D02*
X111661975Y-107302586D01*
X111661975Y-107302586D02*
X112042927Y-107302586D01*
X112042927Y-107302586D02*
X112138165Y-107350205D01*
X112138165Y-107350205D02*
X112185784Y-107397824D01*
X112185784Y-107397824D02*
X112233403Y-107493062D01*
X112233403Y-107493062D02*
X112233403Y-107635919D01*
X112233403Y-107635919D02*
X112185784Y-107731157D01*
X112185784Y-107731157D02*
X112138165Y-107778776D01*
X112138165Y-107778776D02*
X112042927Y-107826395D01*
X112042927Y-107826395D02*
X111661975Y-107826395D01*
X113090546Y-107635919D02*
X113090546Y-108302586D01*
X112852451Y-107254967D02*
X112614356Y-107969252D01*
X112614356Y-107969252D02*
X113233403Y-107969252D01*
X119233403Y-163982586D02*
X118900070Y-163506395D01*
X118661975Y-163982586D02*
X118661975Y-162982586D01*
X118661975Y-162982586D02*
X119042927Y-162982586D01*
X119042927Y-162982586D02*
X119138165Y-163030205D01*
X119138165Y-163030205D02*
X119185784Y-163077824D01*
X119185784Y-163077824D02*
X119233403Y-163173062D01*
X119233403Y-163173062D02*
X119233403Y-163315919D01*
X119233403Y-163315919D02*
X119185784Y-163411157D01*
X119185784Y-163411157D02*
X119138165Y-163458776D01*
X119138165Y-163458776D02*
X119042927Y-163506395D01*
X119042927Y-163506395D02*
X118661975Y-163506395D01*
X119566737Y-162982586D02*
X120185784Y-162982586D01*
X120185784Y-162982586D02*
X119852451Y-163363538D01*
X119852451Y-163363538D02*
X119995308Y-163363538D01*
X119995308Y-163363538D02*
X120090546Y-163411157D01*
X120090546Y-163411157D02*
X120138165Y-163458776D01*
X120138165Y-163458776D02*
X120185784Y-163554014D01*
X120185784Y-163554014D02*
X120185784Y-163792109D01*
X120185784Y-163792109D02*
X120138165Y-163887347D01*
X120138165Y-163887347D02*
X120090546Y-163934967D01*
X120090546Y-163934967D02*
X119995308Y-163982586D01*
X119995308Y-163982586D02*
X119709594Y-163982586D01*
X119709594Y-163982586D02*
X119614356Y-163934967D01*
X119614356Y-163934967D02*
X119566737Y-163887347D01*
X112233403Y-83012586D02*
X111900070Y-82536395D01*
X111661975Y-83012586D02*
X111661975Y-82012586D01*
X111661975Y-82012586D02*
X112042927Y-82012586D01*
X112042927Y-82012586D02*
X112138165Y-82060205D01*
X112138165Y-82060205D02*
X112185784Y-82107824D01*
X112185784Y-82107824D02*
X112233403Y-82203062D01*
X112233403Y-82203062D02*
X112233403Y-82345919D01*
X112233403Y-82345919D02*
X112185784Y-82441157D01*
X112185784Y-82441157D02*
X112138165Y-82488776D01*
X112138165Y-82488776D02*
X112042927Y-82536395D01*
X112042927Y-82536395D02*
X111661975Y-82536395D01*
X112614356Y-82107824D02*
X112661975Y-82060205D01*
X112661975Y-82060205D02*
X112757213Y-82012586D01*
X112757213Y-82012586D02*
X112995308Y-82012586D01*
X112995308Y-82012586D02*
X113090546Y-82060205D01*
X113090546Y-82060205D02*
X113138165Y-82107824D01*
X113138165Y-82107824D02*
X113185784Y-82203062D01*
X113185784Y-82203062D02*
X113185784Y-82298300D01*
X113185784Y-82298300D02*
X113138165Y-82441157D01*
X113138165Y-82441157D02*
X112566737Y-83012586D01*
X112566737Y-83012586D02*
X113185784Y-83012586D01*
X112233403Y-99872586D02*
X111900070Y-99396395D01*
X111661975Y-99872586D02*
X111661975Y-98872586D01*
X111661975Y-98872586D02*
X112042927Y-98872586D01*
X112042927Y-98872586D02*
X112138165Y-98920205D01*
X112138165Y-98920205D02*
X112185784Y-98967824D01*
X112185784Y-98967824D02*
X112233403Y-99063062D01*
X112233403Y-99063062D02*
X112233403Y-99205919D01*
X112233403Y-99205919D02*
X112185784Y-99301157D01*
X112185784Y-99301157D02*
X112138165Y-99348776D01*
X112138165Y-99348776D02*
X112042927Y-99396395D01*
X112042927Y-99396395D02*
X111661975Y-99396395D01*
X113185784Y-99872586D02*
X112614356Y-99872586D01*
X112900070Y-99872586D02*
X112900070Y-98872586D01*
X112900070Y-98872586D02*
X112804832Y-99015443D01*
X112804832Y-99015443D02*
X112709594Y-99110681D01*
X112709594Y-99110681D02*
X112614356Y-99158300D01*
X143316736Y-162902586D02*
X143316736Y-163616871D01*
X143316736Y-163616871D02*
X143269117Y-163759728D01*
X143269117Y-163759728D02*
X143173879Y-163854967D01*
X143173879Y-163854967D02*
X143031022Y-163902586D01*
X143031022Y-163902586D02*
X142935784Y-163902586D01*
X144269117Y-162902586D02*
X143792927Y-162902586D01*
X143792927Y-162902586D02*
X143745308Y-163378776D01*
X143745308Y-163378776D02*
X143792927Y-163331157D01*
X143792927Y-163331157D02*
X143888165Y-163283538D01*
X143888165Y-163283538D02*
X144126260Y-163283538D01*
X144126260Y-163283538D02*
X144221498Y-163331157D01*
X144221498Y-163331157D02*
X144269117Y-163378776D01*
X144269117Y-163378776D02*
X144316736Y-163474014D01*
X144316736Y-163474014D02*
X144316736Y-163712109D01*
X144316736Y-163712109D02*
X144269117Y-163807347D01*
X144269117Y-163807347D02*
X144221498Y-163854967D01*
X144221498Y-163854967D02*
X144126260Y-163902586D01*
X144126260Y-163902586D02*
X143888165Y-163902586D01*
X143888165Y-163902586D02*
X143792927Y-163854967D01*
X143792927Y-163854967D02*
X143745308Y-163807347D01*
X143766736Y-151592586D02*
X143766736Y-152306871D01*
X143766736Y-152306871D02*
X143719117Y-152449728D01*
X143719117Y-152449728D02*
X143623879Y-152544967D01*
X143623879Y-152544967D02*
X143481022Y-152592586D01*
X143481022Y-152592586D02*
X143385784Y-152592586D01*
X144671498Y-151925919D02*
X144671498Y-152592586D01*
X144433403Y-151544967D02*
X144195308Y-152259252D01*
X144195308Y-152259252D02*
X144814355Y-152259252D01*
X158316736Y-128962586D02*
X158316736Y-129676871D01*
X158316736Y-129676871D02*
X158269117Y-129819728D01*
X158269117Y-129819728D02*
X158173879Y-129914967D01*
X158173879Y-129914967D02*
X158031022Y-129962586D01*
X158031022Y-129962586D02*
X157935784Y-129962586D01*
X158697689Y-128962586D02*
X159316736Y-128962586D01*
X159316736Y-128962586D02*
X158983403Y-129343538D01*
X158983403Y-129343538D02*
X159126260Y-129343538D01*
X159126260Y-129343538D02*
X159221498Y-129391157D01*
X159221498Y-129391157D02*
X159269117Y-129438776D01*
X159269117Y-129438776D02*
X159316736Y-129534014D01*
X159316736Y-129534014D02*
X159316736Y-129772109D01*
X159316736Y-129772109D02*
X159269117Y-129867347D01*
X159269117Y-129867347D02*
X159221498Y-129914967D01*
X159221498Y-129914967D02*
X159126260Y-129962586D01*
X159126260Y-129962586D02*
X158840546Y-129962586D01*
X158840546Y-129962586D02*
X158745308Y-129914967D01*
X158745308Y-129914967D02*
X158697689Y-129867347D01*
X158316736Y-140277586D02*
X158316736Y-140991871D01*
X158316736Y-140991871D02*
X158269117Y-141134728D01*
X158269117Y-141134728D02*
X158173879Y-141229967D01*
X158173879Y-141229967D02*
X158031022Y-141277586D01*
X158031022Y-141277586D02*
X157935784Y-141277586D01*
X158745308Y-140372824D02*
X158792927Y-140325205D01*
X158792927Y-140325205D02*
X158888165Y-140277586D01*
X158888165Y-140277586D02*
X159126260Y-140277586D01*
X159126260Y-140277586D02*
X159221498Y-140325205D01*
X159221498Y-140325205D02*
X159269117Y-140372824D01*
X159269117Y-140372824D02*
X159316736Y-140468062D01*
X159316736Y-140468062D02*
X159316736Y-140563300D01*
X159316736Y-140563300D02*
X159269117Y-140706157D01*
X159269117Y-140706157D02*
X158697689Y-141277586D01*
X158697689Y-141277586D02*
X159316736Y-141277586D01*
X158316736Y-151592586D02*
X158316736Y-152306871D01*
X158316736Y-152306871D02*
X158269117Y-152449728D01*
X158269117Y-152449728D02*
X158173879Y-152544967D01*
X158173879Y-152544967D02*
X158031022Y-152592586D01*
X158031022Y-152592586D02*
X157935784Y-152592586D01*
X159316736Y-152592586D02*
X158745308Y-152592586D01*
X159031022Y-152592586D02*
X159031022Y-151592586D01*
X159031022Y-151592586D02*
X158935784Y-151735443D01*
X158935784Y-151735443D02*
X158840546Y-151830681D01*
X158840546Y-151830681D02*
X158745308Y-151878300D01*
X108311975Y-116807586D02*
X108311975Y-115807586D01*
X108311975Y-115807586D02*
X108550070Y-115807586D01*
X108550070Y-115807586D02*
X108692927Y-115855205D01*
X108692927Y-115855205D02*
X108788165Y-115950443D01*
X108788165Y-115950443D02*
X108835784Y-116045681D01*
X108835784Y-116045681D02*
X108883403Y-116236157D01*
X108883403Y-116236157D02*
X108883403Y-116379014D01*
X108883403Y-116379014D02*
X108835784Y-116569490D01*
X108835784Y-116569490D02*
X108788165Y-116664728D01*
X108788165Y-116664728D02*
X108692927Y-116759967D01*
X108692927Y-116759967D02*
X108550070Y-116807586D01*
X108550070Y-116807586D02*
X108311975Y-116807586D01*
X109216737Y-115807586D02*
X109883403Y-115807586D01*
X109883403Y-115807586D02*
X109454832Y-116807586D01*
X115311975Y-155627586D02*
X115311975Y-154627586D01*
X115311975Y-154627586D02*
X115550070Y-154627586D01*
X115550070Y-154627586D02*
X115692927Y-154675205D01*
X115692927Y-154675205D02*
X115788165Y-154770443D01*
X115788165Y-154770443D02*
X115835784Y-154865681D01*
X115835784Y-154865681D02*
X115883403Y-155056157D01*
X115883403Y-155056157D02*
X115883403Y-155199014D01*
X115883403Y-155199014D02*
X115835784Y-155389490D01*
X115835784Y-155389490D02*
X115788165Y-155484728D01*
X115788165Y-155484728D02*
X115692927Y-155579967D01*
X115692927Y-155579967D02*
X115550070Y-155627586D01*
X115550070Y-155627586D02*
X115311975Y-155627586D01*
X116740546Y-154627586D02*
X116550070Y-154627586D01*
X116550070Y-154627586D02*
X116454832Y-154675205D01*
X116454832Y-154675205D02*
X116407213Y-154722824D01*
X116407213Y-154722824D02*
X116311975Y-154865681D01*
X116311975Y-154865681D02*
X116264356Y-155056157D01*
X116264356Y-155056157D02*
X116264356Y-155437109D01*
X116264356Y-155437109D02*
X116311975Y-155532347D01*
X116311975Y-155532347D02*
X116359594Y-155579967D01*
X116359594Y-155579967D02*
X116454832Y-155627586D01*
X116454832Y-155627586D02*
X116645308Y-155627586D01*
X116645308Y-155627586D02*
X116740546Y-155579967D01*
X116740546Y-155579967D02*
X116788165Y-155532347D01*
X116788165Y-155532347D02*
X116835784Y-155437109D01*
X116835784Y-155437109D02*
X116835784Y-155199014D01*
X116835784Y-155199014D02*
X116788165Y-155103776D01*
X116788165Y-155103776D02*
X116740546Y-155056157D01*
X116740546Y-155056157D02*
X116645308Y-155008538D01*
X116645308Y-155008538D02*
X116454832Y-155008538D01*
X116454832Y-155008538D02*
X116359594Y-155056157D01*
X116359594Y-155056157D02*
X116311975Y-155103776D01*
X116311975Y-155103776D02*
X116264356Y-155199014D01*
X108311975Y-91517586D02*
X108311975Y-90517586D01*
X108311975Y-90517586D02*
X108550070Y-90517586D01*
X108550070Y-90517586D02*
X108692927Y-90565205D01*
X108692927Y-90565205D02*
X108788165Y-90660443D01*
X108788165Y-90660443D02*
X108835784Y-90755681D01*
X108835784Y-90755681D02*
X108883403Y-90946157D01*
X108883403Y-90946157D02*
X108883403Y-91089014D01*
X108883403Y-91089014D02*
X108835784Y-91279490D01*
X108835784Y-91279490D02*
X108788165Y-91374728D01*
X108788165Y-91374728D02*
X108692927Y-91469967D01*
X108692927Y-91469967D02*
X108550070Y-91517586D01*
X108550070Y-91517586D02*
X108311975Y-91517586D01*
X109788165Y-90517586D02*
X109311975Y-90517586D01*
X109311975Y-90517586D02*
X109264356Y-90993776D01*
X109264356Y-90993776D02*
X109311975Y-90946157D01*
X109311975Y-90946157D02*
X109407213Y-90898538D01*
X109407213Y-90898538D02*
X109645308Y-90898538D01*
X109645308Y-90898538D02*
X109740546Y-90946157D01*
X109740546Y-90946157D02*
X109788165Y-90993776D01*
X109788165Y-90993776D02*
X109835784Y-91089014D01*
X109835784Y-91089014D02*
X109835784Y-91327109D01*
X109835784Y-91327109D02*
X109788165Y-91422347D01*
X109788165Y-91422347D02*
X109740546Y-91469967D01*
X109740546Y-91469967D02*
X109645308Y-91517586D01*
X109645308Y-91517586D02*
X109407213Y-91517586D01*
X109407213Y-91517586D02*
X109311975Y-91469967D01*
X109311975Y-91469967D02*
X109264356Y-91422347D01*
X108311975Y-108377586D02*
X108311975Y-107377586D01*
X108311975Y-107377586D02*
X108550070Y-107377586D01*
X108550070Y-107377586D02*
X108692927Y-107425205D01*
X108692927Y-107425205D02*
X108788165Y-107520443D01*
X108788165Y-107520443D02*
X108835784Y-107615681D01*
X108835784Y-107615681D02*
X108883403Y-107806157D01*
X108883403Y-107806157D02*
X108883403Y-107949014D01*
X108883403Y-107949014D02*
X108835784Y-108139490D01*
X108835784Y-108139490D02*
X108788165Y-108234728D01*
X108788165Y-108234728D02*
X108692927Y-108329967D01*
X108692927Y-108329967D02*
X108550070Y-108377586D01*
X108550070Y-108377586D02*
X108311975Y-108377586D01*
X109740546Y-107710919D02*
X109740546Y-108377586D01*
X109502451Y-107329967D02*
X109264356Y-108044252D01*
X109264356Y-108044252D02*
X109883403Y-108044252D01*
X115311975Y-164057586D02*
X115311975Y-163057586D01*
X115311975Y-163057586D02*
X115550070Y-163057586D01*
X115550070Y-163057586D02*
X115692927Y-163105205D01*
X115692927Y-163105205D02*
X115788165Y-163200443D01*
X115788165Y-163200443D02*
X115835784Y-163295681D01*
X115835784Y-163295681D02*
X115883403Y-163486157D01*
X115883403Y-163486157D02*
X115883403Y-163629014D01*
X115883403Y-163629014D02*
X115835784Y-163819490D01*
X115835784Y-163819490D02*
X115788165Y-163914728D01*
X115788165Y-163914728D02*
X115692927Y-164009967D01*
X115692927Y-164009967D02*
X115550070Y-164057586D01*
X115550070Y-164057586D02*
X115311975Y-164057586D01*
X116216737Y-163057586D02*
X116835784Y-163057586D01*
X116835784Y-163057586D02*
X116502451Y-163438538D01*
X116502451Y-163438538D02*
X116645308Y-163438538D01*
X116645308Y-163438538D02*
X116740546Y-163486157D01*
X116740546Y-163486157D02*
X116788165Y-163533776D01*
X116788165Y-163533776D02*
X116835784Y-163629014D01*
X116835784Y-163629014D02*
X116835784Y-163867109D01*
X116835784Y-163867109D02*
X116788165Y-163962347D01*
X116788165Y-163962347D02*
X116740546Y-164009967D01*
X116740546Y-164009967D02*
X116645308Y-164057586D01*
X116645308Y-164057586D02*
X116359594Y-164057586D01*
X116359594Y-164057586D02*
X116264356Y-164009967D01*
X116264356Y-164009967D02*
X116216737Y-163962347D01*
X108311975Y-83087586D02*
X108311975Y-82087586D01*
X108311975Y-82087586D02*
X108550070Y-82087586D01*
X108550070Y-82087586D02*
X108692927Y-82135205D01*
X108692927Y-82135205D02*
X108788165Y-82230443D01*
X108788165Y-82230443D02*
X108835784Y-82325681D01*
X108835784Y-82325681D02*
X108883403Y-82516157D01*
X108883403Y-82516157D02*
X108883403Y-82659014D01*
X108883403Y-82659014D02*
X108835784Y-82849490D01*
X108835784Y-82849490D02*
X108788165Y-82944728D01*
X108788165Y-82944728D02*
X108692927Y-83039967D01*
X108692927Y-83039967D02*
X108550070Y-83087586D01*
X108550070Y-83087586D02*
X108311975Y-83087586D01*
X109264356Y-82182824D02*
X109311975Y-82135205D01*
X109311975Y-82135205D02*
X109407213Y-82087586D01*
X109407213Y-82087586D02*
X109645308Y-82087586D01*
X109645308Y-82087586D02*
X109740546Y-82135205D01*
X109740546Y-82135205D02*
X109788165Y-82182824D01*
X109788165Y-82182824D02*
X109835784Y-82278062D01*
X109835784Y-82278062D02*
X109835784Y-82373300D01*
X109835784Y-82373300D02*
X109788165Y-82516157D01*
X109788165Y-82516157D02*
X109216737Y-83087586D01*
X109216737Y-83087586D02*
X109835784Y-83087586D01*
X108311975Y-99947586D02*
X108311975Y-98947586D01*
X108311975Y-98947586D02*
X108550070Y-98947586D01*
X108550070Y-98947586D02*
X108692927Y-98995205D01*
X108692927Y-98995205D02*
X108788165Y-99090443D01*
X108788165Y-99090443D02*
X108835784Y-99185681D01*
X108835784Y-99185681D02*
X108883403Y-99376157D01*
X108883403Y-99376157D02*
X108883403Y-99519014D01*
X108883403Y-99519014D02*
X108835784Y-99709490D01*
X108835784Y-99709490D02*
X108788165Y-99804728D01*
X108788165Y-99804728D02*
X108692927Y-99899967D01*
X108692927Y-99899967D02*
X108550070Y-99947586D01*
X108550070Y-99947586D02*
X108311975Y-99947586D01*
X109835784Y-99947586D02*
X109264356Y-99947586D01*
X109550070Y-99947586D02*
X109550070Y-98947586D01*
X109550070Y-98947586D02*
X109454832Y-99090443D01*
X109454832Y-99090443D02*
X109359594Y-99185681D01*
X109359594Y-99185681D02*
X109264356Y-99233300D01*
X109003403Y-112717347D02*
X108955784Y-112764967D01*
X108955784Y-112764967D02*
X108812927Y-112812586D01*
X108812927Y-112812586D02*
X108717689Y-112812586D01*
X108717689Y-112812586D02*
X108574832Y-112764967D01*
X108574832Y-112764967D02*
X108479594Y-112669728D01*
X108479594Y-112669728D02*
X108431975Y-112574490D01*
X108431975Y-112574490D02*
X108384356Y-112384014D01*
X108384356Y-112384014D02*
X108384356Y-112241157D01*
X108384356Y-112241157D02*
X108431975Y-112050681D01*
X108431975Y-112050681D02*
X108479594Y-111955443D01*
X108479594Y-111955443D02*
X108574832Y-111860205D01*
X108574832Y-111860205D02*
X108717689Y-111812586D01*
X108717689Y-111812586D02*
X108812927Y-111812586D01*
X108812927Y-111812586D02*
X108955784Y-111860205D01*
X108955784Y-111860205D02*
X109003403Y-111907824D01*
X109336737Y-111812586D02*
X110003403Y-111812586D01*
X110003403Y-111812586D02*
X109574832Y-112812586D01*
X116003403Y-151537347D02*
X115955784Y-151584967D01*
X115955784Y-151584967D02*
X115812927Y-151632586D01*
X115812927Y-151632586D02*
X115717689Y-151632586D01*
X115717689Y-151632586D02*
X115574832Y-151584967D01*
X115574832Y-151584967D02*
X115479594Y-151489728D01*
X115479594Y-151489728D02*
X115431975Y-151394490D01*
X115431975Y-151394490D02*
X115384356Y-151204014D01*
X115384356Y-151204014D02*
X115384356Y-151061157D01*
X115384356Y-151061157D02*
X115431975Y-150870681D01*
X115431975Y-150870681D02*
X115479594Y-150775443D01*
X115479594Y-150775443D02*
X115574832Y-150680205D01*
X115574832Y-150680205D02*
X115717689Y-150632586D01*
X115717689Y-150632586D02*
X115812927Y-150632586D01*
X115812927Y-150632586D02*
X115955784Y-150680205D01*
X115955784Y-150680205D02*
X116003403Y-150727824D01*
X116860546Y-150632586D02*
X116670070Y-150632586D01*
X116670070Y-150632586D02*
X116574832Y-150680205D01*
X116574832Y-150680205D02*
X116527213Y-150727824D01*
X116527213Y-150727824D02*
X116431975Y-150870681D01*
X116431975Y-150870681D02*
X116384356Y-151061157D01*
X116384356Y-151061157D02*
X116384356Y-151442109D01*
X116384356Y-151442109D02*
X116431975Y-151537347D01*
X116431975Y-151537347D02*
X116479594Y-151584967D01*
X116479594Y-151584967D02*
X116574832Y-151632586D01*
X116574832Y-151632586D02*
X116765308Y-151632586D01*
X116765308Y-151632586D02*
X116860546Y-151584967D01*
X116860546Y-151584967D02*
X116908165Y-151537347D01*
X116908165Y-151537347D02*
X116955784Y-151442109D01*
X116955784Y-151442109D02*
X116955784Y-151204014D01*
X116955784Y-151204014D02*
X116908165Y-151108776D01*
X116908165Y-151108776D02*
X116860546Y-151061157D01*
X116860546Y-151061157D02*
X116765308Y-151013538D01*
X116765308Y-151013538D02*
X116574832Y-151013538D01*
X116574832Y-151013538D02*
X116479594Y-151061157D01*
X116479594Y-151061157D02*
X116431975Y-151108776D01*
X116431975Y-151108776D02*
X116384356Y-151204014D01*
X109003403Y-87427347D02*
X108955784Y-87474967D01*
X108955784Y-87474967D02*
X108812927Y-87522586D01*
X108812927Y-87522586D02*
X108717689Y-87522586D01*
X108717689Y-87522586D02*
X108574832Y-87474967D01*
X108574832Y-87474967D02*
X108479594Y-87379728D01*
X108479594Y-87379728D02*
X108431975Y-87284490D01*
X108431975Y-87284490D02*
X108384356Y-87094014D01*
X108384356Y-87094014D02*
X108384356Y-86951157D01*
X108384356Y-86951157D02*
X108431975Y-86760681D01*
X108431975Y-86760681D02*
X108479594Y-86665443D01*
X108479594Y-86665443D02*
X108574832Y-86570205D01*
X108574832Y-86570205D02*
X108717689Y-86522586D01*
X108717689Y-86522586D02*
X108812927Y-86522586D01*
X108812927Y-86522586D02*
X108955784Y-86570205D01*
X108955784Y-86570205D02*
X109003403Y-86617824D01*
X109908165Y-86522586D02*
X109431975Y-86522586D01*
X109431975Y-86522586D02*
X109384356Y-86998776D01*
X109384356Y-86998776D02*
X109431975Y-86951157D01*
X109431975Y-86951157D02*
X109527213Y-86903538D01*
X109527213Y-86903538D02*
X109765308Y-86903538D01*
X109765308Y-86903538D02*
X109860546Y-86951157D01*
X109860546Y-86951157D02*
X109908165Y-86998776D01*
X109908165Y-86998776D02*
X109955784Y-87094014D01*
X109955784Y-87094014D02*
X109955784Y-87332109D01*
X109955784Y-87332109D02*
X109908165Y-87427347D01*
X109908165Y-87427347D02*
X109860546Y-87474967D01*
X109860546Y-87474967D02*
X109765308Y-87522586D01*
X109765308Y-87522586D02*
X109527213Y-87522586D01*
X109527213Y-87522586D02*
X109431975Y-87474967D01*
X109431975Y-87474967D02*
X109384356Y-87427347D01*
X109003403Y-104287347D02*
X108955784Y-104334967D01*
X108955784Y-104334967D02*
X108812927Y-104382586D01*
X108812927Y-104382586D02*
X108717689Y-104382586D01*
X108717689Y-104382586D02*
X108574832Y-104334967D01*
X108574832Y-104334967D02*
X108479594Y-104239728D01*
X108479594Y-104239728D02*
X108431975Y-104144490D01*
X108431975Y-104144490D02*
X108384356Y-103954014D01*
X108384356Y-103954014D02*
X108384356Y-103811157D01*
X108384356Y-103811157D02*
X108431975Y-103620681D01*
X108431975Y-103620681D02*
X108479594Y-103525443D01*
X108479594Y-103525443D02*
X108574832Y-103430205D01*
X108574832Y-103430205D02*
X108717689Y-103382586D01*
X108717689Y-103382586D02*
X108812927Y-103382586D01*
X108812927Y-103382586D02*
X108955784Y-103430205D01*
X108955784Y-103430205D02*
X109003403Y-103477824D01*
X109860546Y-103715919D02*
X109860546Y-104382586D01*
X109622451Y-103334967D02*
X109384356Y-104049252D01*
X109384356Y-104049252D02*
X110003403Y-104049252D01*
X116003403Y-159967347D02*
X115955784Y-160014967D01*
X115955784Y-160014967D02*
X115812927Y-160062586D01*
X115812927Y-160062586D02*
X115717689Y-160062586D01*
X115717689Y-160062586D02*
X115574832Y-160014967D01*
X115574832Y-160014967D02*
X115479594Y-159919728D01*
X115479594Y-159919728D02*
X115431975Y-159824490D01*
X115431975Y-159824490D02*
X115384356Y-159634014D01*
X115384356Y-159634014D02*
X115384356Y-159491157D01*
X115384356Y-159491157D02*
X115431975Y-159300681D01*
X115431975Y-159300681D02*
X115479594Y-159205443D01*
X115479594Y-159205443D02*
X115574832Y-159110205D01*
X115574832Y-159110205D02*
X115717689Y-159062586D01*
X115717689Y-159062586D02*
X115812927Y-159062586D01*
X115812927Y-159062586D02*
X115955784Y-159110205D01*
X115955784Y-159110205D02*
X116003403Y-159157824D01*
X116336737Y-159062586D02*
X116955784Y-159062586D01*
X116955784Y-159062586D02*
X116622451Y-159443538D01*
X116622451Y-159443538D02*
X116765308Y-159443538D01*
X116765308Y-159443538D02*
X116860546Y-159491157D01*
X116860546Y-159491157D02*
X116908165Y-159538776D01*
X116908165Y-159538776D02*
X116955784Y-159634014D01*
X116955784Y-159634014D02*
X116955784Y-159872109D01*
X116955784Y-159872109D02*
X116908165Y-159967347D01*
X116908165Y-159967347D02*
X116860546Y-160014967D01*
X116860546Y-160014967D02*
X116765308Y-160062586D01*
X116765308Y-160062586D02*
X116479594Y-160062586D01*
X116479594Y-160062586D02*
X116384356Y-160014967D01*
X116384356Y-160014967D02*
X116336737Y-159967347D01*
X109003403Y-78997347D02*
X108955784Y-79044967D01*
X108955784Y-79044967D02*
X108812927Y-79092586D01*
X108812927Y-79092586D02*
X108717689Y-79092586D01*
X108717689Y-79092586D02*
X108574832Y-79044967D01*
X108574832Y-79044967D02*
X108479594Y-78949728D01*
X108479594Y-78949728D02*
X108431975Y-78854490D01*
X108431975Y-78854490D02*
X108384356Y-78664014D01*
X108384356Y-78664014D02*
X108384356Y-78521157D01*
X108384356Y-78521157D02*
X108431975Y-78330681D01*
X108431975Y-78330681D02*
X108479594Y-78235443D01*
X108479594Y-78235443D02*
X108574832Y-78140205D01*
X108574832Y-78140205D02*
X108717689Y-78092586D01*
X108717689Y-78092586D02*
X108812927Y-78092586D01*
X108812927Y-78092586D02*
X108955784Y-78140205D01*
X108955784Y-78140205D02*
X109003403Y-78187824D01*
X109384356Y-78187824D02*
X109431975Y-78140205D01*
X109431975Y-78140205D02*
X109527213Y-78092586D01*
X109527213Y-78092586D02*
X109765308Y-78092586D01*
X109765308Y-78092586D02*
X109860546Y-78140205D01*
X109860546Y-78140205D02*
X109908165Y-78187824D01*
X109908165Y-78187824D02*
X109955784Y-78283062D01*
X109955784Y-78283062D02*
X109955784Y-78378300D01*
X109955784Y-78378300D02*
X109908165Y-78521157D01*
X109908165Y-78521157D02*
X109336737Y-79092586D01*
X109336737Y-79092586D02*
X109955784Y-79092586D01*
X109003403Y-95857347D02*
X108955784Y-95904967D01*
X108955784Y-95904967D02*
X108812927Y-95952586D01*
X108812927Y-95952586D02*
X108717689Y-95952586D01*
X108717689Y-95952586D02*
X108574832Y-95904967D01*
X108574832Y-95904967D02*
X108479594Y-95809728D01*
X108479594Y-95809728D02*
X108431975Y-95714490D01*
X108431975Y-95714490D02*
X108384356Y-95524014D01*
X108384356Y-95524014D02*
X108384356Y-95381157D01*
X108384356Y-95381157D02*
X108431975Y-95190681D01*
X108431975Y-95190681D02*
X108479594Y-95095443D01*
X108479594Y-95095443D02*
X108574832Y-95000205D01*
X108574832Y-95000205D02*
X108717689Y-94952586D01*
X108717689Y-94952586D02*
X108812927Y-94952586D01*
X108812927Y-94952586D02*
X108955784Y-95000205D01*
X108955784Y-95000205D02*
X109003403Y-95047824D01*
X109955784Y-95952586D02*
X109384356Y-95952586D01*
X109670070Y-95952586D02*
X109670070Y-94952586D01*
X109670070Y-94952586D02*
X109574832Y-95095443D01*
X109574832Y-95095443D02*
X109479594Y-95190681D01*
X109479594Y-95190681D02*
X109384356Y-95238300D01*
D11*
%TO.C,U1*%
X149350070Y-100727767D02*
X149350070Y-94527767D01*
X149350070Y-100727767D02*
X130950070Y-100727767D01*
X149350070Y-75877767D02*
X149350070Y-74877767D01*
X149350070Y-74877767D02*
X147850070Y-74877767D01*
X130950070Y-100727767D02*
X130950070Y-94527767D01*
X130950070Y-74877767D02*
X132450070Y-74877767D01*
X130950070Y-74877767D02*
X130950070Y-75877767D01*
X149350070Y-94352767D02*
X149350070Y-93852767D01*
X149850070Y-93852767D01*
X149350070Y-94352767D01*
G36*
X149350070Y-94352767D02*
G01*
X149350070Y-93852767D01*
X149850070Y-93852767D01*
X149350070Y-94352767D01*
G37*
%TO.C,J5*%
X163770070Y-162447767D02*
X163770070Y-153207767D01*
X163770070Y-162447767D02*
X123530070Y-162447767D01*
X163770070Y-154827767D02*
X123530070Y-154827767D01*
X163770070Y-153207767D02*
X161450070Y-153207767D01*
X160850070Y-153207767D02*
X123530070Y-153207767D01*
X123530070Y-162447767D02*
X123530070Y-153207767D01*
X162050070Y-160327767D02*
G75*
G02*
X160250070Y-160327767I-900000J0D01*
G01*
X160250070Y-160327767D02*
G75*
G02*
X162050070Y-160327767I900000J0D01*
G01*
X157050070Y-160327767D02*
G75*
G02*
X155250070Y-160327767I-900000J0D01*
G01*
X155250070Y-160327767D02*
G75*
G02*
X157050070Y-160327767I900000J0D01*
G01*
X152050070Y-160327767D02*
G75*
G02*
X150250070Y-160327767I-900000J0D01*
G01*
X150250070Y-160327767D02*
G75*
G02*
X152050070Y-160327767I900000J0D01*
G01*
X147050070Y-160327767D02*
G75*
G02*
X145250070Y-160327767I-900000J0D01*
G01*
X145250070Y-160327767D02*
G75*
G02*
X147050070Y-160327767I900000J0D01*
G01*
X142050070Y-160327767D02*
G75*
G02*
X140250070Y-160327767I-900000J0D01*
G01*
X140250070Y-160327767D02*
G75*
G02*
X142050070Y-160327767I900000J0D01*
G01*
X137050070Y-160327767D02*
G75*
G02*
X135250070Y-160327767I-900000J0D01*
G01*
X135250070Y-160327767D02*
G75*
G02*
X137050070Y-160327767I900000J0D01*
G01*
X132050070Y-160327767D02*
G75*
G02*
X130250070Y-160327767I-900000J0D01*
G01*
X130250070Y-160327767D02*
G75*
G02*
X132050070Y-160327767I900000J0D01*
G01*
X127050070Y-160327767D02*
G75*
G02*
X125250070Y-160327767I-900000J0D01*
G01*
X125250070Y-160327767D02*
G75*
G02*
X127050070Y-160327767I900000J0D01*
G01*
X161150070Y-153207767D02*
X160710070Y-152597767D01*
X161590070Y-152597767D01*
X161150070Y-153207767D01*
G36*
X161150070Y-153207767D02*
G01*
X160710070Y-152597767D01*
X161590070Y-152597767D01*
X161150070Y-153207767D01*
G37*
%TO.C,J4*%
X151720070Y-151137767D02*
X151720070Y-142897767D01*
X151720070Y-151137767D02*
X136480070Y-151137767D01*
X151720070Y-149017767D02*
X136480070Y-149017767D01*
X151720070Y-145017767D02*
X136480070Y-145017767D01*
X151720070Y-142897767D02*
X149400070Y-142897767D01*
X148800070Y-142897767D02*
X136480070Y-142897767D01*
X136480070Y-151137767D02*
X136480070Y-142897767D01*
X149100070Y-142897767D02*
X148660070Y-142287767D01*
X149540070Y-142287767D01*
X149100070Y-142897767D01*
G36*
X149100070Y-142897767D02*
G01*
X148660070Y-142287767D01*
X149540070Y-142287767D01*
X149100070Y-142897767D01*
G37*
%TO.C,J3*%
X163770070Y-128507767D02*
X163770070Y-119267767D01*
X163770070Y-128507767D02*
X153530070Y-128507767D01*
X163770070Y-120887767D02*
X153530070Y-120887767D01*
X163770070Y-119267767D02*
X161450070Y-119267767D01*
X160850070Y-119267767D02*
X153530070Y-119267767D01*
X153530070Y-128507767D02*
X153530070Y-119267767D01*
X162050070Y-126387767D02*
G75*
G02*
X160250070Y-126387767I-900000J0D01*
G01*
X160250070Y-126387767D02*
G75*
G02*
X162050070Y-126387767I900000J0D01*
G01*
X157050070Y-126387767D02*
G75*
G02*
X155250070Y-126387767I-900000J0D01*
G01*
X155250070Y-126387767D02*
G75*
G02*
X157050070Y-126387767I900000J0D01*
G01*
X161150070Y-119267767D02*
X160710070Y-118657767D01*
X161590070Y-118657767D01*
X161150070Y-119267767D01*
G36*
X161150070Y-119267767D02*
G01*
X160710070Y-118657767D01*
X161590070Y-118657767D01*
X161150070Y-119267767D01*
G37*
%TO.C,J2*%
X163770070Y-139822767D02*
X163770070Y-130582767D01*
X163770070Y-139822767D02*
X153530070Y-139822767D01*
X163770070Y-132202767D02*
X153530070Y-132202767D01*
X163770070Y-130582767D02*
X161450070Y-130582767D01*
X160850070Y-130582767D02*
X153530070Y-130582767D01*
X153530070Y-139822767D02*
X153530070Y-130582767D01*
X162050070Y-137702767D02*
G75*
G02*
X160250070Y-137702767I-900000J0D01*
G01*
X160250070Y-137702767D02*
G75*
G02*
X162050070Y-137702767I900000J0D01*
G01*
X157050070Y-137702767D02*
G75*
G02*
X155250070Y-137702767I-900000J0D01*
G01*
X155250070Y-137702767D02*
G75*
G02*
X157050070Y-137702767I900000J0D01*
G01*
X161150070Y-130582767D02*
X160710070Y-129972767D01*
X161590070Y-129972767D01*
X161150070Y-130582767D01*
G36*
X161150070Y-130582767D02*
G01*
X160710070Y-129972767D01*
X161590070Y-129972767D01*
X161150070Y-130582767D01*
G37*
%TO.C,J1*%
X163770070Y-151137767D02*
X163770070Y-141897767D01*
X163770070Y-151137767D02*
X153530070Y-151137767D01*
X163770070Y-143517767D02*
X153530070Y-143517767D01*
X163770070Y-141897767D02*
X161450070Y-141897767D01*
X160850070Y-141897767D02*
X153530070Y-141897767D01*
X153530070Y-151137767D02*
X153530070Y-141897767D01*
X162050070Y-149017767D02*
G75*
G02*
X160250070Y-149017767I-900000J0D01*
G01*
X160250070Y-149017767D02*
G75*
G02*
X162050070Y-149017767I900000J0D01*
G01*
X157050070Y-149017767D02*
G75*
G02*
X155250070Y-149017767I-900000J0D01*
G01*
X155250070Y-149017767D02*
G75*
G02*
X157050070Y-149017767I900000J0D01*
G01*
X161150070Y-141897767D02*
X160710070Y-141287767D01*
X161590070Y-141287767D01*
X161150070Y-141897767D01*
G36*
X161150070Y-141897767D02*
G01*
X160710070Y-141287767D01*
X161590070Y-141287767D01*
X161150070Y-141897767D01*
G37*
%TO.C,D7*%
X109760070Y-115262767D02*
X108350070Y-115262767D01*
X109750070Y-112942767D02*
X108350070Y-112942767D01*
X110370070Y-115542767D02*
X109890070Y-115542767D01*
X110130070Y-115212767D01*
X110370070Y-115542767D01*
G36*
X110370070Y-115542767D02*
G01*
X109890070Y-115542767D01*
X110130070Y-115212767D01*
X110370070Y-115542767D01*
G37*
%TO.C,D6*%
X116760070Y-154082767D02*
X115350070Y-154082767D01*
X116750070Y-151762767D02*
X115350070Y-151762767D01*
X117370070Y-154362767D02*
X116890070Y-154362767D01*
X117130070Y-154032767D01*
X117370070Y-154362767D01*
G36*
X117370070Y-154362767D02*
G01*
X116890070Y-154362767D01*
X117130070Y-154032767D01*
X117370070Y-154362767D01*
G37*
%TO.C,D5*%
X109760070Y-89972767D02*
X108350070Y-89972767D01*
X109750070Y-87652767D02*
X108350070Y-87652767D01*
X110370070Y-90252767D02*
X109890070Y-90252767D01*
X110130070Y-89922767D01*
X110370070Y-90252767D01*
G36*
X110370070Y-90252767D02*
G01*
X109890070Y-90252767D01*
X110130070Y-89922767D01*
X110370070Y-90252767D01*
G37*
%TO.C,D4*%
X109760070Y-106832767D02*
X108350070Y-106832767D01*
X109750070Y-104512767D02*
X108350070Y-104512767D01*
X110370070Y-107112767D02*
X109890070Y-107112767D01*
X110130070Y-106782767D01*
X110370070Y-107112767D01*
G36*
X110370070Y-107112767D02*
G01*
X109890070Y-107112767D01*
X110130070Y-106782767D01*
X110370070Y-107112767D01*
G37*
%TO.C,D3*%
X116760070Y-162512767D02*
X115350070Y-162512767D01*
X116750070Y-160192767D02*
X115350070Y-160192767D01*
X117370070Y-162792767D02*
X116890070Y-162792767D01*
X117130070Y-162462767D01*
X117370070Y-162792767D01*
G36*
X117370070Y-162792767D02*
G01*
X116890070Y-162792767D01*
X117130070Y-162462767D01*
X117370070Y-162792767D01*
G37*
%TO.C,D2*%
X109760070Y-81542767D02*
X108350070Y-81542767D01*
X109750070Y-79222767D02*
X108350070Y-79222767D01*
X110370070Y-81822767D02*
X109890070Y-81822767D01*
X110130070Y-81492767D01*
X110370070Y-81822767D01*
G36*
X110370070Y-81822767D02*
G01*
X109890070Y-81822767D01*
X110130070Y-81492767D01*
X110370070Y-81822767D01*
G37*
%TO.C,D1*%
X109760070Y-98402767D02*
X108350070Y-98402767D01*
X109750070Y-96082767D02*
X108350070Y-96082767D01*
X110370070Y-98682767D02*
X109890070Y-98682767D01*
X110130070Y-98352767D01*
X110370070Y-98682767D01*
G36*
X110370070Y-98682767D02*
G01*
X109890070Y-98682767D01*
X110130070Y-98352767D01*
X110370070Y-98682767D01*
G37*
%TO.C,C7*%
X109310650Y-111437767D02*
X109029490Y-111437767D01*
X109310650Y-110417767D02*
X109029490Y-110417767D01*
%TO.C,C6*%
X116310650Y-150257767D02*
X116029490Y-150257767D01*
X116310650Y-149237767D02*
X116029490Y-149237767D01*
%TO.C,C5*%
X109310650Y-86147767D02*
X109029490Y-86147767D01*
X109310650Y-85127767D02*
X109029490Y-85127767D01*
%TO.C,C4*%
X109310650Y-103007767D02*
X109029490Y-103007767D01*
X109310650Y-101987767D02*
X109029490Y-101987767D01*
%TO.C,C3*%
X116310650Y-158687767D02*
X116029490Y-158687767D01*
X116310650Y-157667767D02*
X116029490Y-157667767D01*
%TO.C,C2*%
X109310650Y-77717767D02*
X109029490Y-77717767D01*
X109310650Y-76697767D02*
X109029490Y-76697767D01*
%TO.C,C1*%
X109310650Y-94577767D02*
X109029490Y-94577767D01*
X109310650Y-93557767D02*
X109029490Y-93557767D01*
%TD*%
M02*
