M48
; DRILL file {KiCad 9.0.2} date 2025-05-31T05:56:24-0400
; FORMAT={-:-/ absolute / metric / decimal}
; #@! TF.CreationDate,2025-05-31T05:56:24-04:00
; #@! TF.GenerationSoftware,Kicad,Pcbnew,9.0.2
; #@! TF.FileFunction,Plated,1,2,PTH
FMAT,2
METRIC
; #@! TA.AperFunction,Plated,PTH,ComponentDrill
T1C0.200
; #@! TA.AperFunction,Plated,PTH,ComponentDrill
T2C1.300
%
G90
G05
T1
X140.25Y-84.668
X140.25Y-86.068
X140.95Y-83.968
X140.95Y-85.368
X140.95Y-86.768
X141.65Y-84.668
X141.65Y-86.068
X142.35Y-83.968
X142.35Y-85.368
X142.35Y-86.768
X143.05Y-84.668
X143.05Y-86.068
T2
X126.15Y-157.328
X131.15Y-157.328
X136.15Y-157.328
X139.1Y-147.018
X141.15Y-157.328
X144.1Y-147.018
X146.15Y-157.328
X149.1Y-147.018
X151.15Y-157.328
X156.15Y-123.388
X156.15Y-134.703
X156.15Y-146.018
X156.15Y-157.328
X161.15Y-123.388
X161.15Y-134.703
X161.15Y-146.018
X161.15Y-157.328
M30
