%TF.GenerationSoftware,KiCad,Pcbnew,9.0.2*%
%TF.CreationDate,2025-05-30T19:54:00-04:00*%
%TF.ProjectId,porton micro,706f7274-6f6e-4206-9d69-63726f2e6b69,rev?*%
%TF.SameCoordinates,Original*%
%TF.FileFunction,Copper,L2,Bot*%
%TF.FilePolarity,Positive*%
%FSLAX46Y46*%
G04 Gerber Fmt 4.6, Leading zero omitted, Abs format (unit mm)*
G04 Created by KiCad (PCBNEW 9.0.2) date 2025-05-30 19:54:00*
%MOMM*%
%LPD*%
G01*
G04 APERTURE LIST*
G04 Aperture macros list*
%AMRoundRect*
0 Rectangle with rounded corners*
0 $1 Rounding radius*
0 $2 $3 $4 $5 $6 $7 $8 $9 X,Y pos of 4 corners*
0 Add a 4 corners polygon primitive as box body*
4,1,4,$2,$3,$4,$5,$6,$7,$8,$9,$2,$3,0*
0 Add four circle primitives for the rounded corners*
1,1,$1+$1,$2,$3*
1,1,$1+$1,$4,$5*
1,1,$1+$1,$6,$7*
1,1,$1+$1,$8,$9*
0 Add four rect primitives between the rounded corners*
20,1,$1+$1,$2,$3,$4,$5,0*
20,1,$1+$1,$4,$5,$6,$7,0*
20,1,$1+$1,$6,$7,$8,$9,0*
20,1,$1+$1,$8,$9,$2,$3,0*%
G04 Aperture macros list end*
%TA.AperFunction,NonConductor*%
%ADD10C,0.200000*%
%TD*%
%TA.AperFunction,ComponentPad*%
%ADD11RoundRect,0.225000X-0.225000X-0.475000X0.225000X-0.475000X0.225000X0.475000X-0.225000X0.475000X0*%
%TD*%
%TA.AperFunction,ComponentPad*%
%ADD12O,0.900000X1.400000*%
%TD*%
%TA.AperFunction,ViaPad*%
%ADD13C,0.600000*%
%TD*%
%TA.AperFunction,Conductor*%
%ADD14C,0.200000*%
%TD*%
G04 APERTURE END LIST*
D10*
X150000000Y-68500000D02*
X171000000Y-68500000D01*
X171000000Y-93000000D01*
X150000000Y-93000000D01*
X150000000Y-68500000D01*
D11*
%TO.P,J1,1,Pin_1*%
%TO.N,VDD*%
X158250000Y-70500000D03*
D12*
%TO.P,J1,2,Pin_2*%
%TO.N,Net-(J1-Pin_2)*%
X159500000Y-70500000D03*
%TO.P,J1,3,Pin_3*%
%TO.N,Net-(J1-Pin_3)*%
X160750000Y-70500000D03*
%TO.P,J1,4,Pin_4*%
%TO.N,Net-(J1-Pin_4)*%
X162000000Y-70500000D03*
%TO.P,J1,5,Pin_5*%
%TO.N,Net-(J1-Pin_5)*%
X163250000Y-70500000D03*
%TO.P,J1,6,Pin_6*%
%TO.N,Net-(J1-Pin_6)*%
X164500000Y-70500000D03*
%TO.P,J1,7,Pin_7*%
%TO.N,Net-(J1-Pin_7)*%
X165750000Y-70500000D03*
%TO.P,J1,8,Pin_8*%
%TO.N,GND*%
X167000000Y-70500000D03*
%TD*%
D13*
%TO.N,*%
X168500000Y-77500000D03*
X168500000Y-79000000D03*
X168500000Y-80500000D03*
X168500000Y-82500000D03*
X168500000Y-84000000D03*
X168500000Y-85500000D03*
X168500000Y-87000000D03*
X168500000Y-89500000D03*
X168500000Y-91000000D03*
X170000000Y-91000000D03*
X170000000Y-89000000D03*
X170000000Y-87000000D03*
X170000000Y-85500000D03*
X170000000Y-84000000D03*
X170000000Y-82500000D03*
X170000000Y-80500000D03*
X170000000Y-79000000D03*
X170000000Y-77500000D03*
%TO.N,VDD*%
X162817102Y-75500000D03*
X163000000Y-73500000D03*
X165000000Y-77500000D03*
%TO.N,Net-(J1-Pin_7)*%
X158934313Y-82400000D03*
%TO.N,GND*%
X169000000Y-73000000D03*
%TO.N,Net-(J1-Pin_3)*%
X158000000Y-80500000D03*
%TO.N,Net-(J1-Pin_4)*%
X157301351Y-79724999D03*
%TO.N,Net-(J1-Pin_5)*%
X156500000Y-79000000D03*
%TO.N,Net-(J1-Pin_6)*%
X159000000Y-76000000D03*
%TO.N,Net-(U1-ANT2)*%
X163500000Y-85000000D03*
X156500000Y-83000000D03*
%TO.N,Net-(U1-ANT1)*%
X163000000Y-83500000D03*
X159500000Y-83000000D03*
%TD*%
D14*
%TO.N,VDD*%
X162817102Y-75500000D02*
X163000000Y-75500000D01*
X163000000Y-75500000D02*
X165000000Y-77500000D01*
X165000000Y-75500000D02*
X165000000Y-77500000D01*
X163000000Y-73500000D02*
X165000000Y-75500000D01*
%TO.N,Net-(J1-Pin_2)*%
X158984370Y-81500000D02*
X159000000Y-81500000D01*
X159500000Y-70500000D02*
X159500000Y-71000000D01*
%TO.N,Net-(J1-Pin_7)*%
X160301000Y-82400000D02*
X158934313Y-82400000D01*
X160500000Y-82599000D02*
X160301000Y-82400000D01*
X164901000Y-82599000D02*
X160500000Y-82599000D01*
X165750000Y-81750000D02*
X165500000Y-82000000D01*
X165500000Y-82000000D02*
X164901000Y-82599000D01*
X165750000Y-70500000D02*
X165750000Y-81750000D01*
%TO.N,GND*%
X169000000Y-72500000D02*
X167000000Y-70500000D01*
X169000000Y-73000000D02*
X169000000Y-72500000D01*
%TO.N,Net-(J1-Pin_3)*%
X156582957Y-80500000D02*
X158000000Y-80500000D01*
X155099000Y-79016043D02*
X156582957Y-80500000D01*
X160750000Y-70750000D02*
X155099000Y-76401000D01*
X155099000Y-76401000D02*
X155099000Y-79016043D01*
X160750000Y-70500000D02*
X160750000Y-70750000D01*
X158000000Y-80500000D02*
X158000000Y-80681470D01*
%TO.N,Net-(J1-Pin_4)*%
X157022999Y-79724999D02*
X157301351Y-79724999D01*
X157000000Y-79702000D02*
X157022999Y-79724999D01*
X157000000Y-79500000D02*
X157000000Y-79702000D01*
X156899000Y-79601000D02*
X157000000Y-79500000D01*
X156251057Y-79601000D02*
X156899000Y-79601000D01*
X155500000Y-78849943D02*
X156251057Y-79601000D01*
X155500000Y-77250000D02*
X155500000Y-78849943D01*
X162000000Y-70750000D02*
X155500000Y-77250000D01*
X162000000Y-70500000D02*
X162000000Y-70750000D01*
%TO.N,Net-(J1-Pin_5)*%
X156500000Y-77500000D02*
X156500000Y-79000000D01*
X163250000Y-70750000D02*
X156500000Y-77500000D01*
X163250000Y-70500000D02*
X163250000Y-70750000D01*
%TO.N,Net-(J1-Pin_6)*%
X159250000Y-76000000D02*
X159000000Y-76000000D01*
X164500000Y-70750000D02*
X159250000Y-76000000D01*
X164500000Y-70500000D02*
X164500000Y-70750000D01*
X164500000Y-70500000D02*
X164500000Y-71000000D01*
%TO.N,Net-(U1-ANT2)*%
X158500000Y-85000000D02*
X156500000Y-83000000D01*
X163500000Y-85000000D02*
X158500000Y-85000000D01*
%TO.N,Net-(U1-ANT1)*%
X162500000Y-83000000D02*
X159500000Y-83000000D01*
X163000000Y-83500000D02*
X162500000Y-83000000D01*
%TD*%
%TA.AperFunction,Conductor*%
%TO.N,GND*%
G36*
X157807082Y-69120185D02*
G01*
X157852837Y-69172989D01*
X157862781Y-69242147D01*
X157833756Y-69305703D01*
X157779047Y-69342206D01*
X157716305Y-69362996D01*
X157716294Y-69363001D01*
X157571959Y-69452029D01*
X157571955Y-69452032D01*
X157452032Y-69571955D01*
X157452029Y-69571959D01*
X157363001Y-69716294D01*
X157362996Y-69716305D01*
X157309651Y-69877290D01*
X157299500Y-69976647D01*
X157299500Y-71023337D01*
X157299501Y-71023355D01*
X157309650Y-71122707D01*
X157309651Y-71122710D01*
X157362996Y-71283694D01*
X157363001Y-71283705D01*
X157452029Y-71428040D01*
X157452032Y-71428044D01*
X157571955Y-71547967D01*
X157571959Y-71547970D01*
X157716294Y-71636998D01*
X157716297Y-71636999D01*
X157716303Y-71637003D01*
X157877292Y-71690349D01*
X157976655Y-71700500D01*
X158523344Y-71700499D01*
X158523352Y-71700498D01*
X158523355Y-71700498D01*
X158577760Y-71694940D01*
X158622708Y-71690349D01*
X158631130Y-71687557D01*
X158700957Y-71685153D01*
X158761001Y-71720881D01*
X158792197Y-71783400D01*
X158784640Y-71852860D01*
X158757820Y-71892943D01*
X154733565Y-75917198D01*
X154733558Y-75917205D01*
X154730286Y-75920478D01*
X154730284Y-75920480D01*
X154618480Y-76032284D01*
X154591600Y-76078842D01*
X154539423Y-76169215D01*
X154498499Y-76321943D01*
X154498499Y-76321945D01*
X154498499Y-76490046D01*
X154498500Y-76490059D01*
X154498500Y-78929373D01*
X154498499Y-78929391D01*
X154498499Y-79095097D01*
X154498498Y-79095097D01*
X154530548Y-79214706D01*
X154539423Y-79247828D01*
X154551194Y-79268215D01*
X154615262Y-79379185D01*
X154618479Y-79384757D01*
X154618481Y-79384760D01*
X154737349Y-79503628D01*
X154737355Y-79503633D01*
X156098096Y-80864374D01*
X156098106Y-80864385D01*
X156102436Y-80868715D01*
X156102437Y-80868716D01*
X156214241Y-80980520D01*
X156265802Y-81010288D01*
X156301052Y-81030639D01*
X156301054Y-81030641D01*
X156339108Y-81052611D01*
X156351172Y-81059577D01*
X156503900Y-81100500D01*
X156662014Y-81100500D01*
X157420234Y-81100500D01*
X157487273Y-81120185D01*
X157489125Y-81121398D01*
X157620814Y-81209390D01*
X157620827Y-81209397D01*
X157762814Y-81268209D01*
X157766503Y-81269737D01*
X157882659Y-81292842D01*
X157921153Y-81300499D01*
X157921156Y-81300500D01*
X157921158Y-81300500D01*
X158078844Y-81300500D01*
X158078845Y-81300499D01*
X158124831Y-81291352D01*
X158239472Y-81268549D01*
X158240075Y-81271582D01*
X158296464Y-81270532D01*
X158355935Y-81307207D01*
X158386137Y-81370211D01*
X158384002Y-81412764D01*
X158384931Y-81412887D01*
X158383870Y-81420945D01*
X158383870Y-81579056D01*
X158415912Y-81698641D01*
X158414249Y-81768491D01*
X158383819Y-81818415D01*
X158312523Y-81889711D01*
X158224922Y-82020814D01*
X158224915Y-82020827D01*
X158164577Y-82166498D01*
X158164574Y-82166510D01*
X158133813Y-82321153D01*
X158133813Y-82478846D01*
X158164574Y-82633489D01*
X158164577Y-82633501D01*
X158224915Y-82779172D01*
X158224922Y-82779185D01*
X158312523Y-82910288D01*
X158312526Y-82910292D01*
X158424020Y-83021786D01*
X158424024Y-83021789D01*
X158555127Y-83109390D01*
X158555140Y-83109397D01*
X158658189Y-83152081D01*
X158712593Y-83195922D01*
X158729394Y-83230635D01*
X158730261Y-83233494D01*
X158790602Y-83379172D01*
X158790609Y-83379185D01*
X158878210Y-83510288D01*
X158878213Y-83510292D01*
X158989707Y-83621786D01*
X158989711Y-83621789D01*
X159120814Y-83709390D01*
X159120827Y-83709397D01*
X159258683Y-83766498D01*
X159266503Y-83769737D01*
X159421153Y-83800499D01*
X159421156Y-83800500D01*
X159421158Y-83800500D01*
X159578844Y-83800500D01*
X159578845Y-83800499D01*
X159733497Y-83769737D01*
X159879179Y-83709394D01*
X159933663Y-83672989D01*
X160010875Y-83621398D01*
X160077553Y-83600520D01*
X160079766Y-83600500D01*
X162102044Y-83600500D01*
X162169083Y-83620185D01*
X162214838Y-83672989D01*
X162223661Y-83700309D01*
X162230261Y-83733489D01*
X162230264Y-83733501D01*
X162290602Y-83879172D01*
X162290609Y-83879185D01*
X162378210Y-84010288D01*
X162378213Y-84010292D01*
X162489707Y-84121786D01*
X162489711Y-84121789D01*
X162565452Y-84172398D01*
X162610257Y-84226010D01*
X162618964Y-84295335D01*
X162588810Y-84358363D01*
X162529366Y-84395082D01*
X162496561Y-84399500D01*
X158800097Y-84399500D01*
X158733058Y-84379815D01*
X158712416Y-84363181D01*
X157334574Y-82985339D01*
X157301089Y-82924016D01*
X157300638Y-82921849D01*
X157282595Y-82831147D01*
X157269737Y-82766503D01*
X157256062Y-82733489D01*
X157209397Y-82620827D01*
X157209390Y-82620814D01*
X157121789Y-82489711D01*
X157121786Y-82489707D01*
X157010292Y-82378213D01*
X157010288Y-82378210D01*
X156879185Y-82290609D01*
X156879172Y-82290602D01*
X156733501Y-82230264D01*
X156733489Y-82230261D01*
X156578845Y-82199500D01*
X156578842Y-82199500D01*
X156421158Y-82199500D01*
X156421155Y-82199500D01*
X156266510Y-82230261D01*
X156266498Y-82230264D01*
X156120827Y-82290602D01*
X156120814Y-82290609D01*
X155989711Y-82378210D01*
X155989707Y-82378213D01*
X155878213Y-82489707D01*
X155878210Y-82489711D01*
X155790609Y-82620814D01*
X155790602Y-82620827D01*
X155730264Y-82766498D01*
X155730261Y-82766510D01*
X155699500Y-82921153D01*
X155699500Y-83078846D01*
X155730261Y-83233489D01*
X155730264Y-83233501D01*
X155790602Y-83379172D01*
X155790609Y-83379185D01*
X155878210Y-83510288D01*
X155878213Y-83510292D01*
X155989707Y-83621786D01*
X155989711Y-83621789D01*
X156120814Y-83709390D01*
X156120827Y-83709397D01*
X156258683Y-83766498D01*
X156266503Y-83769737D01*
X156331147Y-83782595D01*
X156421849Y-83800638D01*
X156483760Y-83833023D01*
X156485339Y-83834574D01*
X158015139Y-85364374D01*
X158015149Y-85364385D01*
X158019479Y-85368715D01*
X158019480Y-85368716D01*
X158131284Y-85480520D01*
X158182845Y-85510288D01*
X158218095Y-85530639D01*
X158218097Y-85530641D01*
X158256151Y-85552611D01*
X158268215Y-85559577D01*
X158420943Y-85600500D01*
X162920234Y-85600500D01*
X162987273Y-85620185D01*
X162989125Y-85621398D01*
X163120814Y-85709390D01*
X163120827Y-85709397D01*
X163266498Y-85769735D01*
X163266503Y-85769737D01*
X163421153Y-85800499D01*
X163421156Y-85800500D01*
X163421158Y-85800500D01*
X163578844Y-85800500D01*
X163578845Y-85800499D01*
X163733497Y-85769737D01*
X163879179Y-85709394D01*
X164010289Y-85621789D01*
X164121789Y-85510289D01*
X164209394Y-85379179D01*
X164269737Y-85233497D01*
X164300500Y-85078842D01*
X164300500Y-84921158D01*
X164300500Y-84921155D01*
X164300499Y-84921153D01*
X164277232Y-84804184D01*
X164269737Y-84766503D01*
X164262901Y-84750000D01*
X164209397Y-84620827D01*
X164209390Y-84620814D01*
X164121789Y-84489711D01*
X164121786Y-84489707D01*
X164010292Y-84378213D01*
X164010288Y-84378210D01*
X163879185Y-84290609D01*
X163879172Y-84290602D01*
X163733501Y-84230264D01*
X163733491Y-84230261D01*
X163684374Y-84220491D01*
X163622463Y-84188106D01*
X163587889Y-84127389D01*
X163591630Y-84057620D01*
X163618296Y-84015304D01*
X163617924Y-84014999D01*
X163620357Y-84012033D01*
X163620891Y-84011186D01*
X163621789Y-84010289D01*
X163709394Y-83879179D01*
X163769737Y-83733497D01*
X163800500Y-83578842D01*
X163800500Y-83421158D01*
X163800500Y-83421155D01*
X163800499Y-83421153D01*
X163785887Y-83347691D01*
X163792114Y-83278100D01*
X163834977Y-83222923D01*
X163900867Y-83199678D01*
X163907504Y-83199500D01*
X164814331Y-83199500D01*
X164814347Y-83199501D01*
X164821943Y-83199501D01*
X164980054Y-83199501D01*
X164980057Y-83199501D01*
X165132785Y-83158577D01*
X165217972Y-83109394D01*
X165269716Y-83079520D01*
X165381520Y-82967716D01*
X165381520Y-82967714D01*
X165391724Y-82957511D01*
X165391727Y-82957506D01*
X165980519Y-82368716D01*
X166108506Y-82240727D01*
X166108510Y-82240725D01*
X166118714Y-82230520D01*
X166118716Y-82230520D01*
X166230520Y-82118716D01*
X166309577Y-81981784D01*
X166345022Y-81849500D01*
X166350500Y-81829058D01*
X166350500Y-81670943D01*
X166350500Y-71690561D01*
X166370185Y-71623522D01*
X166422989Y-71577767D01*
X166492147Y-71567823D01*
X166543395Y-71587462D01*
X166549999Y-71591875D01*
X166550012Y-71591882D01*
X166722889Y-71663489D01*
X166722896Y-71663491D01*
X166750000Y-71668882D01*
X166750000Y-71668881D01*
X167250000Y-71668881D01*
X167277103Y-71663491D01*
X167277110Y-71663489D01*
X167449987Y-71591882D01*
X167450000Y-71591875D01*
X167605589Y-71487913D01*
X167605593Y-71487910D01*
X167737910Y-71355593D01*
X167737913Y-71355589D01*
X167841875Y-71200000D01*
X167841880Y-71199991D01*
X167913491Y-71027105D01*
X167913493Y-71027097D01*
X167949999Y-70843571D01*
X167950000Y-70843569D01*
X167950000Y-70750000D01*
X167250000Y-70750000D01*
X167250000Y-71668881D01*
X166750000Y-71668881D01*
X166750000Y-70666988D01*
X166759940Y-70684205D01*
X166815795Y-70740060D01*
X166884204Y-70779556D01*
X166960504Y-70800000D01*
X167039496Y-70800000D01*
X167115796Y-70779556D01*
X167184205Y-70740060D01*
X167240060Y-70684205D01*
X167279556Y-70615796D01*
X167300000Y-70539496D01*
X167300000Y-70460504D01*
X167279556Y-70384204D01*
X167240060Y-70315795D01*
X167184205Y-70259940D01*
X167166988Y-70250000D01*
X167950000Y-70250000D01*
X167950000Y-70156430D01*
X167949999Y-70156428D01*
X167913493Y-69972902D01*
X167913491Y-69972894D01*
X167841880Y-69800008D01*
X167841875Y-69799999D01*
X167737913Y-69644410D01*
X167737910Y-69644406D01*
X167605593Y-69512089D01*
X167605589Y-69512086D01*
X167450000Y-69408124D01*
X167449991Y-69408119D01*
X167283268Y-69339061D01*
X167228865Y-69295220D01*
X167206800Y-69228926D01*
X167224079Y-69161227D01*
X167275216Y-69113616D01*
X167330721Y-69100500D01*
X170275500Y-69100500D01*
X170342539Y-69120185D01*
X170388294Y-69172989D01*
X170399500Y-69224500D01*
X170399500Y-76613444D01*
X170379815Y-76680483D01*
X170327011Y-76726238D01*
X170257853Y-76736182D01*
X170239575Y-76731202D01*
X170239324Y-76732031D01*
X170233500Y-76730264D01*
X170233497Y-76730263D01*
X170233492Y-76730262D01*
X170233489Y-76730261D01*
X170078845Y-76699500D01*
X170078842Y-76699500D01*
X169921158Y-76699500D01*
X169921155Y-76699500D01*
X169766510Y-76730261D01*
X169766498Y-76730264D01*
X169620827Y-76790602D01*
X169620814Y-76790609D01*
X169489711Y-76878210D01*
X169489707Y-76878213D01*
X169378213Y-76989707D01*
X169353102Y-77027289D01*
X169299489Y-77072093D01*
X169230164Y-77080800D01*
X169167137Y-77050645D01*
X169146898Y-77027289D01*
X169121786Y-76989707D01*
X169010292Y-76878213D01*
X169010288Y-76878210D01*
X168879185Y-76790609D01*
X168879172Y-76790602D01*
X168733501Y-76730264D01*
X168733489Y-76730261D01*
X168578845Y-76699500D01*
X168578842Y-76699500D01*
X168421158Y-76699500D01*
X168421155Y-76699500D01*
X168266510Y-76730261D01*
X168266498Y-76730264D01*
X168120827Y-76790602D01*
X168120814Y-76790609D01*
X167989711Y-76878210D01*
X167989707Y-76878213D01*
X167878213Y-76989707D01*
X167878210Y-76989711D01*
X167790609Y-77120814D01*
X167790602Y-77120827D01*
X167730264Y-77266498D01*
X167730261Y-77266510D01*
X167699500Y-77421153D01*
X167699500Y-77578846D01*
X167730261Y-77733489D01*
X167730264Y-77733501D01*
X167790602Y-77879172D01*
X167790609Y-77879185D01*
X167878210Y-78010288D01*
X167878213Y-78010292D01*
X167989707Y-78121786D01*
X167989710Y-78121788D01*
X167989711Y-78121789D01*
X168015219Y-78138833D01*
X168027289Y-78146898D01*
X168072093Y-78200511D01*
X168080800Y-78269836D01*
X168050645Y-78332863D01*
X168027289Y-78353102D01*
X167989707Y-78378213D01*
X167878213Y-78489707D01*
X167878210Y-78489711D01*
X167790609Y-78620814D01*
X167790602Y-78620827D01*
X167730264Y-78766498D01*
X167730261Y-78766510D01*
X167699500Y-78921153D01*
X167699500Y-79078846D01*
X167730261Y-79233489D01*
X167730264Y-79233501D01*
X167790602Y-79379172D01*
X167790609Y-79379185D01*
X167878210Y-79510288D01*
X167878213Y-79510292D01*
X167989707Y-79621786D01*
X167989710Y-79621788D01*
X167989711Y-79621789D01*
X167994816Y-79625200D01*
X168027289Y-79646898D01*
X168072093Y-79700511D01*
X168080800Y-79769836D01*
X168050645Y-79832863D01*
X168027289Y-79853102D01*
X167989707Y-79878213D01*
X167878213Y-79989707D01*
X167878210Y-79989711D01*
X167790609Y-80120814D01*
X167790602Y-80120827D01*
X167730264Y-80266498D01*
X167730261Y-80266510D01*
X167699500Y-80421153D01*
X167699500Y-80578846D01*
X167730261Y-80733489D01*
X167730264Y-80733501D01*
X167790602Y-80879172D01*
X167790609Y-80879185D01*
X167878210Y-81010288D01*
X167878213Y-81010292D01*
X167989707Y-81121786D01*
X167989711Y-81121789D01*
X168120814Y-81209390D01*
X168120827Y-81209397D01*
X168262814Y-81268209D01*
X168266503Y-81269737D01*
X168382659Y-81292842D01*
X168421153Y-81300499D01*
X168421156Y-81300500D01*
X168421158Y-81300500D01*
X168578844Y-81300500D01*
X168578845Y-81300499D01*
X168733497Y-81269737D01*
X168879179Y-81209394D01*
X169010289Y-81121789D01*
X169121789Y-81010289D01*
X169129145Y-80999279D01*
X169146898Y-80972712D01*
X169200510Y-80927906D01*
X169269835Y-80919199D01*
X169332862Y-80949353D01*
X169353102Y-80972712D01*
X169378207Y-81010284D01*
X169378213Y-81010292D01*
X169489707Y-81121786D01*
X169489711Y-81121789D01*
X169620814Y-81209390D01*
X169620827Y-81209397D01*
X169762814Y-81268209D01*
X169766503Y-81269737D01*
X169882659Y-81292842D01*
X169921153Y-81300499D01*
X169921156Y-81300500D01*
X169921158Y-81300500D01*
X170078844Y-81300500D01*
X170078845Y-81300499D01*
X170233497Y-81269737D01*
X170233509Y-81269731D01*
X170239324Y-81267969D01*
X170240158Y-81270720D01*
X170260601Y-81268496D01*
X170293147Y-81263817D01*
X170295159Y-81264736D01*
X170297359Y-81264497D01*
X170326779Y-81279176D01*
X170356703Y-81292842D01*
X170357899Y-81294703D01*
X170359878Y-81295691D01*
X170376687Y-81323938D01*
X170394477Y-81351620D01*
X170394896Y-81354538D01*
X170395608Y-81355734D01*
X170399500Y-81386555D01*
X170399500Y-81613444D01*
X170379815Y-81680483D01*
X170327011Y-81726238D01*
X170257853Y-81736182D01*
X170239575Y-81731202D01*
X170239324Y-81732031D01*
X170233500Y-81730264D01*
X170233497Y-81730263D01*
X170233492Y-81730262D01*
X170233489Y-81730261D01*
X170078845Y-81699500D01*
X170078842Y-81699500D01*
X169921158Y-81699500D01*
X169921155Y-81699500D01*
X169766510Y-81730261D01*
X169766498Y-81730264D01*
X169620827Y-81790602D01*
X169620814Y-81790609D01*
X169489711Y-81878210D01*
X169489707Y-81878213D01*
X169378213Y-81989707D01*
X169353102Y-82027289D01*
X169299489Y-82072093D01*
X169230164Y-82080800D01*
X169167137Y-82050645D01*
X169146898Y-82027289D01*
X169138833Y-82015219D01*
X169121789Y-81989711D01*
X169121788Y-81989710D01*
X169121786Y-81989707D01*
X169010292Y-81878213D01*
X169010288Y-81878210D01*
X168879185Y-81790609D01*
X168879172Y-81790602D01*
X168733501Y-81730264D01*
X168733489Y-81730261D01*
X168578845Y-81699500D01*
X168578842Y-81699500D01*
X168421158Y-81699500D01*
X168421155Y-81699500D01*
X168266510Y-81730261D01*
X168266498Y-81730264D01*
X168120827Y-81790602D01*
X168120814Y-81790609D01*
X167989711Y-81878210D01*
X167989707Y-81878213D01*
X167878213Y-81989707D01*
X167878210Y-81989711D01*
X167790609Y-82120814D01*
X167790602Y-82120827D01*
X167730264Y-82266498D01*
X167730261Y-82266510D01*
X167699500Y-82421153D01*
X167699500Y-82578846D01*
X167730261Y-82733489D01*
X167730264Y-82733501D01*
X167790602Y-82879172D01*
X167790609Y-82879185D01*
X167878210Y-83010288D01*
X167878213Y-83010292D01*
X167989707Y-83121786D01*
X167989710Y-83121788D01*
X167989711Y-83121789D01*
X168015219Y-83138833D01*
X168027289Y-83146898D01*
X168072093Y-83200511D01*
X168080800Y-83269836D01*
X168050645Y-83332863D01*
X168027289Y-83353102D01*
X167989707Y-83378213D01*
X167878213Y-83489707D01*
X167878210Y-83489711D01*
X167790609Y-83620814D01*
X167790602Y-83620827D01*
X167730264Y-83766498D01*
X167730261Y-83766510D01*
X167699500Y-83921153D01*
X167699500Y-84078846D01*
X167730261Y-84233489D01*
X167730264Y-84233501D01*
X167790602Y-84379172D01*
X167790609Y-84379185D01*
X167878210Y-84510288D01*
X167878213Y-84510292D01*
X167989707Y-84621786D01*
X167989710Y-84621788D01*
X167989711Y-84621789D01*
X168015219Y-84638833D01*
X168027289Y-84646898D01*
X168072093Y-84700511D01*
X168080800Y-84769836D01*
X168050645Y-84832863D01*
X168027289Y-84853102D01*
X167989707Y-84878213D01*
X167878213Y-84989707D01*
X167878210Y-84989711D01*
X167790609Y-85120814D01*
X167790602Y-85120827D01*
X167730264Y-85266498D01*
X167730261Y-85266510D01*
X167699500Y-85421153D01*
X167699500Y-85578846D01*
X167730261Y-85733489D01*
X167730264Y-85733501D01*
X167790602Y-85879172D01*
X167790609Y-85879185D01*
X167878210Y-86010288D01*
X167878213Y-86010292D01*
X167989707Y-86121786D01*
X167989710Y-86121788D01*
X167989711Y-86121789D01*
X168015219Y-86138833D01*
X168027289Y-86146898D01*
X168072093Y-86200511D01*
X168080800Y-86269836D01*
X168050645Y-86332863D01*
X168027289Y-86353102D01*
X167989707Y-86378213D01*
X167878213Y-86489707D01*
X167878210Y-86489711D01*
X167790609Y-86620814D01*
X167790602Y-86620827D01*
X167730264Y-86766498D01*
X167730261Y-86766510D01*
X167699500Y-86921153D01*
X167699500Y-87078846D01*
X167730261Y-87233489D01*
X167730264Y-87233501D01*
X167790602Y-87379172D01*
X167790609Y-87379185D01*
X167878210Y-87510288D01*
X167878213Y-87510292D01*
X167989707Y-87621786D01*
X167989711Y-87621789D01*
X168120814Y-87709390D01*
X168120827Y-87709397D01*
X168263507Y-87768496D01*
X168266503Y-87769737D01*
X168382659Y-87792842D01*
X168421153Y-87800499D01*
X168421156Y-87800500D01*
X168421158Y-87800500D01*
X168578844Y-87800500D01*
X168578845Y-87800499D01*
X168733497Y-87769737D01*
X168879179Y-87709394D01*
X169010289Y-87621789D01*
X169121789Y-87510289D01*
X169129145Y-87499279D01*
X169146898Y-87472712D01*
X169200510Y-87427906D01*
X169269835Y-87419199D01*
X169332862Y-87449353D01*
X169353102Y-87472712D01*
X169378207Y-87510284D01*
X169378213Y-87510292D01*
X169489707Y-87621786D01*
X169489711Y-87621789D01*
X169620814Y-87709390D01*
X169620827Y-87709397D01*
X169763507Y-87768496D01*
X169766503Y-87769737D01*
X169882659Y-87792842D01*
X169921153Y-87800499D01*
X169921156Y-87800500D01*
X169921158Y-87800500D01*
X170078844Y-87800500D01*
X170078845Y-87800499D01*
X170233497Y-87769737D01*
X170233509Y-87769731D01*
X170239324Y-87767969D01*
X170240158Y-87770720D01*
X170260601Y-87768496D01*
X170293147Y-87763817D01*
X170295159Y-87764736D01*
X170297359Y-87764497D01*
X170326779Y-87779176D01*
X170356703Y-87792842D01*
X170357899Y-87794703D01*
X170359878Y-87795691D01*
X170376687Y-87823938D01*
X170394477Y-87851620D01*
X170394896Y-87854538D01*
X170395608Y-87855734D01*
X170399500Y-87886555D01*
X170399500Y-88113444D01*
X170379815Y-88180483D01*
X170327011Y-88226238D01*
X170257853Y-88236182D01*
X170239575Y-88231202D01*
X170239324Y-88232031D01*
X170233500Y-88230264D01*
X170233497Y-88230263D01*
X170233492Y-88230262D01*
X170233489Y-88230261D01*
X170078845Y-88199500D01*
X170078842Y-88199500D01*
X169921158Y-88199500D01*
X169921155Y-88199500D01*
X169766510Y-88230261D01*
X169766498Y-88230264D01*
X169620827Y-88290602D01*
X169620814Y-88290609D01*
X169489711Y-88378210D01*
X169489707Y-88378213D01*
X169378213Y-88489707D01*
X169378210Y-88489711D01*
X169290609Y-88620814D01*
X169290602Y-88620827D01*
X169230264Y-88766498D01*
X169230261Y-88766507D01*
X169220491Y-88815626D01*
X169188105Y-88877536D01*
X169127389Y-88912110D01*
X169057620Y-88908369D01*
X169015303Y-88881704D01*
X169014999Y-88882076D01*
X169012040Y-88879647D01*
X169011193Y-88879114D01*
X169010292Y-88878213D01*
X169010288Y-88878210D01*
X168879185Y-88790609D01*
X168879172Y-88790602D01*
X168733501Y-88730264D01*
X168733489Y-88730261D01*
X168578845Y-88699500D01*
X168578842Y-88699500D01*
X168421158Y-88699500D01*
X168421155Y-88699500D01*
X168266510Y-88730261D01*
X168266498Y-88730264D01*
X168120827Y-88790602D01*
X168120814Y-88790609D01*
X167989711Y-88878210D01*
X167989707Y-88878213D01*
X167878213Y-88989707D01*
X167878210Y-88989711D01*
X167790609Y-89120814D01*
X167790602Y-89120827D01*
X167730264Y-89266498D01*
X167730261Y-89266510D01*
X167699500Y-89421153D01*
X167699500Y-89578846D01*
X167730261Y-89733489D01*
X167730264Y-89733501D01*
X167790602Y-89879172D01*
X167790609Y-89879185D01*
X167878210Y-90010288D01*
X167878213Y-90010292D01*
X167989707Y-90121786D01*
X167989710Y-90121788D01*
X167989711Y-90121789D01*
X168015219Y-90138833D01*
X168027289Y-90146898D01*
X168072093Y-90200511D01*
X168080800Y-90269836D01*
X168050645Y-90332863D01*
X168027289Y-90353102D01*
X167989707Y-90378213D01*
X167878213Y-90489707D01*
X167878210Y-90489711D01*
X167790609Y-90620814D01*
X167790602Y-90620827D01*
X167730264Y-90766498D01*
X167730261Y-90766510D01*
X167699500Y-90921153D01*
X167699500Y-91078846D01*
X167730261Y-91233489D01*
X167730264Y-91233501D01*
X167790602Y-91379172D01*
X167790609Y-91379185D01*
X167878210Y-91510288D01*
X167878213Y-91510292D01*
X167989707Y-91621786D01*
X167989711Y-91621789D01*
X168120814Y-91709390D01*
X168120827Y-91709397D01*
X168266498Y-91769735D01*
X168266503Y-91769737D01*
X168396982Y-91795691D01*
X168421153Y-91800499D01*
X168421156Y-91800500D01*
X168421158Y-91800500D01*
X168578844Y-91800500D01*
X168578845Y-91800499D01*
X168733497Y-91769737D01*
X168879179Y-91709394D01*
X169010289Y-91621789D01*
X169121789Y-91510289D01*
X169129145Y-91499279D01*
X169146898Y-91472712D01*
X169200510Y-91427906D01*
X169269835Y-91419199D01*
X169332862Y-91449353D01*
X169353102Y-91472712D01*
X169378207Y-91510284D01*
X169378213Y-91510292D01*
X169489707Y-91621786D01*
X169489711Y-91621789D01*
X169620814Y-91709390D01*
X169620827Y-91709397D01*
X169766498Y-91769735D01*
X169766503Y-91769737D01*
X169896982Y-91795691D01*
X169921153Y-91800499D01*
X169921156Y-91800500D01*
X169921158Y-91800500D01*
X170078844Y-91800500D01*
X170078845Y-91800499D01*
X170233497Y-91769737D01*
X170233509Y-91769731D01*
X170239324Y-91767969D01*
X170240158Y-91770720D01*
X170297359Y-91764497D01*
X170359878Y-91795691D01*
X170395608Y-91855734D01*
X170399500Y-91886555D01*
X170399500Y-92275500D01*
X170379815Y-92342539D01*
X170327011Y-92388294D01*
X170275500Y-92399500D01*
X150724500Y-92399500D01*
X150657461Y-92379815D01*
X150611706Y-92327011D01*
X150600500Y-92275500D01*
X150600500Y-69224500D01*
X150620185Y-69157461D01*
X150672989Y-69111706D01*
X150724500Y-69100500D01*
X157740043Y-69100500D01*
X157807082Y-69120185D01*
G37*
%TD.AperFunction*%
%TD*%
M02*
