%TF.GenerationSoftware,KiCad,Pcbnew,9.0.2*%
%TF.CreationDate,2025-05-30T19:54:00-04:00*%
%TF.ProjectId,porton micro,706f7274-6f6e-4206-9d69-63726f2e6b69,rev?*%
%TF.SameCoordinates,Original*%
%TF.FileFunction,Copper,L1,Top*%
%TF.FilePolarity,Positive*%
%FSLAX46Y46*%
G04 Gerber Fmt 4.6, Leading zero omitted, Abs format (unit mm)*
G04 Created by KiCad (PCBNEW 9.0.2) date 2025-05-30 19:54:00*
%MOMM*%
%LPD*%
G01*
G04 APERTURE LIST*
G04 Aperture macros list*
%AMRoundRect*
0 Rectangle with rounded corners*
0 $1 Rounding radius*
0 $2 $3 $4 $5 $6 $7 $8 $9 X,Y pos of 4 corners*
0 Add a 4 corners polygon primitive as box body*
4,1,4,$2,$3,$4,$5,$6,$7,$8,$9,$2,$3,0*
0 Add four circle primitives for the rounded corners*
1,1,$1+$1,$2,$3*
1,1,$1+$1,$4,$5*
1,1,$1+$1,$6,$7*
1,1,$1+$1,$8,$9*
0 Add four rect primitives between the rounded corners*
20,1,$1+$1,$2,$3,$4,$5,0*
20,1,$1+$1,$4,$5,$6,$7,0*
20,1,$1+$1,$6,$7,$8,$9,0*
20,1,$1+$1,$8,$9,$2,$3,0*%
G04 Aperture macros list end*
%TA.AperFunction,SMDPad,CuDef*%
%ADD10R,1.800000X1.000000*%
%TD*%
%TA.AperFunction,SMDPad,CuDef*%
%ADD11RoundRect,0.062500X-0.350000X-0.062500X0.350000X-0.062500X0.350000X0.062500X-0.350000X0.062500X0*%
%TD*%
%TA.AperFunction,SMDPad,CuDef*%
%ADD12RoundRect,0.062500X-0.062500X-0.350000X0.062500X-0.350000X0.062500X0.350000X-0.062500X0.350000X0*%
%TD*%
%TA.AperFunction,HeatsinkPad*%
%ADD13R,2.500000X2.500000*%
%TD*%
%TA.AperFunction,SMDPad,CuDef*%
%ADD14RoundRect,0.135000X-0.135000X-0.185000X0.135000X-0.185000X0.135000X0.185000X-0.135000X0.185000X0*%
%TD*%
%TA.AperFunction,SMDPad,CuDef*%
%ADD15RoundRect,0.147500X-0.147500X-0.172500X0.147500X-0.172500X0.147500X0.172500X-0.147500X0.172500X0*%
%TD*%
%TA.AperFunction,SMDPad,CuDef*%
%ADD16RoundRect,0.147500X0.147500X0.172500X-0.147500X0.172500X-0.147500X-0.172500X0.147500X-0.172500X0*%
%TD*%
%TA.AperFunction,SMDPad,CuDef*%
%ADD17RoundRect,0.147500X0.172500X-0.147500X0.172500X0.147500X-0.172500X0.147500X-0.172500X-0.147500X0*%
%TD*%
%TA.AperFunction,SMDPad,CuDef*%
%ADD18RoundRect,0.147500X-0.172500X0.147500X-0.172500X-0.147500X0.172500X-0.147500X0.172500X0.147500X0*%
%TD*%
%TA.AperFunction,ComponentPad*%
%ADD19RoundRect,0.225000X-0.225000X-0.475000X0.225000X-0.475000X0.225000X0.475000X-0.225000X0.475000X0*%
%TD*%
%TA.AperFunction,ComponentPad*%
%ADD20O,0.900000X1.400000*%
%TD*%
%TA.AperFunction,SMDPad,CuDef*%
%ADD21RoundRect,0.140000X0.140000X0.170000X-0.140000X0.170000X-0.140000X-0.170000X0.140000X-0.170000X0*%
%TD*%
%TA.AperFunction,SMDPad,CuDef*%
%ADD22RoundRect,0.140000X-0.140000X-0.170000X0.140000X-0.170000X0.140000X0.170000X-0.140000X0.170000X0*%
%TD*%
%TA.AperFunction,SMDPad,CuDef*%
%ADD23RoundRect,0.140000X0.170000X-0.140000X0.170000X0.140000X-0.170000X0.140000X-0.170000X-0.140000X0*%
%TD*%
%TA.AperFunction,ViaPad*%
%ADD24C,0.600000*%
%TD*%
%TA.AperFunction,Conductor*%
%ADD25C,0.200000*%
%TD*%
G04 APERTURE END LIST*
D10*
%TO.P,Y1,1,1*%
%TO.N,Net-(U1-XC2)*%
X159500000Y-88500000D03*
%TO.P,Y1,2,2*%
%TO.N,Net-(U1-XC1)*%
X159500000Y-91000000D03*
%TD*%
D11*
%TO.P,U1,1,CE*%
%TO.N,Net-(J1-Pin_6)*%
X159187500Y-78625000D03*
%TO.P,U1,2,CSN*%
%TO.N,Net-(J1-Pin_5)*%
X159187500Y-79125000D03*
%TO.P,U1,3,SCK*%
%TO.N,Net-(J1-Pin_4)*%
X159187500Y-79625000D03*
%TO.P,U1,4,MOSI*%
%TO.N,Net-(J1-Pin_2)*%
X159187500Y-80125000D03*
%TO.P,U1,5,MISO*%
%TO.N,Net-(J1-Pin_3)*%
X159187500Y-80625000D03*
D12*
%TO.P,U1,6,IRQ*%
%TO.N,Net-(J1-Pin_7)*%
X160125000Y-81562500D03*
%TO.P,U1,7,VDD*%
%TO.N,VDD*%
X160625000Y-81562500D03*
%TO.P,U1,8,VSS*%
%TO.N,GND*%
X161125000Y-81562500D03*
%TO.P,U1,9,XC2*%
%TO.N,Net-(U1-XC2)*%
X161625000Y-81562500D03*
%TO.P,U1,10,XC1*%
%TO.N,Net-(U1-XC1)*%
X162125000Y-81562500D03*
D11*
%TO.P,U1,11,VDD_PA*%
%TO.N,Net-(U1-VDD_PA)*%
X163062500Y-80625000D03*
%TO.P,U1,12,ANT1*%
%TO.N,Net-(U1-ANT1)*%
X163062500Y-80125000D03*
%TO.P,U1,13,ANT2*%
%TO.N,Net-(U1-ANT2)*%
X163062500Y-79625000D03*
%TO.P,U1,14,VSS*%
%TO.N,GND*%
X163062500Y-79125000D03*
%TO.P,U1,15,VDD*%
%TO.N,VDD*%
X163062500Y-78625000D03*
D12*
%TO.P,U1,16,IREF*%
%TO.N,Net-(U1-IREF)*%
X162125000Y-77687500D03*
%TO.P,U1,17,VSS*%
%TO.N,GND*%
X161625000Y-77687500D03*
%TO.P,U1,18,VDD*%
%TO.N,VDD*%
X161125000Y-77687500D03*
%TO.P,U1,19,DVDD*%
%TO.N,Net-(U1-DVDD)*%
X160625000Y-77687500D03*
%TO.P,U1,20,VSS*%
%TO.N,GND*%
X160125000Y-77687500D03*
D13*
%TO.P,U1,21*%
%TO.N,N/C*%
X161125000Y-79625000D03*
%TD*%
D14*
%TO.P,R2,1*%
%TO.N,Net-(U1-XC1)*%
X154760000Y-89030000D03*
%TO.P,R2,2*%
%TO.N,Net-(U1-XC2)*%
X155780000Y-89030000D03*
%TD*%
D15*
%TO.P,L4,1,1*%
%TO.N,Net-(C10-Pad1)*%
X154785000Y-87040000D03*
%TO.P,L4,2,2*%
%TO.N,Net-(AE1-A)*%
X155755000Y-87040000D03*
%TD*%
D16*
%TO.P,L3,1,1*%
%TO.N,Net-(U1-ANT2)*%
X155500000Y-80500000D03*
%TO.P,L3,2,2*%
%TO.N,Net-(U1-VDD_PA)*%
X154530000Y-80500000D03*
%TD*%
D17*
%TO.P,L2,1,1*%
%TO.N,Net-(U1-ANT1)*%
X154500000Y-79470000D03*
%TO.P,L2,2,2*%
%TO.N,Net-(C7-Pad2)*%
X154500000Y-78500000D03*
%TD*%
D18*
%TO.P,L1,1,1*%
%TO.N,Net-(U1-ANT1)*%
X156500000Y-80030000D03*
%TO.P,L1,2,2*%
%TO.N,Net-(U1-ANT2)*%
X156500000Y-81000000D03*
%TD*%
D19*
%TO.P,J1,1,Pin_1*%
%TO.N,VDD*%
X158250000Y-70500000D03*
D20*
%TO.P,J1,2,Pin_2*%
%TO.N,Net-(J1-Pin_2)*%
X159500000Y-70500000D03*
%TO.P,J1,3,Pin_3*%
%TO.N,Net-(J1-Pin_3)*%
X160750000Y-70500000D03*
%TO.P,J1,4,Pin_4*%
%TO.N,Net-(J1-Pin_4)*%
X162000000Y-70500000D03*
%TO.P,J1,5,Pin_5*%
%TO.N,Net-(J1-Pin_5)*%
X163250000Y-70500000D03*
%TO.P,J1,6,Pin_6*%
%TO.N,Net-(J1-Pin_6)*%
X164500000Y-70500000D03*
%TO.P,J1,7,Pin_7*%
%TO.N,Net-(J1-Pin_7)*%
X165750000Y-70500000D03*
%TO.P,J1,8,Pin_8*%
%TO.N,GND*%
X167000000Y-70500000D03*
%TD*%
D21*
%TO.P,C11,1*%
%TO.N,Net-(AE1-A)*%
X152860000Y-88940000D03*
%TO.P,C11,2*%
%TO.N,GND*%
X151900000Y-88940000D03*
%TD*%
D22*
%TO.P,C10,1*%
%TO.N,Net-(C10-Pad1)*%
X151900000Y-86970000D03*
%TO.P,C10,2*%
%TO.N,GND*%
X152860000Y-86970000D03*
%TD*%
%TO.P,C9,1*%
%TO.N,Net-(C10-Pad1)*%
X151900000Y-85000000D03*
%TO.P,C9,2*%
%TO.N,GND*%
X152860000Y-85000000D03*
%TD*%
D21*
%TO.P,C8,1*%
%TO.N,Net-(U1-VDD_PA)*%
X153980000Y-82500000D03*
%TO.P,C8,2*%
%TO.N,GND*%
X153020000Y-82500000D03*
%TD*%
D22*
%TO.P,C7,1*%
%TO.N,Net-(C10-Pad1)*%
X152040000Y-79000000D03*
%TO.P,C7,2*%
%TO.N,Net-(C7-Pad2)*%
X153000000Y-79000000D03*
%TD*%
D21*
%TO.P,C6,1*%
%TO.N,Net-(U1-VDD_PA)*%
X155000000Y-84000000D03*
%TO.P,C6,2*%
%TO.N,GND*%
X154040000Y-84000000D03*
%TD*%
%TO.P,C5,1*%
%TO.N,Net-(U1-XC1)*%
X153500000Y-90500000D03*
%TO.P,C5,2*%
%TO.N,GND*%
X152540000Y-90500000D03*
%TD*%
D23*
%TO.P,C4,1*%
%TO.N,Net-(U1-XC2)*%
X157520000Y-85480000D03*
%TO.P,C4,2*%
%TO.N,GND*%
X157520000Y-84520000D03*
%TD*%
D22*
%TO.P,C3,1*%
%TO.N,Net-(U1-DVDD)*%
X168540000Y-74500000D03*
%TO.P,C3,2*%
%TO.N,GND*%
X169500000Y-74500000D03*
%TD*%
%TO.P,C2,1*%
%TO.N,VDD*%
X152040000Y-78000000D03*
%TO.P,C2,2*%
%TO.N,GND*%
X153000000Y-78000000D03*
%TD*%
%TO.P,C1,1*%
%TO.N,VDD*%
X152040000Y-76500000D03*
%TO.P,C1,2*%
%TO.N,GND*%
X153000000Y-76500000D03*
%TD*%
D24*
%TO.N,*%
X168500000Y-77500000D03*
X168500000Y-79000000D03*
X168500000Y-80500000D03*
X168500000Y-82500000D03*
X168500000Y-84000000D03*
X168500000Y-85500000D03*
X168500000Y-87000000D03*
X168500000Y-89500000D03*
X168500000Y-91000000D03*
X170000000Y-91000000D03*
X170000000Y-89000000D03*
X170000000Y-87000000D03*
X170000000Y-85500000D03*
X170000000Y-84000000D03*
X170000000Y-82500000D03*
X170000000Y-80500000D03*
X170000000Y-79000000D03*
X170000000Y-77500000D03*
%TO.N,VDD*%
X162817102Y-75500000D03*
X163000000Y-73500000D03*
X165000000Y-77500000D03*
%TO.N,Net-(J1-Pin_7)*%
X158934313Y-82400000D03*
%TO.N,GND*%
X169000000Y-73000000D03*
%TO.N,Net-(J1-Pin_3)*%
X158000000Y-80500000D03*
%TO.N,Net-(J1-Pin_4)*%
X157301351Y-79724999D03*
%TO.N,Net-(J1-Pin_5)*%
X156500000Y-79000000D03*
%TO.N,Net-(J1-Pin_6)*%
X159000000Y-76000000D03*
%TO.N,Net-(U1-ANT2)*%
X163500000Y-85000000D03*
X156500000Y-83000000D03*
%TO.N,Net-(U1-ANT1)*%
X163000000Y-83500000D03*
X159500000Y-83000000D03*
%TD*%
D25*
%TO.N,Net-(J1-Pin_2)*%
X159500000Y-70500000D02*
X159500000Y-70299890D01*
%TO.N,VDD*%
X158500000Y-73000000D02*
X159000000Y-73500000D01*
X158250000Y-72750000D02*
X158500000Y-73000000D01*
X159000000Y-73500000D02*
X163000000Y-73500000D01*
X158250000Y-70500000D02*
X158250000Y-72750000D01*
X158250000Y-70500000D02*
X158250000Y-71200000D01*
X163875000Y-78625000D02*
X165000000Y-77500000D01*
X163062500Y-78625000D02*
X163875000Y-78625000D01*
X161125000Y-77192102D02*
X162817102Y-75500000D01*
X161125000Y-77687500D02*
X161125000Y-77192102D01*
%TO.N,Net-(U1-DVDD)*%
X162000000Y-74500000D02*
X168540000Y-74500000D01*
X160500000Y-76000000D02*
X162000000Y-74500000D01*
X160625000Y-76125000D02*
X160500000Y-76000000D01*
X160625000Y-77687500D02*
X160625000Y-76125000D01*
%TO.N,GND*%
X162384202Y-76500000D02*
X167500000Y-76500000D01*
X161625000Y-77259202D02*
X162384202Y-76500000D01*
X161625000Y-77687500D02*
X161625000Y-77259202D01*
X169500000Y-74500000D02*
X167500000Y-76500000D01*
%TO.N,Net-(J1-Pin_7)*%
X159287500Y-82400000D02*
X160125000Y-81562500D01*
X158934313Y-82400000D02*
X159287500Y-82400000D01*
%TO.N,GND*%
X169500000Y-73500000D02*
X169000000Y-73000000D01*
X169500000Y-74500000D02*
X169500000Y-73500000D01*
%TO.N,Net-(J1-Pin_3)*%
X158125000Y-80625000D02*
X158000000Y-80500000D01*
X159187500Y-80625000D02*
X158125000Y-80625000D01*
%TO.N,Net-(J1-Pin_4)*%
X157401350Y-79625000D02*
X157301351Y-79724999D01*
X159187500Y-79625000D02*
X157401350Y-79625000D01*
%TO.N,Net-(J1-Pin_5)*%
X156625000Y-79125000D02*
X156500000Y-79000000D01*
X159187500Y-79125000D02*
X156625000Y-79125000D01*
%TO.N,Net-(J1-Pin_6)*%
X157000000Y-77500000D02*
X158500000Y-76000000D01*
X158500000Y-76000000D02*
X159000000Y-76000000D01*
X157000000Y-78000000D02*
X157000000Y-77500000D01*
X157625000Y-78625000D02*
X157000000Y-78000000D01*
X159187500Y-78625000D02*
X157625000Y-78625000D01*
X159187500Y-78625000D02*
X159125000Y-78625000D01*
%TO.N,Net-(U1-ANT2)*%
X163557898Y-79625000D02*
X164401000Y-80468102D01*
X164401000Y-84099000D02*
X164000000Y-84500000D01*
X163062500Y-79625000D02*
X163557898Y-79625000D01*
X164000000Y-84500000D02*
X163500000Y-85000000D01*
X164401000Y-80468102D02*
X164401000Y-84099000D01*
X156500000Y-81000000D02*
X156500000Y-83000000D01*
%TO.N,Net-(U1-ANT1)*%
X163500000Y-83000000D02*
X163000000Y-83500000D01*
X164000000Y-82500000D02*
X163500000Y-83000000D01*
X164000000Y-80634202D02*
X164000000Y-82500000D01*
X163062500Y-80125000D02*
X163490798Y-80125000D01*
X163490798Y-80125000D02*
X164000000Y-80634202D01*
X159500000Y-83000000D02*
X159575735Y-83075735D01*
%TO.N,GND*%
X164875000Y-79125000D02*
X163062500Y-79125000D01*
X167500000Y-76500000D02*
X164875000Y-79125000D01*
X161125000Y-82875000D02*
X161125000Y-81562500D01*
X159480000Y-84520000D02*
X161125000Y-82875000D01*
X157520000Y-84520000D02*
X159480000Y-84520000D01*
%TO.N,Net-(U1-XC2)*%
X161625000Y-84875000D02*
X161625000Y-81562500D01*
X157520000Y-85480000D02*
X161020000Y-85480000D01*
X161020000Y-85480000D02*
X161625000Y-84875000D01*
%TO.N,Net-(U1-XC1)*%
X162125000Y-88375000D02*
X162125000Y-81562500D01*
X159500000Y-91000000D02*
X162125000Y-88375000D01*
%TO.N,Net-(U1-XC2)*%
X157520000Y-87290000D02*
X158290000Y-87290000D01*
X158290000Y-87290000D02*
X159500000Y-88500000D01*
%TO.N,Net-(U1-XC1)*%
X156730000Y-91000000D02*
X159500000Y-91000000D01*
X154760000Y-89030000D02*
X156730000Y-91000000D01*
%TO.N,Net-(U1-ANT1)*%
X155940000Y-79470000D02*
X156500000Y-80030000D01*
X154500000Y-79470000D02*
X155940000Y-79470000D01*
%TO.N,Net-(U1-ANT2)*%
X156000000Y-80500000D02*
X156500000Y-81000000D01*
X155500000Y-80500000D02*
X156000000Y-80500000D01*
%TO.N,GND*%
X153000000Y-78000000D02*
X153000000Y-78389000D01*
X153000000Y-76500000D02*
X153000000Y-78000000D01*
%TO.N,Net-(C7-Pad2)*%
X153000000Y-79000000D02*
X153000000Y-81889000D01*
X154000000Y-79000000D02*
X154500000Y-78500000D01*
X153000000Y-79000000D02*
X154000000Y-79000000D01*
%TO.N,Net-(U1-VDD_PA)*%
X154530000Y-81950000D02*
X153980000Y-82500000D01*
X154530000Y-80500000D02*
X154530000Y-81950000D01*
X153980000Y-82980000D02*
X155000000Y-84000000D01*
X153980000Y-82500000D02*
X153980000Y-82980000D01*
%TO.N,GND*%
X153020000Y-82980000D02*
X154040000Y-84000000D01*
X153020000Y-82500000D02*
X153020000Y-82980000D01*
X153040000Y-85000000D02*
X154040000Y-84000000D01*
X152860000Y-85000000D02*
X153040000Y-85000000D01*
X154651000Y-84611000D02*
X154040000Y-84000000D01*
X157429000Y-84611000D02*
X154651000Y-84611000D01*
X157520000Y-84520000D02*
X157429000Y-84611000D01*
%TO.N,Net-(U1-XC2)*%
X155780000Y-89030000D02*
X157520000Y-87290000D01*
X157520000Y-87290000D02*
X157520000Y-85480000D01*
%TO.N,Net-(U1-XC1)*%
X154760000Y-89030000D02*
X154760000Y-89240000D01*
X154760000Y-89240000D02*
X153500000Y-90500000D01*
%TO.N,Net-(AE1-A)*%
X153855000Y-88940000D02*
X155755000Y-87040000D01*
X152860000Y-88940000D02*
X153855000Y-88940000D01*
%TO.N,GND*%
X151900000Y-89860000D02*
X152540000Y-90500000D01*
X151900000Y-88940000D02*
X151900000Y-89860000D01*
X152860000Y-87980000D02*
X151900000Y-88940000D01*
X152860000Y-86970000D02*
X152860000Y-87980000D01*
X152860000Y-85000000D02*
X152860000Y-86970000D01*
%TO.N,Net-(C10-Pad1)*%
X151900000Y-85000000D02*
X151900000Y-86970000D01*
X152040000Y-84860000D02*
X151900000Y-85000000D01*
X152040000Y-79000000D02*
X152040000Y-84860000D01*
%TO.N,VDD*%
X152040000Y-76500000D02*
X152040000Y-78000000D01*
X158040000Y-70500000D02*
X158250000Y-70500000D01*
X152040000Y-76500000D02*
X158040000Y-70500000D01*
%TO.N,Net-(U1-ANT1)*%
X156500000Y-80030000D02*
X158000000Y-81530000D01*
X158000000Y-83000000D02*
X159500000Y-83000000D01*
X158000000Y-81530000D02*
X158000000Y-83000000D01*
%TO.N,Net-(J1-Pin_2)*%
X159500000Y-70299890D02*
X158699110Y-69499000D01*
%TD*%
%TA.AperFunction,Conductor*%
%TO.N,GND*%
G36*
X158146075Y-69019685D02*
G01*
X158191830Y-69072489D01*
X158201774Y-69141647D01*
X158186422Y-69186002D01*
X158156687Y-69237502D01*
X158106119Y-69285717D01*
X158049303Y-69299500D01*
X157976663Y-69299500D01*
X157976644Y-69299501D01*
X157877292Y-69309650D01*
X157877289Y-69309651D01*
X157716305Y-69362996D01*
X157716294Y-69363001D01*
X157571959Y-69452029D01*
X157571955Y-69452032D01*
X157452032Y-69571955D01*
X157452029Y-69571959D01*
X157363001Y-69716294D01*
X157362996Y-69716305D01*
X157309651Y-69877290D01*
X157299500Y-69976647D01*
X157299500Y-70339902D01*
X157279815Y-70406941D01*
X157263181Y-70427583D01*
X152037584Y-75653181D01*
X151976261Y-75686666D01*
X151949903Y-75689500D01*
X151835302Y-75689500D01*
X151799008Y-75692356D01*
X151799002Y-75692357D01*
X151643609Y-75737504D01*
X151643606Y-75737505D01*
X151504315Y-75819881D01*
X151504307Y-75819887D01*
X151389887Y-75934307D01*
X151389881Y-75934315D01*
X151307505Y-76073606D01*
X151307504Y-76073609D01*
X151262357Y-76229002D01*
X151262356Y-76229008D01*
X151259500Y-76265302D01*
X151259500Y-76734697D01*
X151262356Y-76770991D01*
X151262357Y-76770997D01*
X151307504Y-76926390D01*
X151307505Y-76926393D01*
X151382717Y-77053571D01*
X151389883Y-77065687D01*
X151403180Y-77078984D01*
X151417887Y-77105917D01*
X151434477Y-77131731D01*
X151435368Y-77137928D01*
X151436666Y-77140305D01*
X151439500Y-77166666D01*
X151439500Y-77333333D01*
X151419815Y-77400372D01*
X151403181Y-77421014D01*
X151389887Y-77434307D01*
X151389881Y-77434315D01*
X151307505Y-77573606D01*
X151307504Y-77573609D01*
X151262357Y-77729002D01*
X151262356Y-77729008D01*
X151259500Y-77765302D01*
X151259500Y-78234697D01*
X151262356Y-78270991D01*
X151262357Y-78270997D01*
X151307505Y-78426394D01*
X151313708Y-78436884D01*
X151330887Y-78504608D01*
X151313708Y-78563116D01*
X151307505Y-78573605D01*
X151262357Y-78729002D01*
X151262356Y-78729008D01*
X151259500Y-78765302D01*
X151259500Y-79234697D01*
X151262356Y-79270991D01*
X151262357Y-79270997D01*
X151307504Y-79426390D01*
X151307505Y-79426393D01*
X151357122Y-79510292D01*
X151389883Y-79565687D01*
X151403180Y-79578984D01*
X151436666Y-79640305D01*
X151439500Y-79666666D01*
X151439500Y-84204689D01*
X151419815Y-84271728D01*
X151378623Y-84311420D01*
X151364310Y-84319884D01*
X151364310Y-84319885D01*
X151249887Y-84434307D01*
X151249881Y-84434315D01*
X151167505Y-84573606D01*
X151167504Y-84573609D01*
X151122357Y-84729002D01*
X151122356Y-84729008D01*
X151119500Y-84765302D01*
X151119500Y-85234697D01*
X151122356Y-85270991D01*
X151122357Y-85270997D01*
X151167504Y-85426390D01*
X151167505Y-85426393D01*
X151217122Y-85510292D01*
X151249883Y-85565687D01*
X151263180Y-85578984D01*
X151296666Y-85640305D01*
X151299500Y-85666666D01*
X151299500Y-86303333D01*
X151279815Y-86370372D01*
X151263181Y-86391014D01*
X151249887Y-86404307D01*
X151249881Y-86404315D01*
X151167505Y-86543606D01*
X151167504Y-86543609D01*
X151122357Y-86699002D01*
X151122356Y-86699008D01*
X151119500Y-86735302D01*
X151119500Y-87204697D01*
X151122356Y-87240991D01*
X151122357Y-87240997D01*
X151167504Y-87396390D01*
X151167505Y-87396393D01*
X151249881Y-87535684D01*
X151249887Y-87535692D01*
X151364307Y-87650112D01*
X151364311Y-87650115D01*
X151364313Y-87650117D01*
X151503605Y-87732494D01*
X151544587Y-87744400D01*
X151659002Y-87777642D01*
X151659005Y-87777642D01*
X151659007Y-87777643D01*
X151695310Y-87780500D01*
X151695318Y-87780500D01*
X152104682Y-87780500D01*
X152104690Y-87780500D01*
X152140993Y-87777643D01*
X152140995Y-87777642D01*
X152140997Y-87777642D01*
X152209760Y-87757664D01*
X152296395Y-87732494D01*
X152317369Y-87720089D01*
X152385088Y-87702906D01*
X152443613Y-87720090D01*
X152463803Y-87732031D01*
X152610000Y-87774504D01*
X152610000Y-87774503D01*
X153110000Y-87774503D01*
X153256195Y-87732031D01*
X153395374Y-87649721D01*
X153395383Y-87649714D01*
X153509714Y-87535383D01*
X153509721Y-87535374D01*
X153592031Y-87396195D01*
X153592033Y-87396190D01*
X153637144Y-87240918D01*
X153637145Y-87240912D01*
X153638790Y-87220000D01*
X153110000Y-87220000D01*
X153110000Y-87774503D01*
X152610000Y-87774503D01*
X152610000Y-87468352D01*
X152627267Y-87405233D01*
X152632494Y-87396395D01*
X152665978Y-87281146D01*
X152677642Y-87240997D01*
X152677643Y-87240991D01*
X152677649Y-87240912D01*
X152680500Y-87204690D01*
X152680500Y-86735310D01*
X152677643Y-86699007D01*
X152654929Y-86620827D01*
X152632495Y-86543608D01*
X152632492Y-86543600D01*
X152627266Y-86534763D01*
X152610000Y-86471645D01*
X152610000Y-86170721D01*
X152601982Y-86165494D01*
X153110000Y-86165494D01*
X153110000Y-86720000D01*
X153638790Y-86720000D01*
X153637145Y-86699089D01*
X153592031Y-86543804D01*
X153509721Y-86404625D01*
X153509714Y-86404616D01*
X153395383Y-86290285D01*
X153395374Y-86290278D01*
X153256193Y-86207967D01*
X153256190Y-86207965D01*
X153110001Y-86165493D01*
X153110000Y-86165494D01*
X152601982Y-86165494D01*
X152556783Y-86136030D01*
X152545336Y-86122645D01*
X152530551Y-86113082D01*
X152523102Y-86096645D01*
X152511373Y-86082930D01*
X152508980Y-86065482D01*
X152501711Y-86049442D01*
X152500500Y-86032153D01*
X152500500Y-85937845D01*
X152520185Y-85870806D01*
X152572989Y-85825051D01*
X152584919Y-85823335D01*
X152610000Y-85804504D01*
X152610000Y-85804503D01*
X153110000Y-85804503D01*
X153256195Y-85762031D01*
X153395374Y-85679721D01*
X153395383Y-85679714D01*
X153509714Y-85565383D01*
X153509721Y-85565374D01*
X153592031Y-85426195D01*
X153592033Y-85426190D01*
X153637144Y-85270918D01*
X153637145Y-85270912D01*
X153638790Y-85250000D01*
X153110000Y-85250000D01*
X153110000Y-85804503D01*
X152610000Y-85804503D01*
X152610000Y-85498352D01*
X152627267Y-85435233D01*
X152632494Y-85426395D01*
X152662896Y-85321754D01*
X152677642Y-85270997D01*
X152677643Y-85270991D01*
X152677997Y-85266498D01*
X152680500Y-85234690D01*
X152680500Y-84765310D01*
X152677643Y-84729007D01*
X152669900Y-84702357D01*
X152645424Y-84618109D01*
X152640500Y-84583514D01*
X152640500Y-84253741D01*
X153110000Y-84253741D01*
X153110000Y-84750000D01*
X153671480Y-84750000D01*
X153738519Y-84769685D01*
X153769594Y-84798575D01*
X153790000Y-84804504D01*
X153790000Y-84250000D01*
X153230439Y-84250000D01*
X153110000Y-84253741D01*
X152640500Y-84253741D01*
X152640500Y-83432033D01*
X152660185Y-83364994D01*
X152712989Y-83319239D01*
X152759231Y-83312590D01*
X152770000Y-83304504D01*
X152770000Y-82624000D01*
X152772550Y-82615314D01*
X152771262Y-82606353D01*
X152782240Y-82582312D01*
X152789685Y-82556961D01*
X152796525Y-82551033D01*
X152800287Y-82542797D01*
X152822521Y-82528507D01*
X152842489Y-82511206D01*
X152853003Y-82508918D01*
X152859065Y-82505023D01*
X152894000Y-82500000D01*
X153075500Y-82500000D01*
X153142539Y-82519685D01*
X153188294Y-82572489D01*
X153199500Y-82624000D01*
X153199500Y-82734697D01*
X153202356Y-82770991D01*
X153202357Y-82770997D01*
X153247503Y-82926389D01*
X153247505Y-82926393D01*
X153247506Y-82926395D01*
X153252732Y-82935233D01*
X153270000Y-82998352D01*
X153270000Y-83304505D01*
X153317768Y-83340371D01*
X153359559Y-83396364D01*
X153364443Y-83466063D01*
X153350048Y-83502651D01*
X153307967Y-83573806D01*
X153307966Y-83573809D01*
X153262855Y-83729081D01*
X153262854Y-83729087D01*
X153261209Y-83749999D01*
X153261210Y-83750000D01*
X153849403Y-83750000D01*
X153878843Y-83758644D01*
X153908830Y-83765168D01*
X153913845Y-83768922D01*
X153916442Y-83769685D01*
X153937084Y-83786319D01*
X154003681Y-83852916D01*
X154037166Y-83914239D01*
X154040000Y-83940597D01*
X154040000Y-84000000D01*
X154095500Y-84000000D01*
X154162539Y-84019685D01*
X154208294Y-84072489D01*
X154219500Y-84124000D01*
X154219500Y-84234697D01*
X154222356Y-84270991D01*
X154222357Y-84270997D01*
X154267503Y-84426389D01*
X154267505Y-84426393D01*
X154267506Y-84426395D01*
X154272732Y-84435233D01*
X154290000Y-84498352D01*
X154290000Y-84804503D01*
X154436194Y-84762032D01*
X154456384Y-84750091D01*
X154524108Y-84732906D01*
X154582629Y-84750089D01*
X154603605Y-84762494D01*
X154628876Y-84769836D01*
X154759002Y-84807642D01*
X154759005Y-84807642D01*
X154759007Y-84807643D01*
X154795310Y-84810500D01*
X154795318Y-84810500D01*
X155204682Y-84810500D01*
X155204690Y-84810500D01*
X155240993Y-84807643D01*
X155240995Y-84807642D01*
X155240997Y-84807642D01*
X155300178Y-84790448D01*
X155396395Y-84762494D01*
X155535687Y-84680117D01*
X155650117Y-84565687D01*
X155732494Y-84426395D01*
X155776358Y-84275417D01*
X155777642Y-84270997D01*
X155777643Y-84270991D01*
X155777742Y-84269737D01*
X155780500Y-84234690D01*
X155780500Y-83765310D01*
X155777643Y-83729007D01*
X155777146Y-83722690D01*
X155778441Y-83722588D01*
X155785031Y-83659951D01*
X155828747Y-83605447D01*
X155894990Y-83583230D01*
X155962729Y-83600355D01*
X155987381Y-83619460D01*
X155989707Y-83621786D01*
X155989711Y-83621789D01*
X156120814Y-83709390D01*
X156120827Y-83709397D01*
X156266377Y-83769685D01*
X156266503Y-83769737D01*
X156382091Y-83792729D01*
X156421153Y-83800499D01*
X156421156Y-83800500D01*
X156421158Y-83800500D01*
X156578844Y-83800500D01*
X156650134Y-83786319D01*
X156733497Y-83769737D01*
X156733500Y-83769735D01*
X156734117Y-83769613D01*
X156803708Y-83775840D01*
X156858886Y-83818702D01*
X156882131Y-83884592D01*
X156866064Y-83952589D01*
X156845994Y-83978907D01*
X156840287Y-83984613D01*
X156840278Y-83984625D01*
X156757968Y-84123804D01*
X156715496Y-84270000D01*
X157270000Y-84270000D01*
X157270000Y-83741210D01*
X157269999Y-83741209D01*
X157249087Y-83742854D01*
X157249084Y-83742855D01*
X157205631Y-83755479D01*
X157135762Y-83755278D01*
X157077092Y-83717335D01*
X157048250Y-83653697D01*
X157058392Y-83584567D01*
X157083358Y-83548720D01*
X157121786Y-83510292D01*
X157121789Y-83510289D01*
X157209394Y-83379179D01*
X157245227Y-83292667D01*
X157289067Y-83238266D01*
X157355361Y-83216200D01*
X157423060Y-83233479D01*
X157467175Y-83278121D01*
X157519477Y-83368712D01*
X157519479Y-83368715D01*
X157519480Y-83368716D01*
X157631284Y-83480520D01*
X157744473Y-83545869D01*
X157792687Y-83596434D01*
X157805911Y-83665041D01*
X157779943Y-83729906D01*
X157770000Y-83740675D01*
X157770000Y-84270000D01*
X158324504Y-84270000D01*
X158282031Y-84123804D01*
X158199721Y-83984625D01*
X158199714Y-83984616D01*
X158085383Y-83870285D01*
X158085374Y-83870278D01*
X158019350Y-83831232D01*
X157971666Y-83780163D01*
X157959163Y-83711421D01*
X157985808Y-83646832D01*
X158043144Y-83606902D01*
X158082471Y-83600500D01*
X158920234Y-83600500D01*
X158987273Y-83620185D01*
X158989125Y-83621398D01*
X159120814Y-83709390D01*
X159120827Y-83709397D01*
X159266377Y-83769685D01*
X159266503Y-83769737D01*
X159382091Y-83792729D01*
X159421153Y-83800499D01*
X159421156Y-83800500D01*
X159421158Y-83800500D01*
X159578844Y-83800500D01*
X159578845Y-83800499D01*
X159733497Y-83769737D01*
X159860008Y-83717335D01*
X159879172Y-83709397D01*
X159879172Y-83709396D01*
X159879179Y-83709394D01*
X160010289Y-83621789D01*
X160121789Y-83510289D01*
X160209394Y-83379179D01*
X160213728Y-83368717D01*
X160254685Y-83269836D01*
X160269737Y-83233497D01*
X160300500Y-83078842D01*
X160300500Y-82921158D01*
X160300500Y-82921155D01*
X160300499Y-82921153D01*
X160282658Y-82831462D01*
X160269737Y-82766503D01*
X160214929Y-82634185D01*
X160212574Y-82612280D01*
X160205578Y-82591385D01*
X160208912Y-82578220D01*
X160207461Y-82564717D01*
X160217324Y-82545011D01*
X160222735Y-82523654D01*
X160232656Y-82514382D01*
X160238736Y-82502238D01*
X160257685Y-82490994D01*
X160273785Y-82475951D01*
X160293004Y-82470039D01*
X160298825Y-82466586D01*
X160307253Y-82464744D01*
X160310251Y-82464197D01*
X160334472Y-82461009D01*
X160339761Y-82458817D01*
X160352762Y-82456448D01*
X160374849Y-82458782D01*
X160396925Y-82456392D01*
X160407514Y-82459501D01*
X160407674Y-82458905D01*
X160415524Y-82461008D01*
X160415526Y-82461008D01*
X160415528Y-82461009D01*
X160525599Y-82475500D01*
X160724400Y-82475499D01*
X160724401Y-82475499D01*
X160741087Y-82473302D01*
X160834472Y-82461009D01*
X160834475Y-82461007D01*
X160842326Y-82458905D01*
X160843158Y-82462012D01*
X160897583Y-82456122D01*
X160902122Y-82457025D01*
X160926969Y-82462454D01*
X160953221Y-82476820D01*
X160980581Y-82488923D01*
X160983542Y-82493412D01*
X160988262Y-82495995D01*
X161002578Y-82522270D01*
X161019053Y-82547247D01*
X161020140Y-82554505D01*
X161021690Y-82557349D01*
X161021323Y-82562401D01*
X161024500Y-82583596D01*
X161024500Y-84574903D01*
X161004815Y-84641942D01*
X160988181Y-84662584D01*
X160807584Y-84843181D01*
X160746261Y-84876666D01*
X160719903Y-84879500D01*
X158457844Y-84879500D01*
X158390805Y-84859815D01*
X158345050Y-84807011D01*
X158343334Y-84795078D01*
X158324505Y-84770000D01*
X158018352Y-84770000D01*
X157955233Y-84752732D01*
X157946395Y-84747506D01*
X157946393Y-84747505D01*
X157946389Y-84747503D01*
X157790997Y-84702357D01*
X157790991Y-84702356D01*
X157754697Y-84699500D01*
X157754690Y-84699500D01*
X157285310Y-84699500D01*
X157285302Y-84699500D01*
X157249008Y-84702356D01*
X157249002Y-84702357D01*
X157093610Y-84747503D01*
X157093605Y-84747506D01*
X157084766Y-84752732D01*
X157021648Y-84770000D01*
X156715496Y-84770000D01*
X156757968Y-84916194D01*
X156769911Y-84936389D01*
X156787092Y-85004113D01*
X156769911Y-85062628D01*
X156757506Y-85083604D01*
X156757504Y-85083609D01*
X156712357Y-85239002D01*
X156712356Y-85239008D01*
X156709500Y-85275302D01*
X156709500Y-85684697D01*
X156712356Y-85720991D01*
X156712357Y-85720997D01*
X156757504Y-85876390D01*
X156757505Y-85876393D01*
X156757506Y-85876395D01*
X156793847Y-85937845D01*
X156839881Y-86015684D01*
X156839887Y-86015692D01*
X156883180Y-86058984D01*
X156916666Y-86120307D01*
X156919500Y-86146666D01*
X156919500Y-86989901D01*
X156910855Y-87019341D01*
X156904332Y-87049328D01*
X156900577Y-87054343D01*
X156899815Y-87056940D01*
X156883181Y-87077582D01*
X156762181Y-87198582D01*
X156700858Y-87232067D01*
X156631166Y-87227083D01*
X156575233Y-87185211D01*
X156550816Y-87119747D01*
X156550500Y-87110901D01*
X156550500Y-86802067D01*
X156550499Y-86802052D01*
X156549765Y-86792729D01*
X156547609Y-86765325D01*
X156538888Y-86735307D01*
X156501933Y-86608107D01*
X156501931Y-86608104D01*
X156501931Y-86608103D01*
X156418590Y-86467180D01*
X156418588Y-86467178D01*
X156418585Y-86467174D01*
X156302825Y-86351414D01*
X156302817Y-86351408D01*
X156161895Y-86268068D01*
X156161892Y-86268066D01*
X156004679Y-86222391D01*
X156004673Y-86222390D01*
X155967947Y-86219500D01*
X155967940Y-86219500D01*
X155542060Y-86219500D01*
X155542052Y-86219500D01*
X155505326Y-86222390D01*
X155505320Y-86222391D01*
X155348105Y-86268067D01*
X155333117Y-86276931D01*
X155265392Y-86294110D01*
X155206883Y-86276931D01*
X155191894Y-86268067D01*
X155034679Y-86222391D01*
X155034673Y-86222390D01*
X154997947Y-86219500D01*
X154997940Y-86219500D01*
X154572060Y-86219500D01*
X154572052Y-86219500D01*
X154535326Y-86222390D01*
X154535320Y-86222391D01*
X154378107Y-86268066D01*
X154378104Y-86268068D01*
X154237182Y-86351408D01*
X154237174Y-86351414D01*
X154121414Y-86467174D01*
X154121408Y-86467182D01*
X154038068Y-86608104D01*
X154038066Y-86608107D01*
X153992391Y-86765320D01*
X153992390Y-86765326D01*
X153989500Y-86802052D01*
X153989500Y-87277947D01*
X153992390Y-87314673D01*
X153992391Y-87314679D01*
X154038066Y-87471892D01*
X154038068Y-87471895D01*
X154038069Y-87471897D01*
X154060771Y-87510284D01*
X154121408Y-87612817D01*
X154121414Y-87612825D01*
X154139495Y-87630906D01*
X154172980Y-87692229D01*
X154167996Y-87761921D01*
X154139495Y-87806268D01*
X153642584Y-88303181D01*
X153615656Y-88317884D01*
X153589838Y-88334477D01*
X153583637Y-88335368D01*
X153581261Y-88336666D01*
X153554903Y-88339500D01*
X153526666Y-88339500D01*
X153459627Y-88319815D01*
X153438984Y-88303180D01*
X153395692Y-88259887D01*
X153395684Y-88259881D01*
X153277371Y-88189911D01*
X153256395Y-88177506D01*
X153256394Y-88177505D01*
X153256393Y-88177505D01*
X153256390Y-88177504D01*
X153100997Y-88132357D01*
X153100991Y-88132356D01*
X153064697Y-88129500D01*
X153064690Y-88129500D01*
X152655310Y-88129500D01*
X152655302Y-88129500D01*
X152619008Y-88132356D01*
X152619002Y-88132357D01*
X152463609Y-88177504D01*
X152463604Y-88177506D01*
X152442628Y-88189911D01*
X152374903Y-88207092D01*
X152316389Y-88189911D01*
X152296191Y-88177966D01*
X152296190Y-88177965D01*
X152150001Y-88135493D01*
X152150000Y-88135494D01*
X152150000Y-88441645D01*
X152132734Y-88504763D01*
X152127507Y-88513600D01*
X152127504Y-88513608D01*
X152082357Y-88669002D01*
X152082356Y-88669008D01*
X152079500Y-88705302D01*
X152079500Y-89174697D01*
X152082356Y-89210991D01*
X152082357Y-89210997D01*
X152127503Y-89366389D01*
X152127505Y-89366393D01*
X152127506Y-89366395D01*
X152132732Y-89375233D01*
X152150000Y-89438352D01*
X152150000Y-89756000D01*
X152130315Y-89823039D01*
X152077511Y-89868794D01*
X152026000Y-89880000D01*
X151944904Y-89880000D01*
X151890282Y-89934620D01*
X151890278Y-89934625D01*
X151807968Y-90073804D01*
X151807966Y-90073809D01*
X151762855Y-90229081D01*
X151762854Y-90229087D01*
X151761209Y-90249999D01*
X151761210Y-90250000D01*
X152416000Y-90250000D01*
X152483039Y-90269685D01*
X152528794Y-90322489D01*
X152540000Y-90374000D01*
X152540000Y-90500000D01*
X152595500Y-90500000D01*
X152662539Y-90519685D01*
X152708294Y-90572489D01*
X152719500Y-90624000D01*
X152719500Y-90734697D01*
X152722356Y-90770991D01*
X152722357Y-90770997D01*
X152767503Y-90926389D01*
X152767505Y-90926393D01*
X152767506Y-90926395D01*
X152772732Y-90935233D01*
X152790000Y-90998352D01*
X152790000Y-91304503D01*
X152936194Y-91262032D01*
X152956384Y-91250091D01*
X153024108Y-91232906D01*
X153082629Y-91250089D01*
X153103605Y-91262494D01*
X153144587Y-91274400D01*
X153259002Y-91307642D01*
X153259005Y-91307642D01*
X153259007Y-91307643D01*
X153295310Y-91310500D01*
X153295318Y-91310500D01*
X153704682Y-91310500D01*
X153704690Y-91310500D01*
X153740993Y-91307643D01*
X153740995Y-91307642D01*
X153740997Y-91307642D01*
X153781975Y-91295736D01*
X153896395Y-91262494D01*
X154035687Y-91180117D01*
X154150117Y-91065687D01*
X154232494Y-90926395D01*
X154277643Y-90770993D01*
X154280500Y-90734690D01*
X154280500Y-90620096D01*
X154300185Y-90553057D01*
X154316815Y-90532419D01*
X154777318Y-90071915D01*
X154838641Y-90038431D01*
X154908333Y-90043415D01*
X154952680Y-90071916D01*
X156361284Y-91480520D01*
X156361286Y-91480521D01*
X156361290Y-91480524D01*
X156477928Y-91547864D01*
X156498216Y-91559577D01*
X156650943Y-91600501D01*
X156650945Y-91600501D01*
X156816654Y-91600501D01*
X156816670Y-91600500D01*
X158017209Y-91600500D01*
X158084248Y-91620185D01*
X158130003Y-91672989D01*
X158133391Y-91681167D01*
X158156202Y-91742328D01*
X158156206Y-91742335D01*
X158242452Y-91857544D01*
X158242455Y-91857547D01*
X158357664Y-91943793D01*
X158357671Y-91943797D01*
X158492517Y-91994091D01*
X158492516Y-91994091D01*
X158499444Y-91994835D01*
X158552127Y-92000500D01*
X160447872Y-92000499D01*
X160507483Y-91994091D01*
X160642331Y-91943796D01*
X160757546Y-91857546D01*
X160843796Y-91742331D01*
X160894091Y-91607483D01*
X160900500Y-91547873D01*
X160900499Y-90500095D01*
X160920183Y-90433057D01*
X160936813Y-90412420D01*
X162605520Y-88743716D01*
X162684577Y-88606784D01*
X162725501Y-88454057D01*
X162725501Y-88295942D01*
X162725501Y-88288347D01*
X162725500Y-88288329D01*
X162725500Y-85656941D01*
X162745185Y-85589902D01*
X162797989Y-85544147D01*
X162867147Y-85534203D01*
X162930703Y-85563228D01*
X162937181Y-85569260D01*
X162989707Y-85621786D01*
X162989711Y-85621789D01*
X163120814Y-85709390D01*
X163120827Y-85709397D01*
X163247899Y-85762031D01*
X163266503Y-85769737D01*
X163421153Y-85800499D01*
X163421156Y-85800500D01*
X163421158Y-85800500D01*
X163578844Y-85800500D01*
X163578845Y-85800499D01*
X163733497Y-85769737D01*
X163879179Y-85709394D01*
X164010289Y-85621789D01*
X164121789Y-85510289D01*
X164209394Y-85379179D01*
X164269737Y-85233497D01*
X164292149Y-85120827D01*
X164300638Y-85078151D01*
X164309402Y-85061394D01*
X164313423Y-85042915D01*
X164332168Y-85017873D01*
X164333023Y-85016240D01*
X164334509Y-85014725D01*
X164480520Y-84868716D01*
X164480521Y-84868714D01*
X164881520Y-84467716D01*
X164960577Y-84330784D01*
X165001501Y-84178057D01*
X165001501Y-84019942D01*
X165001501Y-84012347D01*
X165001500Y-84012329D01*
X165001500Y-80389047D01*
X165001500Y-80389045D01*
X164997871Y-80375499D01*
X164960577Y-80236317D01*
X164927646Y-80179279D01*
X164927646Y-80179278D01*
X164881524Y-80099392D01*
X164881521Y-80099388D01*
X164881520Y-80099386D01*
X164769716Y-79987582D01*
X164769715Y-79987581D01*
X164765385Y-79983251D01*
X164765374Y-79983241D01*
X164132249Y-79350116D01*
X164098764Y-79288793D01*
X164103748Y-79219101D01*
X164145620Y-79163168D01*
X164157922Y-79155052D01*
X164176233Y-79144481D01*
X164243716Y-79105520D01*
X164355520Y-78993716D01*
X164355520Y-78993714D01*
X164365724Y-78983511D01*
X164365727Y-78983506D01*
X165014662Y-78334572D01*
X165075983Y-78301089D01*
X165078150Y-78300638D01*
X165136085Y-78289113D01*
X165233497Y-78269737D01*
X165368223Y-78213932D01*
X165379172Y-78209397D01*
X165379172Y-78209396D01*
X165379179Y-78209394D01*
X165510289Y-78121789D01*
X165621789Y-78010289D01*
X165709394Y-77879179D01*
X165769737Y-77733497D01*
X165800500Y-77578842D01*
X165800500Y-77421158D01*
X165800500Y-77421155D01*
X165800499Y-77421153D01*
X165778749Y-77311810D01*
X165769737Y-77266503D01*
X165769735Y-77266498D01*
X165709397Y-77120827D01*
X165709390Y-77120814D01*
X165621789Y-76989711D01*
X165621786Y-76989707D01*
X165510292Y-76878213D01*
X165510288Y-76878210D01*
X165379185Y-76790609D01*
X165379172Y-76790602D01*
X165233501Y-76730264D01*
X165233489Y-76730261D01*
X165078845Y-76699500D01*
X165078842Y-76699500D01*
X164921158Y-76699500D01*
X164921155Y-76699500D01*
X164766510Y-76730261D01*
X164766498Y-76730264D01*
X164620827Y-76790602D01*
X164620814Y-76790609D01*
X164489711Y-76878210D01*
X164489707Y-76878213D01*
X164378213Y-76989707D01*
X164378210Y-76989711D01*
X164290609Y-77120814D01*
X164290602Y-77120827D01*
X164230264Y-77266498D01*
X164230261Y-77266508D01*
X164199361Y-77421850D01*
X164166976Y-77483761D01*
X164165425Y-77485339D01*
X163671020Y-77979744D01*
X163609697Y-78013229D01*
X163567154Y-78015002D01*
X163449411Y-77999501D01*
X163449406Y-77999500D01*
X163449401Y-77999500D01*
X163449394Y-77999500D01*
X162874499Y-77999500D01*
X162807460Y-77979815D01*
X162761705Y-77927011D01*
X162750499Y-77875500D01*
X162750499Y-77300596D01*
X162736011Y-77190536D01*
X162736009Y-77190531D01*
X162736009Y-77190528D01*
X162679279Y-77053571D01*
X162589036Y-76935964D01*
X162589034Y-76935963D01*
X162589034Y-76935962D01*
X162513771Y-76878211D01*
X162498269Y-76866316D01*
X162457067Y-76809889D01*
X162452912Y-76740143D01*
X162486073Y-76680263D01*
X162831767Y-76334570D01*
X162893086Y-76301088D01*
X162895253Y-76300637D01*
X162895942Y-76300500D01*
X162895944Y-76300500D01*
X163050599Y-76269737D01*
X163196281Y-76209394D01*
X163327391Y-76121789D01*
X163438891Y-76010289D01*
X163526496Y-75879179D01*
X163586839Y-75733497D01*
X163617602Y-75578842D01*
X163617602Y-75421158D01*
X163617602Y-75421155D01*
X163617601Y-75421153D01*
X163613294Y-75399500D01*
X163586839Y-75266503D01*
X163586834Y-75266492D01*
X163585071Y-75260676D01*
X163587822Y-75259841D01*
X163581599Y-75202641D01*
X163612793Y-75140122D01*
X163672836Y-75104392D01*
X163703657Y-75100500D01*
X167873334Y-75100500D01*
X167940373Y-75120185D01*
X167961016Y-75136820D01*
X168004307Y-75180112D01*
X168004311Y-75180115D01*
X168004313Y-75180117D01*
X168143605Y-75262494D01*
X168157404Y-75266503D01*
X168299002Y-75307642D01*
X168299005Y-75307642D01*
X168299007Y-75307643D01*
X168335310Y-75310500D01*
X168335318Y-75310500D01*
X168744682Y-75310500D01*
X168744690Y-75310500D01*
X168780993Y-75307643D01*
X168780995Y-75307642D01*
X168780997Y-75307642D01*
X168821975Y-75295736D01*
X168936395Y-75262494D01*
X168957369Y-75250089D01*
X169025088Y-75232906D01*
X169083613Y-75250090D01*
X169103803Y-75262031D01*
X169250000Y-75304504D01*
X169250000Y-75304503D01*
X169750000Y-75304503D01*
X169896195Y-75262031D01*
X170035374Y-75179721D01*
X170035383Y-75179714D01*
X170149714Y-75065383D01*
X170149721Y-75065374D01*
X170232031Y-74926195D01*
X170232033Y-74926190D01*
X170277144Y-74770918D01*
X170277145Y-74770912D01*
X170278790Y-74750000D01*
X169750000Y-74750000D01*
X169750000Y-75304503D01*
X169250000Y-75304503D01*
X169250000Y-74998352D01*
X169267267Y-74935233D01*
X169272494Y-74926395D01*
X169317643Y-74770993D01*
X169320500Y-74734690D01*
X169320500Y-74265310D01*
X169317643Y-74229007D01*
X169272494Y-74073605D01*
X169272493Y-74073604D01*
X169272492Y-74073600D01*
X169267266Y-74064763D01*
X169250000Y-74001645D01*
X169250000Y-73695494D01*
X169750000Y-73695494D01*
X169750000Y-74250000D01*
X170278790Y-74250000D01*
X170277145Y-74229089D01*
X170232031Y-74073804D01*
X170149721Y-73934625D01*
X170149714Y-73934616D01*
X170035383Y-73820285D01*
X170035374Y-73820278D01*
X169896193Y-73737967D01*
X169896190Y-73737965D01*
X169750001Y-73695493D01*
X169750000Y-73695494D01*
X169250000Y-73695494D01*
X169249998Y-73695493D01*
X169103809Y-73737965D01*
X169103806Y-73737967D01*
X169083608Y-73749912D01*
X169015884Y-73767092D01*
X168957370Y-73749910D01*
X168936397Y-73737507D01*
X168936390Y-73737504D01*
X168780997Y-73692357D01*
X168780991Y-73692356D01*
X168744697Y-73689500D01*
X168744690Y-73689500D01*
X168335310Y-73689500D01*
X168335302Y-73689500D01*
X168299008Y-73692356D01*
X168299002Y-73692357D01*
X168143609Y-73737504D01*
X168143606Y-73737505D01*
X168004315Y-73819881D01*
X168004307Y-73819887D01*
X167961016Y-73863180D01*
X167899693Y-73896666D01*
X167873334Y-73899500D01*
X163886555Y-73899500D01*
X163819516Y-73879815D01*
X163773761Y-73827011D01*
X163763817Y-73757853D01*
X163768840Y-73739588D01*
X163767969Y-73739324D01*
X163769731Y-73733509D01*
X163769737Y-73733497D01*
X163800500Y-73578842D01*
X163800500Y-73421158D01*
X163800500Y-73421155D01*
X163800499Y-73421153D01*
X163769737Y-73266503D01*
X163754833Y-73230521D01*
X163709397Y-73120827D01*
X163709390Y-73120814D01*
X163621789Y-72989711D01*
X163621786Y-72989707D01*
X163510292Y-72878213D01*
X163510288Y-72878210D01*
X163379185Y-72790609D01*
X163379172Y-72790602D01*
X163233501Y-72730264D01*
X163233489Y-72730261D01*
X163078845Y-72699500D01*
X163078842Y-72699500D01*
X162921158Y-72699500D01*
X162921155Y-72699500D01*
X162766510Y-72730261D01*
X162766498Y-72730264D01*
X162620827Y-72790602D01*
X162620814Y-72790609D01*
X162489125Y-72878602D01*
X162422447Y-72899480D01*
X162420234Y-72899500D01*
X159300098Y-72899500D01*
X159233059Y-72879815D01*
X159212417Y-72863181D01*
X158886819Y-72537583D01*
X158853334Y-72476260D01*
X158850500Y-72449902D01*
X158850500Y-71691162D01*
X158870185Y-71624123D01*
X158922989Y-71578368D01*
X158992147Y-71568424D01*
X159043390Y-71588060D01*
X159049769Y-71592322D01*
X159049770Y-71592322D01*
X159049771Y-71592323D01*
X159088956Y-71608554D01*
X159222749Y-71663973D01*
X159406379Y-71700499D01*
X159406383Y-71700500D01*
X159406384Y-71700500D01*
X159593617Y-71700500D01*
X159593618Y-71700499D01*
X159777251Y-71663973D01*
X159950231Y-71592322D01*
X159985997Y-71568424D01*
X160056109Y-71521577D01*
X160122787Y-71500699D01*
X160190167Y-71519183D01*
X160193891Y-71521577D01*
X160299762Y-71592318D01*
X160299771Y-71592323D01*
X160338956Y-71608554D01*
X160472749Y-71663973D01*
X160656379Y-71700499D01*
X160656383Y-71700500D01*
X160656384Y-71700500D01*
X160843617Y-71700500D01*
X160843618Y-71700499D01*
X161027251Y-71663973D01*
X161200231Y-71592322D01*
X161235997Y-71568424D01*
X161306109Y-71521577D01*
X161372787Y-71500699D01*
X161440167Y-71519183D01*
X161443891Y-71521577D01*
X161549762Y-71592318D01*
X161549771Y-71592323D01*
X161588956Y-71608554D01*
X161722749Y-71663973D01*
X161906379Y-71700499D01*
X161906383Y-71700500D01*
X161906384Y-71700500D01*
X162093617Y-71700500D01*
X162093618Y-71700499D01*
X162277251Y-71663973D01*
X162450231Y-71592322D01*
X162485997Y-71568424D01*
X162556109Y-71521577D01*
X162622787Y-71500699D01*
X162690167Y-71519183D01*
X162693891Y-71521577D01*
X162799762Y-71592318D01*
X162799771Y-71592323D01*
X162838956Y-71608554D01*
X162972749Y-71663973D01*
X163156379Y-71700499D01*
X163156383Y-71700500D01*
X163156384Y-71700500D01*
X163343617Y-71700500D01*
X163343618Y-71700499D01*
X163527251Y-71663973D01*
X163700231Y-71592322D01*
X163735997Y-71568424D01*
X163806109Y-71521577D01*
X163872787Y-71500699D01*
X163940167Y-71519183D01*
X163943891Y-71521577D01*
X164049762Y-71592318D01*
X164049771Y-71592323D01*
X164088956Y-71608554D01*
X164222749Y-71663973D01*
X164406379Y-71700499D01*
X164406383Y-71700500D01*
X164406384Y-71700500D01*
X164593617Y-71700500D01*
X164593618Y-71700499D01*
X164777251Y-71663973D01*
X164950231Y-71592322D01*
X164985997Y-71568424D01*
X165056109Y-71521577D01*
X165122787Y-71500699D01*
X165190167Y-71519183D01*
X165193891Y-71521577D01*
X165299762Y-71592318D01*
X165299771Y-71592323D01*
X165338956Y-71608554D01*
X165472749Y-71663973D01*
X165656379Y-71700499D01*
X165656383Y-71700500D01*
X165656384Y-71700500D01*
X165843617Y-71700500D01*
X165843618Y-71700499D01*
X166027251Y-71663973D01*
X166200231Y-71592322D01*
X166306560Y-71521274D01*
X166373234Y-71500397D01*
X166440614Y-71518881D01*
X166444340Y-71521275D01*
X166550000Y-71591875D01*
X166550012Y-71591882D01*
X166722889Y-71663489D01*
X166722896Y-71663491D01*
X166750000Y-71668882D01*
X166750000Y-71668881D01*
X167250000Y-71668881D01*
X167277103Y-71663491D01*
X167277110Y-71663489D01*
X167449987Y-71591882D01*
X167450000Y-71591875D01*
X167605589Y-71487913D01*
X167605593Y-71487910D01*
X167737910Y-71355593D01*
X167737913Y-71355589D01*
X167841875Y-71200000D01*
X167841880Y-71199991D01*
X167913491Y-71027105D01*
X167913493Y-71027097D01*
X167949999Y-70843571D01*
X167950000Y-70843569D01*
X167950000Y-70750000D01*
X167250000Y-70750000D01*
X167250000Y-71668881D01*
X166750000Y-71668881D01*
X166750000Y-70666988D01*
X166759940Y-70684205D01*
X166815795Y-70740060D01*
X166884204Y-70779556D01*
X166960504Y-70800000D01*
X167039496Y-70800000D01*
X167115796Y-70779556D01*
X167184205Y-70740060D01*
X167240060Y-70684205D01*
X167279556Y-70615796D01*
X167300000Y-70539496D01*
X167300000Y-70460504D01*
X167279556Y-70384204D01*
X167240060Y-70315795D01*
X167184205Y-70259940D01*
X167166988Y-70250000D01*
X167250000Y-70250000D01*
X167950000Y-70250000D01*
X167950000Y-70156430D01*
X167949999Y-70156428D01*
X167913493Y-69972902D01*
X167913491Y-69972894D01*
X167841880Y-69800008D01*
X167841875Y-69799999D01*
X167737913Y-69644410D01*
X167737910Y-69644406D01*
X167605593Y-69512089D01*
X167605589Y-69512086D01*
X167450000Y-69408124D01*
X167449991Y-69408119D01*
X167277103Y-69336507D01*
X167277100Y-69336506D01*
X167250000Y-69331115D01*
X167250000Y-70250000D01*
X167166988Y-70250000D01*
X167115796Y-70220444D01*
X167039496Y-70200000D01*
X166960504Y-70200000D01*
X166884204Y-70220444D01*
X166815795Y-70259940D01*
X166759940Y-70315795D01*
X166750000Y-70333011D01*
X166750000Y-69331116D01*
X166749999Y-69331115D01*
X166722899Y-69336506D01*
X166722896Y-69336507D01*
X166550008Y-69408119D01*
X166549994Y-69408127D01*
X166444340Y-69478723D01*
X166377663Y-69499601D01*
X166310283Y-69481116D01*
X166306560Y-69478723D01*
X166200242Y-69407684D01*
X166200228Y-69407676D01*
X166027251Y-69336027D01*
X166027243Y-69336025D01*
X165843620Y-69299500D01*
X165843616Y-69299500D01*
X165656384Y-69299500D01*
X165656379Y-69299500D01*
X165472756Y-69336025D01*
X165472748Y-69336027D01*
X165299771Y-69407676D01*
X165299764Y-69407680D01*
X165193890Y-69478423D01*
X165127213Y-69499300D01*
X165059833Y-69480815D01*
X165056110Y-69478423D01*
X164950235Y-69407680D01*
X164950228Y-69407676D01*
X164777251Y-69336027D01*
X164777243Y-69336025D01*
X164593620Y-69299500D01*
X164593616Y-69299500D01*
X164406384Y-69299500D01*
X164406379Y-69299500D01*
X164222756Y-69336025D01*
X164222748Y-69336027D01*
X164049771Y-69407676D01*
X164049764Y-69407680D01*
X163943890Y-69478423D01*
X163877213Y-69499300D01*
X163809833Y-69480815D01*
X163806110Y-69478423D01*
X163700235Y-69407680D01*
X163700228Y-69407676D01*
X163527251Y-69336027D01*
X163527243Y-69336025D01*
X163343620Y-69299500D01*
X163343616Y-69299500D01*
X163156384Y-69299500D01*
X163156379Y-69299500D01*
X162972756Y-69336025D01*
X162972748Y-69336027D01*
X162799771Y-69407676D01*
X162799764Y-69407680D01*
X162693890Y-69478423D01*
X162627213Y-69499300D01*
X162559833Y-69480815D01*
X162556110Y-69478423D01*
X162450235Y-69407680D01*
X162450228Y-69407676D01*
X162277251Y-69336027D01*
X162277243Y-69336025D01*
X162093620Y-69299500D01*
X162093616Y-69299500D01*
X161906384Y-69299500D01*
X161906379Y-69299500D01*
X161722756Y-69336025D01*
X161722748Y-69336027D01*
X161549771Y-69407676D01*
X161549764Y-69407680D01*
X161443890Y-69478423D01*
X161377213Y-69499300D01*
X161309833Y-69480815D01*
X161306110Y-69478423D01*
X161200235Y-69407680D01*
X161200228Y-69407676D01*
X161027251Y-69336027D01*
X161027243Y-69336025D01*
X160843620Y-69299500D01*
X160843616Y-69299500D01*
X160656384Y-69299500D01*
X160656379Y-69299500D01*
X160472756Y-69336025D01*
X160472748Y-69336027D01*
X160299771Y-69407676D01*
X160299764Y-69407680D01*
X160193890Y-69478423D01*
X160127213Y-69499300D01*
X160059833Y-69480815D01*
X160056110Y-69478423D01*
X159950235Y-69407680D01*
X159950228Y-69407676D01*
X159777251Y-69336027D01*
X159777243Y-69336025D01*
X159593620Y-69299500D01*
X159593616Y-69299500D01*
X159406384Y-69299500D01*
X159400293Y-69299500D01*
X159400293Y-69296851D01*
X159342643Y-69285332D01*
X159312533Y-69263188D01*
X159261026Y-69211681D01*
X159227541Y-69150358D01*
X159232525Y-69080666D01*
X159274397Y-69024733D01*
X159339861Y-69000316D01*
X159348707Y-69000000D01*
X170876000Y-69000000D01*
X170943039Y-69019685D01*
X170988794Y-69072489D01*
X171000000Y-69124000D01*
X171000000Y-77199016D01*
X170980315Y-77266055D01*
X170927511Y-77311810D01*
X170858353Y-77321754D01*
X170794797Y-77292729D01*
X170761439Y-77246469D01*
X170709395Y-77120823D01*
X170709390Y-77120814D01*
X170621789Y-76989711D01*
X170621786Y-76989707D01*
X170510292Y-76878213D01*
X170510288Y-76878210D01*
X170379185Y-76790609D01*
X170379172Y-76790602D01*
X170233501Y-76730264D01*
X170233489Y-76730261D01*
X170078845Y-76699500D01*
X170078842Y-76699500D01*
X169921158Y-76699500D01*
X169921155Y-76699500D01*
X169766510Y-76730261D01*
X169766498Y-76730264D01*
X169620827Y-76790602D01*
X169620814Y-76790609D01*
X169489711Y-76878210D01*
X169489707Y-76878213D01*
X169378213Y-76989707D01*
X169353102Y-77027289D01*
X169299489Y-77072093D01*
X169230164Y-77080800D01*
X169167137Y-77050645D01*
X169146898Y-77027289D01*
X169121786Y-76989707D01*
X169010292Y-76878213D01*
X169010288Y-76878210D01*
X168879185Y-76790609D01*
X168879172Y-76790602D01*
X168733501Y-76730264D01*
X168733489Y-76730261D01*
X168578845Y-76699500D01*
X168578842Y-76699500D01*
X168421158Y-76699500D01*
X168421155Y-76699500D01*
X168266510Y-76730261D01*
X168266498Y-76730264D01*
X168120827Y-76790602D01*
X168120814Y-76790609D01*
X167989711Y-76878210D01*
X167989707Y-76878213D01*
X167878213Y-76989707D01*
X167878210Y-76989711D01*
X167790609Y-77120814D01*
X167790602Y-77120827D01*
X167730264Y-77266498D01*
X167730261Y-77266510D01*
X167699500Y-77421153D01*
X167699500Y-77578846D01*
X167730261Y-77733489D01*
X167730264Y-77733501D01*
X167790602Y-77879172D01*
X167790609Y-77879185D01*
X167878210Y-78010288D01*
X167878213Y-78010292D01*
X167989707Y-78121786D01*
X167989710Y-78121788D01*
X167989711Y-78121789D01*
X168015219Y-78138833D01*
X168027289Y-78146898D01*
X168072093Y-78200511D01*
X168080800Y-78269836D01*
X168050645Y-78332863D01*
X168027289Y-78353102D01*
X167989707Y-78378213D01*
X167878213Y-78489707D01*
X167878210Y-78489711D01*
X167790609Y-78620814D01*
X167790602Y-78620827D01*
X167730264Y-78766498D01*
X167730261Y-78766510D01*
X167699500Y-78921153D01*
X167699500Y-79078846D01*
X167730261Y-79233489D01*
X167730264Y-79233501D01*
X167790602Y-79379172D01*
X167790609Y-79379185D01*
X167878210Y-79510288D01*
X167878213Y-79510292D01*
X167989707Y-79621786D01*
X167989710Y-79621788D01*
X167989711Y-79621789D01*
X168015219Y-79638833D01*
X168027289Y-79646898D01*
X168072093Y-79700511D01*
X168080800Y-79769836D01*
X168050645Y-79832863D01*
X168027289Y-79853102D01*
X167989707Y-79878213D01*
X167878213Y-79989707D01*
X167878210Y-79989711D01*
X167790609Y-80120814D01*
X167790602Y-80120827D01*
X167730264Y-80266498D01*
X167730261Y-80266510D01*
X167699500Y-80421153D01*
X167699500Y-80578846D01*
X167730261Y-80733489D01*
X167730264Y-80733501D01*
X167790602Y-80879172D01*
X167790609Y-80879185D01*
X167878210Y-81010288D01*
X167878213Y-81010292D01*
X167989707Y-81121786D01*
X167989711Y-81121789D01*
X168120814Y-81209390D01*
X168120827Y-81209397D01*
X168258418Y-81266388D01*
X168266503Y-81269737D01*
X168409676Y-81298216D01*
X168421153Y-81300499D01*
X168421156Y-81300500D01*
X168421158Y-81300500D01*
X168578844Y-81300500D01*
X168578845Y-81300499D01*
X168733497Y-81269737D01*
X168879179Y-81209394D01*
X169010289Y-81121789D01*
X169121789Y-81010289D01*
X169134719Y-80990938D01*
X169146898Y-80972712D01*
X169200510Y-80927906D01*
X169269835Y-80919199D01*
X169332862Y-80949353D01*
X169353102Y-80972712D01*
X169378207Y-81010284D01*
X169378213Y-81010292D01*
X169489707Y-81121786D01*
X169489711Y-81121789D01*
X169620814Y-81209390D01*
X169620827Y-81209397D01*
X169758418Y-81266388D01*
X169766503Y-81269737D01*
X169909676Y-81298216D01*
X169921153Y-81300499D01*
X169921156Y-81300500D01*
X169921158Y-81300500D01*
X170078844Y-81300500D01*
X170078845Y-81300499D01*
X170233497Y-81269737D01*
X170379179Y-81209394D01*
X170510289Y-81121789D01*
X170621789Y-81010289D01*
X170709394Y-80879179D01*
X170741784Y-80800983D01*
X170761439Y-80753531D01*
X170805280Y-80699127D01*
X170871574Y-80677062D01*
X170939273Y-80694341D01*
X170986884Y-80745478D01*
X171000000Y-80800983D01*
X171000000Y-82199016D01*
X170980315Y-82266055D01*
X170927511Y-82311810D01*
X170858353Y-82321754D01*
X170794797Y-82292729D01*
X170761439Y-82246469D01*
X170709395Y-82120823D01*
X170709390Y-82120814D01*
X170621789Y-81989711D01*
X170621786Y-81989707D01*
X170510292Y-81878213D01*
X170510288Y-81878210D01*
X170379185Y-81790609D01*
X170379172Y-81790602D01*
X170233501Y-81730264D01*
X170233489Y-81730261D01*
X170078845Y-81699500D01*
X170078842Y-81699500D01*
X169921158Y-81699500D01*
X169921155Y-81699500D01*
X169766510Y-81730261D01*
X169766498Y-81730264D01*
X169620827Y-81790602D01*
X169620814Y-81790609D01*
X169489711Y-81878210D01*
X169489707Y-81878213D01*
X169378213Y-81989707D01*
X169353102Y-82027289D01*
X169299489Y-82072093D01*
X169230164Y-82080800D01*
X169167137Y-82050645D01*
X169146898Y-82027289D01*
X169121786Y-81989707D01*
X169010292Y-81878213D01*
X169010288Y-81878210D01*
X168879185Y-81790609D01*
X168879172Y-81790602D01*
X168733501Y-81730264D01*
X168733489Y-81730261D01*
X168578845Y-81699500D01*
X168578842Y-81699500D01*
X168421158Y-81699500D01*
X168421155Y-81699500D01*
X168266510Y-81730261D01*
X168266498Y-81730264D01*
X168120827Y-81790602D01*
X168120814Y-81790609D01*
X167989711Y-81878210D01*
X167989707Y-81878213D01*
X167878213Y-81989707D01*
X167878210Y-81989711D01*
X167790609Y-82120814D01*
X167790602Y-82120827D01*
X167730264Y-82266498D01*
X167730261Y-82266510D01*
X167699500Y-82421153D01*
X167699500Y-82578846D01*
X167730261Y-82733489D01*
X167730264Y-82733501D01*
X167790602Y-82879172D01*
X167790609Y-82879185D01*
X167878210Y-83010288D01*
X167878213Y-83010292D01*
X167989707Y-83121786D01*
X167989710Y-83121788D01*
X167989711Y-83121789D01*
X168010815Y-83135890D01*
X168027289Y-83146898D01*
X168072093Y-83200511D01*
X168080800Y-83269836D01*
X168050645Y-83332863D01*
X168027289Y-83353102D01*
X167989707Y-83378213D01*
X167878213Y-83489707D01*
X167878210Y-83489711D01*
X167790609Y-83620814D01*
X167790602Y-83620827D01*
X167730264Y-83766498D01*
X167730261Y-83766510D01*
X167699500Y-83921153D01*
X167699500Y-84078846D01*
X167730261Y-84233489D01*
X167730264Y-84233501D01*
X167790602Y-84379172D01*
X167790609Y-84379185D01*
X167878210Y-84510288D01*
X167878213Y-84510292D01*
X167989707Y-84621786D01*
X167989710Y-84621788D01*
X167989711Y-84621789D01*
X167996410Y-84626265D01*
X168027289Y-84646898D01*
X168072093Y-84700511D01*
X168080800Y-84769836D01*
X168050645Y-84832863D01*
X168027289Y-84853102D01*
X167989707Y-84878213D01*
X167878213Y-84989707D01*
X167878210Y-84989711D01*
X167790609Y-85120814D01*
X167790602Y-85120827D01*
X167730264Y-85266498D01*
X167730261Y-85266510D01*
X167699500Y-85421153D01*
X167699500Y-85578846D01*
X167730261Y-85733489D01*
X167730264Y-85733501D01*
X167790602Y-85879172D01*
X167790609Y-85879185D01*
X167878210Y-86010288D01*
X167878213Y-86010292D01*
X167989707Y-86121786D01*
X167989710Y-86121788D01*
X167989711Y-86121789D01*
X168011024Y-86136030D01*
X168027289Y-86146898D01*
X168072093Y-86200511D01*
X168080800Y-86269836D01*
X168050645Y-86332863D01*
X168027289Y-86353102D01*
X167989707Y-86378213D01*
X167878213Y-86489707D01*
X167878210Y-86489711D01*
X167790609Y-86620814D01*
X167790602Y-86620827D01*
X167730264Y-86766498D01*
X167730261Y-86766510D01*
X167699500Y-86921153D01*
X167699500Y-87078846D01*
X167730261Y-87233489D01*
X167730264Y-87233501D01*
X167790602Y-87379172D01*
X167790609Y-87379185D01*
X167878210Y-87510288D01*
X167878213Y-87510292D01*
X167989707Y-87621786D01*
X167989711Y-87621789D01*
X168120814Y-87709390D01*
X168120827Y-87709397D01*
X168247633Y-87761921D01*
X168266503Y-87769737D01*
X168421153Y-87800499D01*
X168421156Y-87800500D01*
X168421158Y-87800500D01*
X168578844Y-87800500D01*
X168578845Y-87800499D01*
X168733497Y-87769737D01*
X168879179Y-87709394D01*
X169010289Y-87621789D01*
X169121789Y-87510289D01*
X169129145Y-87499279D01*
X169146898Y-87472712D01*
X169200510Y-87427906D01*
X169269835Y-87419199D01*
X169332862Y-87449353D01*
X169353102Y-87472712D01*
X169378207Y-87510284D01*
X169378213Y-87510292D01*
X169489707Y-87621786D01*
X169489711Y-87621789D01*
X169620814Y-87709390D01*
X169620827Y-87709397D01*
X169747633Y-87761921D01*
X169766503Y-87769737D01*
X169921153Y-87800499D01*
X169921156Y-87800500D01*
X169921158Y-87800500D01*
X170078844Y-87800500D01*
X170078845Y-87800499D01*
X170233497Y-87769737D01*
X170379179Y-87709394D01*
X170510289Y-87621789D01*
X170621789Y-87510289D01*
X170709394Y-87379179D01*
X170741784Y-87300983D01*
X170761439Y-87253531D01*
X170805280Y-87199127D01*
X170871574Y-87177062D01*
X170939273Y-87194341D01*
X170986884Y-87245478D01*
X171000000Y-87300983D01*
X171000000Y-88699016D01*
X170980315Y-88766055D01*
X170927511Y-88811810D01*
X170858353Y-88821754D01*
X170794797Y-88792729D01*
X170761439Y-88746469D01*
X170709395Y-88620823D01*
X170709390Y-88620814D01*
X170621789Y-88489711D01*
X170621786Y-88489707D01*
X170510292Y-88378213D01*
X170510288Y-88378210D01*
X170379185Y-88290609D01*
X170379172Y-88290602D01*
X170233501Y-88230264D01*
X170233489Y-88230261D01*
X170078845Y-88199500D01*
X170078842Y-88199500D01*
X169921158Y-88199500D01*
X169921155Y-88199500D01*
X169766510Y-88230261D01*
X169766498Y-88230264D01*
X169620827Y-88290602D01*
X169620814Y-88290609D01*
X169489711Y-88378210D01*
X169489707Y-88378213D01*
X169378213Y-88489707D01*
X169378210Y-88489711D01*
X169290609Y-88620814D01*
X169290602Y-88620827D01*
X169230264Y-88766498D01*
X169230261Y-88766507D01*
X169220491Y-88815626D01*
X169188105Y-88877536D01*
X169127389Y-88912110D01*
X169057620Y-88908369D01*
X169015303Y-88881704D01*
X169014999Y-88882076D01*
X169012040Y-88879647D01*
X169011193Y-88879114D01*
X169010292Y-88878213D01*
X169010288Y-88878210D01*
X168879185Y-88790609D01*
X168879172Y-88790602D01*
X168733501Y-88730264D01*
X168733489Y-88730261D01*
X168578845Y-88699500D01*
X168578842Y-88699500D01*
X168421158Y-88699500D01*
X168421155Y-88699500D01*
X168266510Y-88730261D01*
X168266498Y-88730264D01*
X168120827Y-88790602D01*
X168120814Y-88790609D01*
X167989711Y-88878210D01*
X167989707Y-88878213D01*
X167878213Y-88989707D01*
X167878210Y-88989711D01*
X167790609Y-89120814D01*
X167790602Y-89120827D01*
X167730264Y-89266498D01*
X167730261Y-89266510D01*
X167699500Y-89421153D01*
X167699500Y-89578846D01*
X167730261Y-89733489D01*
X167730264Y-89733501D01*
X167790602Y-89879172D01*
X167790609Y-89879185D01*
X167878210Y-90010288D01*
X167878213Y-90010292D01*
X167989707Y-90121786D01*
X167989710Y-90121788D01*
X167989711Y-90121789D01*
X168015219Y-90138833D01*
X168027289Y-90146898D01*
X168072093Y-90200511D01*
X168080800Y-90269836D01*
X168050645Y-90332863D01*
X168027289Y-90353102D01*
X167989707Y-90378213D01*
X167878213Y-90489707D01*
X167878210Y-90489711D01*
X167790609Y-90620814D01*
X167790602Y-90620827D01*
X167730264Y-90766498D01*
X167730261Y-90766510D01*
X167699500Y-90921153D01*
X167699500Y-91078846D01*
X167730261Y-91233489D01*
X167730264Y-91233501D01*
X167790602Y-91379172D01*
X167790609Y-91379185D01*
X167878210Y-91510288D01*
X167878213Y-91510292D01*
X167989707Y-91621786D01*
X167989711Y-91621789D01*
X168120814Y-91709390D01*
X168120827Y-91709397D01*
X168200348Y-91742335D01*
X168266503Y-91769737D01*
X168421153Y-91800499D01*
X168421156Y-91800500D01*
X168421158Y-91800500D01*
X168578844Y-91800500D01*
X168578845Y-91800499D01*
X168733497Y-91769737D01*
X168879179Y-91709394D01*
X169010289Y-91621789D01*
X169121789Y-91510289D01*
X169129145Y-91499279D01*
X169146898Y-91472712D01*
X169200510Y-91427906D01*
X169269835Y-91419199D01*
X169332862Y-91449353D01*
X169353102Y-91472712D01*
X169378207Y-91510284D01*
X169378213Y-91510292D01*
X169489707Y-91621786D01*
X169489711Y-91621789D01*
X169620814Y-91709390D01*
X169620827Y-91709397D01*
X169700348Y-91742335D01*
X169766503Y-91769737D01*
X169921153Y-91800499D01*
X169921156Y-91800500D01*
X169921158Y-91800500D01*
X170078844Y-91800500D01*
X170078845Y-91800499D01*
X170233497Y-91769737D01*
X170379179Y-91709394D01*
X170510289Y-91621789D01*
X170621789Y-91510289D01*
X170709394Y-91379179D01*
X170739025Y-91307643D01*
X170761439Y-91253531D01*
X170805280Y-91199127D01*
X170871574Y-91177062D01*
X170939273Y-91194341D01*
X170986884Y-91245478D01*
X171000000Y-91300983D01*
X171000000Y-92876000D01*
X170980315Y-92943039D01*
X170927511Y-92988794D01*
X170876000Y-93000000D01*
X150126988Y-93000000D01*
X150059949Y-92980315D01*
X150014194Y-92927511D01*
X150003023Y-92873048D01*
X150053572Y-90750000D01*
X151761210Y-90750000D01*
X151762854Y-90770910D01*
X151807968Y-90926195D01*
X151890278Y-91065374D01*
X151890285Y-91065383D01*
X152004616Y-91179714D01*
X152004625Y-91179721D01*
X152143804Y-91262031D01*
X152290000Y-91304504D01*
X152290000Y-90750000D01*
X151761210Y-90750000D01*
X150053572Y-90750000D01*
X150054698Y-90702701D01*
X150090715Y-89190000D01*
X151121210Y-89190000D01*
X151122854Y-89210910D01*
X151167968Y-89366195D01*
X151250278Y-89505374D01*
X151250285Y-89505383D01*
X151364616Y-89619714D01*
X151364625Y-89619721D01*
X151503804Y-89702031D01*
X151650000Y-89744504D01*
X151650000Y-89190000D01*
X151121210Y-89190000D01*
X150090715Y-89190000D01*
X150091841Y-89142701D01*
X150101634Y-88731390D01*
X150102619Y-88689999D01*
X151121209Y-88689999D01*
X151121210Y-88690000D01*
X151650000Y-88690000D01*
X151650000Y-88135494D01*
X151649998Y-88135493D01*
X151503809Y-88177965D01*
X151503806Y-88177967D01*
X151364625Y-88260278D01*
X151364616Y-88260285D01*
X151250285Y-88374616D01*
X151250278Y-88374625D01*
X151167968Y-88513804D01*
X151167966Y-88513809D01*
X151122855Y-88669081D01*
X151122854Y-88669087D01*
X151121209Y-88689999D01*
X150102619Y-88689999D01*
X150412222Y-75686666D01*
X150500000Y-72000000D01*
X150500000Y-69124000D01*
X150519685Y-69056961D01*
X150572489Y-69011206D01*
X150624000Y-69000000D01*
X158079036Y-69000000D01*
X158146075Y-69019685D01*
G37*
%TD.AperFunction*%
%TA.AperFunction,Conductor*%
G36*
X157568834Y-71922915D02*
G01*
X157624767Y-71964787D01*
X157649184Y-72030251D01*
X157649500Y-72039097D01*
X157649500Y-72663330D01*
X157649499Y-72663348D01*
X157649499Y-72829054D01*
X157649498Y-72829054D01*
X157690423Y-72981785D01*
X157719358Y-73031900D01*
X157719359Y-73031904D01*
X157719360Y-73031904D01*
X157769479Y-73118714D01*
X157769481Y-73118717D01*
X157888349Y-73237585D01*
X157888355Y-73237590D01*
X158019481Y-73368716D01*
X158631284Y-73980520D01*
X158631286Y-73980521D01*
X158631290Y-73980524D01*
X158768209Y-74059573D01*
X158768216Y-74059577D01*
X158920943Y-74100501D01*
X158920945Y-74100501D01*
X159086654Y-74100501D01*
X159086670Y-74100500D01*
X161250902Y-74100500D01*
X161317941Y-74120185D01*
X161363696Y-74172989D01*
X161373640Y-74242147D01*
X161344615Y-74305703D01*
X161338583Y-74312181D01*
X160131284Y-75519481D01*
X160019483Y-75631281D01*
X160019476Y-75631290D01*
X159967174Y-75721879D01*
X159916607Y-75770094D01*
X159848000Y-75783316D01*
X159783135Y-75757348D01*
X159745227Y-75707330D01*
X159709397Y-75620827D01*
X159709390Y-75620814D01*
X159621789Y-75489711D01*
X159621786Y-75489707D01*
X159510292Y-75378213D01*
X159510288Y-75378210D01*
X159379185Y-75290609D01*
X159379172Y-75290602D01*
X159233501Y-75230264D01*
X159233489Y-75230261D01*
X159078845Y-75199500D01*
X159078842Y-75199500D01*
X158921158Y-75199500D01*
X158921155Y-75199500D01*
X158766510Y-75230261D01*
X158766498Y-75230264D01*
X158620827Y-75290602D01*
X158620814Y-75290609D01*
X158489125Y-75378602D01*
X158428874Y-75397467D01*
X158429002Y-75398439D01*
X158423427Y-75399173D01*
X158422447Y-75399480D01*
X158420996Y-75399493D01*
X158420940Y-75399500D01*
X158380019Y-75410464D01*
X158380019Y-75410465D01*
X158342751Y-75420451D01*
X158268214Y-75440423D01*
X158268209Y-75440426D01*
X158131290Y-75519475D01*
X158131282Y-75519481D01*
X156519479Y-77131284D01*
X156499052Y-77166666D01*
X156484220Y-77192357D01*
X156452978Y-77246469D01*
X156441409Y-77266508D01*
X156440423Y-77268215D01*
X156399499Y-77420943D01*
X156399499Y-77420945D01*
X156399499Y-77589046D01*
X156399500Y-77589059D01*
X156399500Y-77920939D01*
X156399499Y-77920943D01*
X156399499Y-78079057D01*
X156401249Y-78085588D01*
X156401399Y-78100410D01*
X156393852Y-78127106D01*
X156389577Y-78154517D01*
X156384481Y-78160258D01*
X156382393Y-78167645D01*
X156361610Y-78186024D01*
X156343196Y-78206771D01*
X156334045Y-78210402D01*
X156330055Y-78213932D01*
X156322042Y-78215166D01*
X156301599Y-78223281D01*
X156266506Y-78230262D01*
X156266498Y-78230264D01*
X156120827Y-78290602D01*
X156120814Y-78290609D01*
X155989711Y-78378210D01*
X155989707Y-78378213D01*
X155878213Y-78489707D01*
X155878210Y-78489711D01*
X155790609Y-78620814D01*
X155790602Y-78620827D01*
X155730264Y-78766498D01*
X155730260Y-78766512D01*
X155729627Y-78769696D01*
X155728835Y-78771208D01*
X155728494Y-78772335D01*
X155728280Y-78772270D01*
X155714913Y-78797821D01*
X155701724Y-78826703D01*
X155698832Y-78828560D01*
X155697240Y-78831606D01*
X155669648Y-78847316D01*
X155642946Y-78864477D01*
X155638349Y-78865137D01*
X155636523Y-78866178D01*
X155608011Y-78869500D01*
X155442321Y-78869500D01*
X155375282Y-78849815D01*
X155329527Y-78797011D01*
X155318703Y-78735771D01*
X155319235Y-78729008D01*
X155320500Y-78712940D01*
X155320500Y-78287060D01*
X155317609Y-78250325D01*
X155311781Y-78230264D01*
X155271933Y-78093107D01*
X155271931Y-78093104D01*
X155271931Y-78093103D01*
X155188590Y-77952180D01*
X155188588Y-77952178D01*
X155188585Y-77952174D01*
X155072825Y-77836414D01*
X155072817Y-77836408D01*
X154952607Y-77765317D01*
X154931897Y-77753069D01*
X154931896Y-77753068D01*
X154931895Y-77753068D01*
X154931892Y-77753066D01*
X154774679Y-77707391D01*
X154774673Y-77707390D01*
X154737947Y-77704500D01*
X154737940Y-77704500D01*
X154262060Y-77704500D01*
X154262052Y-77704500D01*
X154225326Y-77707390D01*
X154225320Y-77707391D01*
X154068107Y-77753066D01*
X154068100Y-77753070D01*
X153962598Y-77815463D01*
X153894874Y-77832646D01*
X153828612Y-77810486D01*
X153784849Y-77756019D01*
X153777495Y-77731004D01*
X153777145Y-77729091D01*
X153732030Y-77573803D01*
X153649721Y-77434625D01*
X153649714Y-77434616D01*
X153552779Y-77337681D01*
X153519294Y-77276358D01*
X153524278Y-77206666D01*
X153552779Y-77162319D01*
X153649714Y-77065383D01*
X153649721Y-77065374D01*
X153732031Y-76926195D01*
X153732033Y-76926190D01*
X153777144Y-76770918D01*
X153777145Y-76770912D01*
X153778790Y-76750000D01*
X153250000Y-76750000D01*
X153250000Y-77876000D01*
X153247449Y-77884685D01*
X153248738Y-77893647D01*
X153237759Y-77917687D01*
X153230315Y-77943039D01*
X153223474Y-77948966D01*
X153219713Y-77957203D01*
X153197478Y-77971492D01*
X153177511Y-77988794D01*
X153166996Y-77991081D01*
X153160935Y-77994977D01*
X153126000Y-78000000D01*
X152944500Y-78000000D01*
X152877461Y-77980315D01*
X152831706Y-77927511D01*
X152820500Y-77876000D01*
X152820500Y-77765317D01*
X152820499Y-77765302D01*
X152819536Y-77753070D01*
X152817643Y-77729007D01*
X152807571Y-77694341D01*
X152772495Y-77573608D01*
X152772492Y-77573600D01*
X152767266Y-77564763D01*
X152750000Y-77501645D01*
X152750000Y-76998352D01*
X152767267Y-76935233D01*
X152772494Y-76926395D01*
X152786493Y-76878213D01*
X152817642Y-76770997D01*
X152817643Y-76770991D01*
X152819557Y-76746671D01*
X152820500Y-76734690D01*
X152820500Y-76624000D01*
X152840185Y-76556961D01*
X152892989Y-76511206D01*
X152944500Y-76500000D01*
X153000000Y-76500000D01*
X153000000Y-76440597D01*
X153008644Y-76411156D01*
X153015168Y-76381170D01*
X153018922Y-76376154D01*
X153019685Y-76373558D01*
X153036319Y-76352916D01*
X153102916Y-76286319D01*
X153164239Y-76252834D01*
X153190597Y-76250000D01*
X153778790Y-76250000D01*
X153777145Y-76229089D01*
X153732031Y-76073804D01*
X153649721Y-75934625D01*
X153649714Y-75934616D01*
X153639847Y-75924749D01*
X153606362Y-75863426D01*
X153611346Y-75793734D01*
X153639845Y-75749389D01*
X157437819Y-71951416D01*
X157499142Y-71917931D01*
X157568834Y-71922915D01*
G37*
%TD.AperFunction*%
%TD*%
M02*
