%TF.GenerationSoftware,KiCad,Pcbnew,9.0.2*%
%TF.CreationDate,2025-05-30T19:54:00-04:00*%
%TF.ProjectId,porton micro,706f7274-6f6e-4206-9d69-63726f2e6b69,rev?*%
%TF.SameCoordinates,Original*%
%TF.FileFunction,Soldermask,Top*%
%TF.FilePolarity,Negative*%
%FSLAX46Y46*%
G04 Gerber Fmt 4.6, Leading zero omitted, Abs format (unit mm)*
G04 Created by KiCad (PCBNEW 9.0.2) date 2025-05-30 19:54:00*
%MOMM*%
%LPD*%
G01*
G04 APERTURE LIST*
G04 Aperture macros list*
%AMRoundRect*
0 Rectangle with rounded corners*
0 $1 Rounding radius*
0 $2 $3 $4 $5 $6 $7 $8 $9 X,Y pos of 4 corners*
0 Add a 4 corners polygon primitive as box body*
4,1,4,$2,$3,$4,$5,$6,$7,$8,$9,$2,$3,0*
0 Add four circle primitives for the rounded corners*
1,1,$1+$1,$2,$3*
1,1,$1+$1,$4,$5*
1,1,$1+$1,$6,$7*
1,1,$1+$1,$8,$9*
0 Add four rect primitives between the rounded corners*
20,1,$1+$1,$2,$3,$4,$5,0*
20,1,$1+$1,$4,$5,$6,$7,0*
20,1,$1+$1,$6,$7,$8,$9,0*
20,1,$1+$1,$8,$9,$2,$3,0*%
G04 Aperture macros list end*
%ADD10R,1.800000X1.000000*%
%ADD11RoundRect,0.062500X-0.350000X-0.062500X0.350000X-0.062500X0.350000X0.062500X-0.350000X0.062500X0*%
%ADD12RoundRect,0.062500X-0.062500X-0.350000X0.062500X-0.350000X0.062500X0.350000X-0.062500X0.350000X0*%
%ADD13R,2.500000X2.500000*%
%ADD14RoundRect,0.135000X-0.135000X-0.185000X0.135000X-0.185000X0.135000X0.185000X-0.135000X0.185000X0*%
%ADD15RoundRect,0.147500X-0.147500X-0.172500X0.147500X-0.172500X0.147500X0.172500X-0.147500X0.172500X0*%
%ADD16RoundRect,0.147500X0.147500X0.172500X-0.147500X0.172500X-0.147500X-0.172500X0.147500X-0.172500X0*%
%ADD17RoundRect,0.147500X0.172500X-0.147500X0.172500X0.147500X-0.172500X0.147500X-0.172500X-0.147500X0*%
%ADD18RoundRect,0.147500X-0.172500X0.147500X-0.172500X-0.147500X0.172500X-0.147500X0.172500X0.147500X0*%
%ADD19RoundRect,0.225000X-0.225000X-0.475000X0.225000X-0.475000X0.225000X0.475000X-0.225000X0.475000X0*%
%ADD20O,0.900000X1.400000*%
%ADD21RoundRect,0.140000X0.140000X0.170000X-0.140000X0.170000X-0.140000X-0.170000X0.140000X-0.170000X0*%
%ADD22RoundRect,0.140000X-0.140000X-0.170000X0.140000X-0.170000X0.140000X0.170000X-0.140000X0.170000X0*%
%ADD23RoundRect,0.140000X0.170000X-0.140000X0.170000X0.140000X-0.170000X0.140000X-0.170000X-0.140000X0*%
G04 APERTURE END LIST*
D10*
%TO.C,Y1*%
X159500000Y-88500000D03*
X159500000Y-91000000D03*
%TD*%
D11*
%TO.C,U1*%
X159187500Y-78625000D03*
X159187500Y-79125000D03*
X159187500Y-79625000D03*
X159187500Y-80125000D03*
X159187500Y-80625000D03*
D12*
X160125000Y-81562500D03*
X160625000Y-81562500D03*
X161125000Y-81562500D03*
X161625000Y-81562500D03*
X162125000Y-81562500D03*
D11*
X163062500Y-80625000D03*
X163062500Y-80125000D03*
X163062500Y-79625000D03*
X163062500Y-79125000D03*
X163062500Y-78625000D03*
D12*
X162125000Y-77687500D03*
X161625000Y-77687500D03*
X161125000Y-77687500D03*
X160625000Y-77687500D03*
X160125000Y-77687500D03*
D13*
X161125000Y-79625000D03*
%TD*%
D14*
%TO.C,R2*%
X154760000Y-89030000D03*
X155780000Y-89030000D03*
%TD*%
D15*
%TO.C,L4*%
X154785000Y-87040000D03*
X155755000Y-87040000D03*
%TD*%
D16*
%TO.C,L3*%
X155500000Y-80500000D03*
X154530000Y-80500000D03*
%TD*%
D17*
%TO.C,L2*%
X154500000Y-79470000D03*
X154500000Y-78500000D03*
%TD*%
D18*
%TO.C,L1*%
X156500000Y-80030000D03*
X156500000Y-81000000D03*
%TD*%
D19*
%TO.C,J1*%
X158250000Y-70500000D03*
D20*
X159500000Y-70500000D03*
X160750000Y-70500000D03*
X162000000Y-70500000D03*
X163250000Y-70500000D03*
X164500000Y-70500000D03*
X165750000Y-70500000D03*
X167000000Y-70500000D03*
%TD*%
D21*
%TO.C,C11*%
X152860000Y-88940000D03*
X151900000Y-88940000D03*
%TD*%
D22*
%TO.C,C10*%
X151900000Y-86970000D03*
X152860000Y-86970000D03*
%TD*%
%TO.C,C9*%
X151900000Y-85000000D03*
X152860000Y-85000000D03*
%TD*%
D21*
%TO.C,C8*%
X153980000Y-82500000D03*
X153020000Y-82500000D03*
%TD*%
D22*
%TO.C,C7*%
X152040000Y-79000000D03*
X153000000Y-79000000D03*
%TD*%
D21*
%TO.C,C6*%
X155000000Y-84000000D03*
X154040000Y-84000000D03*
%TD*%
%TO.C,C5*%
X153500000Y-90500000D03*
X152540000Y-90500000D03*
%TD*%
D23*
%TO.C,C4*%
X157520000Y-85480000D03*
X157520000Y-84520000D03*
%TD*%
D22*
%TO.C,C3*%
X168540000Y-74500000D03*
X169500000Y-74500000D03*
%TD*%
%TO.C,C2*%
X152040000Y-78000000D03*
X153000000Y-78000000D03*
%TD*%
%TO.C,C1*%
X152040000Y-76500000D03*
X153000000Y-76500000D03*
%TD*%
M02*
