M48
; DRILL file {KiCad 9.0.2} date 2025-05-30T19:36:32-0400
; FORMAT={-:-/ absolute / metric / decimal}
; #@! TF.CreationDate,2025-05-30T19:36:32-04:00
; #@! TF.GenerationSoftware,Kicad,Pcbnew,9.0.2
; #@! TF.FileFunction,Plated,1,2,PTH
FMAT,2
METRIC
; #@! TA.AperFunction,Plated,PTH,ViaDrill
T1C0.300
; #@! TA.AperFunction,Plated,PTH,ComponentDrill
T2C0.600
%
G90
G05
T1
X156.5Y-79.0
X156.5Y-83.0
X157.301Y-79.725
X158.0Y-80.5
X158.934Y-82.4
X159.0Y-76.0
X159.5Y-83.0
X162.817Y-75.5
X163.0Y-73.5
X163.0Y-83.5
X163.5Y-85.0
X165.0Y-77.5
X168.5Y-77.5
X168.5Y-79.0
X168.5Y-80.5
X168.5Y-82.5
X168.5Y-84.0
X168.5Y-85.5
X168.5Y-87.0
X168.5Y-89.5
X168.5Y-91.0
X169.0Y-73.0
X170.0Y-77.5
X170.0Y-79.0
X170.0Y-80.5
X170.0Y-82.5
X170.0Y-84.0
X170.0Y-85.5
X170.0Y-87.0
X170.0Y-89.0
X170.0Y-91.0
T2
X158.25Y-70.5
X159.5Y-70.5
X160.75Y-70.5
X162.0Y-70.5
X163.25Y-70.5
X164.5Y-70.5
X165.75Y-70.5
X167.0Y-70.5
M30
